<svg width="0" height="0" class="hidden">
  <symbol xmlns="http://www.w3.org/2000/svg" viewBox="-5.212 -3.91 62.544 46.92" id="icon_shooting">
    <defs></defs>
    <g id="Layer_2">
      <g id="Layer_1-2">
        <path d="M37.05,11.87l2.28-2.3Q43.95,5,48.57.32a.86.86,0,0,1,.9-.26,3.23,3.23,0,0,1,2.65,3.27q0,16.23,0,32.47a3.24,3.24,0,0,1-2.78,3.26.84.84,0,0,1-.81-.26Q43,33.19,37.35,27.6l-.42-.39v.84c0,2.13,0,4.27,0,6.41a4.36,4.36,0,0,1-4.71,4.63H4.53A4.33,4.33,0,0,1,0,34.54v-30A4.34,4.34,0,0,1,4.53,0H32.21a4.37,4.37,0,0,1,4.72,4.68c0,2.19,0,4.38,0,6.57v.55Z"></path>
      </g>
    </g>
  </symbol>
</svg>