<svg width="0" height="0" class="hidden">
  <symbol version="1.1" xmlns="http://www.w3.org/2000/svg" viewBox="0 0 512 512" id="icon-government">
    <path d="M0 0 C3.76412254 1.60341304 7.53422775 3.19253346 11.30407715 4.78242493 C13.28843839 5.61931705 15.27252564 6.45685913 17.25634766 7.29502869 C27.94625635 11.80838068 38.67157755 16.23486556 49.40008545 20.65548706 C53.26089168 22.24762192 57.12149782 23.84024173 60.9821167 25.43283081 C61.92816772 25.82300888 62.87421875 26.21318695 63.84893799 26.6151886 C77.79040661 32.36618659 91.71852638 38.14940621 105.64790344 43.92961121 C112.67281442 46.84425313 119.70008469 49.75317898 126.72772217 52.66123962 C133.59863452 55.50510255 140.46600877 58.35741804 147.33197021 61.21321106 C151.69503385 63.02652699 156.06260667 64.82797707 160.43711853 66.61349487 C163.4071976 67.82792594 166.37181664 69.05557521 169.33758545 70.28048706 C170.35328613 70.68960327 171.36898682 71.09871948 172.41546631 71.52023315 C183.09513213 75.96295941 192.05770003 82.274823 196.58758545 93.21798706 C198.50875671 98.29247316 199.40449423 102.96408486 199.3727417 108.39376831 C199.36951904 109.37023315 199.36629639 110.346698 199.36297607 111.35275269 C199.35459717 112.36015503 199.34621826 113.36755737 199.33758545 114.40548706 C199.33307373 115.43222534 199.32856201 116.45896362 199.32391357 117.51681519 C199.31216729 120.04226588 199.29574109 122.56759611 199.27508545 125.09298706 C200.07172607 125.05818237 200.8683667 125.02337769 201.68914795 124.98751831 C212.6483075 124.70753978 212.6483075 124.70753978 217.27508545 128.09298706 C221.69080015 132.56834579 222.90769058 134.9842593 222.9039917 141.46798706 C222.90640366 142.15554077 222.90881561 142.84309448 222.91130066 143.55148315 C222.91032644 144.99701742 222.89703433 146.44259097 222.87200928 147.88790894 C222.83766675 150.08777889 222.85137408 152.28363076 222.87078857 154.48361206 C222.86388941 155.89508732 222.85421636 157.3065523 222.8414917 158.71798706 C222.83061523 159.98900269 222.81973877 161.26001831 222.80853271 162.56954956 C222.03763312 167.66136783 219.89396698 170.84769357 215.83758545 173.96798706 C212.27508545 175.09298706 212.27508545 175.09298706 199.27508545 175.09298706 C199.27508545 263.86298706 199.27508545 352.63298706 199.27508545 444.09298706 C203.23508545 444.09298706 207.19508545 444.09298706 211.27508545 444.09298706 C216.16745662 445.69412672 219.91787284 448.45267788 222.27508545 453.09298706 C223.04625381 457.58197884 223.01845794 461.98538137 222.96258545 466.53048706 C223.00415771 468.33356323 223.00415771 468.33356323 223.04656982 470.17306519 C223.02861186 476.68462174 222.71000241 481.07675232 218.05169678 485.8432312 C213.30159022 489.18468997 208.66917131 489.37964101 203.02409458 489.34746265 C202.19281983 489.35066913 201.36154509 489.35387561 200.50508019 489.35717925 C197.70728146 489.36550978 194.90969511 489.35954429 192.1118927 489.35368347 C190.09069996 489.35670276 188.06950837 489.36059112 186.0483188 489.36527604 C180.48440848 489.37559343 174.92056233 489.37336472 169.35664666 489.36909544 C163.35996494 489.36663501 157.36329894 489.37563385 151.36662292 489.38313293 C139.61496519 489.39590079 127.86332546 489.3976769 116.11166341 489.39533267 C106.56282209 489.39350096 97.01398749 489.39525706 87.46514702 489.39955711 C86.0939175 489.40015951 84.72268799 489.40076071 83.35145847 489.40136072 C81.28522289 489.40226796 79.21898732 489.40317662 77.15275174 489.40409307 C57.93886809 489.41252419 38.72498697 489.41685717 19.51110172 489.41268635 C18.78658159 489.41252997 18.06206145 489.4123736 17.31558616 489.41221248 C13.64331891 489.41140668 9.97105168 489.41056091 6.29878444 489.40969918 C5.56944289 489.40952809 4.84010134 489.409357 4.08865852 489.40918073 C2.61375261 489.40883408 1.13884669 489.40848555 -0.33605922 489.40813514 C-23.28950471 489.40277703 -46.24291178 489.41071027 -69.1963501 489.4291687 C-94.97676748 489.44987615 -120.75716106 489.46061386 -146.53758723 489.45659322 C-149.28544493 489.45619786 -152.03330264 489.45583631 -154.78116035 489.45549583 C-155.7960704 489.45535974 -155.7960704 489.45535974 -156.83148367 489.45522089 C-167.05345189 489.45405405 -177.27539611 489.46070977 -187.49735832 489.47130775 C-199.11980922 489.48334536 -210.74221659 489.48465641 -222.36466997 489.47251759 C-228.29749045 489.46661028 -234.23020738 489.46558047 -240.16302109 489.47751999 C-245.59049257 489.48831585 -251.01777324 489.48535091 -256.44523556 489.47125831 C-258.41220531 489.46859394 -260.37918971 489.47103198 -262.34614515 489.47899417 C-265.01369015 489.48904566 -267.6805649 489.48072509 -270.34808254 489.46771717 C-271.11702049 489.47502652 -271.88595844 489.48233586 -272.67819753 489.4898667 C-278.93859943 489.4263116 -282.79270591 487.6947214 -287.5569458 483.74533081 C-291.29949448 478.8798674 -290.48414433 472.4905488 -290.41241455 466.65548706 C-290.44012939 465.45343628 -290.46784424 464.2513855 -290.49639893 463.01290894 C-290.47844097 456.50135239 -290.15983151 452.1092218 -285.50152588 447.34274292 C-281.27721444 444.37115432 -277.50470413 443.85606861 -272.41241455 443.96798706 C-271.34378174 443.98603394 -270.27514893 444.00408081 -269.1741333 444.02267456 C-267.96177002 444.05747925 -267.96177002 444.05747925 -266.72491455 444.09298706 C-266.72675814 443.02985165 -266.72860172 441.96671623 -266.73050117 440.87136459 C-266.77486406 415.02488146 -266.80774885 389.17840325 -266.82853889 363.33189011 C-266.83885955 350.83280842 -266.85293495 338.33375185 -266.87579346 325.83468628 C-266.89570318 314.94284494 -266.90862524 304.05102179 -266.91309154 293.15916276 C-266.91570302 287.38990671 -266.92185752 281.62070271 -266.93637466 275.85146332 C-266.94992037 270.42446163 -266.9541433 264.99753358 -266.95112991 259.57051659 C-266.95168143 257.57584674 -266.95567674 255.5811745 -266.9633255 253.58651924 C-266.9732396 250.86843009 -266.97089636 248.15062093 -266.96542358 245.43252563 C-266.97124927 244.6387507 -266.97707495 243.84497577 -266.98307717 243.02714705 C-266.96245209 239.25118709 -266.9318693 236.25193843 -264.72491455 233.09298706 C-262.02903652 230.99619303 -260.63197055 231.09787885 -257.16241455 231.28048706 C-252.60655354 232.35732694 -252.60655354 232.35732694 -250.72491455 235.09298706 C-250.43677581 237.58756997 -250.33281532 239.83111815 -250.364151 242.32521057 C-250.36158773 243.06689682 -250.35902445 243.80858307 -250.3563835 244.57274467 C-250.35143102 247.06498151 -250.36796221 249.55661631 -250.38433838 252.04879761 C-250.38518434 253.83246852 -250.38471012 255.61614048 -250.38301086 257.39981079 C-250.38214826 262.2487431 -250.39981684 267.09745388 -250.42073274 271.9463346 C-250.43945545 277.01122405 -250.4412465 282.07611827 -250.44480896 287.14103699 C-250.4541424 296.73517173 -250.47877374 306.32920422 -250.50885743 315.92329389 C-250.54236106 326.84454393 -250.55887728 337.7657988 -250.57394373 348.68708742 C-250.60532217 371.1557793 -250.65871044 393.62437315 -250.72491455 416.09298706 C-240.82491455 416.09298706 -230.92491455 416.09298706 -220.72491455 416.09298706 C-220.72491455 348.77298706 -220.72491455 281.45298706 -220.72491455 212.09298706 C-234.25491455 212.09298706 -247.78491455 212.09298706 -261.72491455 212.09298706 C-265.72491455 209.09298706 -265.72491455 209.09298706 -266.72491455 206.09298706 C-266.80888612 203.73618493 -266.83219643 201.37704626 -266.8225708 199.01876831 C-266.82115585 198.33493576 -266.81974091 197.65110321 -266.81828308 196.94654846 C-266.81269331 194.76614984 -266.80014277 192.58585455 -266.78741455 190.40548706 C-266.78239822 188.92567084 -266.77783555 187.445853 -266.77374268 185.96603394 C-266.76272726 182.34165149 -266.74546967 178.71732937 -266.72491455 175.09298706 C-267.62202148 175.10603882 -268.51912842 175.11909058 -269.44342041 175.13253784 C-271.20504517 175.14776489 -271.20504517 175.14776489 -273.0022583 175.16329956 C-274.16749023 175.17635132 -275.33272217 175.18940308 -276.53326416 175.20285034 C-280.39878419 175.06979106 -282.64713228 174.46051189 -285.72491455 172.09298706 C-290.70549148 165.83190392 -290.40235574 159.97294139 -290.35626221 152.35299683 C-290.34993738 150.16339026 -290.39691114 147.97919249 -290.4475708 145.79025269 C-290.55531586 134.12092854 -290.55531586 134.12092854 -286.99835205 129.71408081 C-282.44485929 125.5939336 -278.48001091 124.83463329 -272.41241455 124.96798706 C-271.34378174 124.98603394 -270.27514893 125.00408081 -269.1741333 125.02267456 C-268.36589111 125.04587769 -267.55764893 125.06908081 -266.72491455 125.09298706 C-266.740625 124.48414673 -266.75633545 123.8753064 -266.77252197 123.24801636 C-267.42498173 94.1461088 -267.42498173 94.1461088 -257.72491455 83.09298706 C-252.51216742 77.87109476 -247.40709203 74.59760004 -240.59991455 71.84298706 C-239.16687988 71.24079346 -239.16687988 71.24079346 -237.70489502 70.62643433 C-234.76484044 69.396583 -231.8185134 68.18303564 -228.86968994 66.97439575 C-225.63334231 65.64439871 -222.40208521 64.30218407 -219.17027283 62.96121216 C-210.35935388 59.3055498 -201.54215385 55.66530255 -192.7210083 52.03439331 C-181.77754024 47.52972152 -170.84302139 43.00376398 -159.91241455 38.46798706 C-158.22508558 37.76801595 -156.53774834 37.06806479 -154.85040283 36.36813354 C-151.48999525 34.97414417 -148.12965171 33.58000059 -144.76934814 32.1857605 C-139.67801095 30.07339063 -134.58628262 27.96196478 -129.4944458 25.85079956 C-128.64640884 25.49918259 -127.79837189 25.14756561 -126.92463684 24.78529358 C-122.66842778 23.02060163 -118.41215841 21.25605527 -114.15582275 19.4916687 C-106.22691081 16.20470614 -98.29851399 12.91651855 -90.37194824 9.62390137 C-86.67120377 8.08673889 -82.97016442 6.55028709 -79.269104 5.0138855 C-77.52302639 4.28881531 -75.77708961 3.56340586 -74.03131104 2.83761597 C-68.5998585 0.57960234 -63.16483873 -1.66948503 -57.72491455 -3.90701294 C-57.00275757 -4.20480652 -56.28060059 -4.5026001 -55.53656006 -4.80941772 C-53.47900381 -5.65568488 -51.41889831 -6.49537644 -49.35772705 -7.33279419 C-48.19386475 -7.80757202 -47.03000244 -8.28234985 -45.83087158 -8.77151489 C-29.80524811 -14.63027725 -14.64928327 -6.24122027 0 0 Z M-45.9319458 8.65158081 C-46.83259766 9.02691452 -47.73324951 9.40224823 -48.66119385 9.78895569 C-51.62414447 11.02633576 -54.58064339 12.2784214 -57.53741455 13.53048706 C-59.61533864 14.40117885 -61.69371423 15.27079386 -63.77252197 16.13937378 C-68.03218288 17.92056678 -72.28957371 19.70702609 -76.54522705 21.49777222 C-84.69466998 24.92441502 -92.86368242 28.30340787 -101.03320312 31.68182373 C-105.24678227 33.42526925 -109.4584636 35.17328587 -113.67022705 36.92111206 C-115.34763423 37.61707965 -117.02504308 38.3130432 -118.70245361 39.00900269 C-120.37660941 39.70365896 -122.05076306 40.39832042 -123.72491455 41.09298706 C-130.45390058 43.8850893 -137.18300172 46.67691362 -143.91241455 49.46798706 C-144.74644806 49.813909 -145.58048157 50.15983093 -146.43978882 50.51623535 C-158.45833252 55.5004238 -170.48094351 60.47470666 -182.50714111 65.44039917 C-186.44877314 67.06800847 -190.38947572 68.69783692 -194.32940674 70.32955933 C-209.99384461 76.8133398 -209.99384461 76.8133398 -217.68502808 79.89079285 C-220.3984113 80.97652826 -223.10828838 82.07086196 -225.8180542 83.16558838 C-227.58807651 83.875665 -229.36391081 84.57120165 -231.13995361 85.26608276 C-238.47926661 88.23420388 -244.44106438 91.2865701 -248.59991455 98.21798706 C-252.30299034 107.68140296 -250.72491455 112.85991768 -250.72491455 125.09298706 C-230.92491455 125.09298706 -211.12491455 125.09298706 -190.72491455 125.09298706 C-190.39491455 119.48298706 -190.06491455 113.87298706 -189.72491455 108.09298706 C-187.70959152 102.55084873 -185.671922 99.3085419 -180.72491455 96.09298706 C-180.17475961 95.73498709 -179.62460466 95.37698711 -179.05777836 95.00813866 C-175.70717754 93.6937423 -172.44548508 93.81074137 -168.89909363 93.82556152 C-168.10558347 93.82103041 -167.31207331 93.8164993 -166.49451739 93.81183088 C-163.83289479 93.7991601 -161.1714761 93.80080894 -158.50982666 93.80245972 C-156.60279578 93.7964763 -154.69576732 93.78967118 -152.78874207 93.78210449 C-147.60711164 93.76442221 -142.42554725 93.75974828 -137.24388957 93.75847292 C-132.92197868 93.75657522 -128.60008323 93.74921951 -124.27817827 93.74212873 C-114.08618073 93.72584008 -103.89421853 93.72096036 -93.70220947 93.72238159 C-83.17637033 93.7235844 -72.65073578 93.70245596 -62.12494844 93.67089427 C-53.09558644 93.64478102 -44.06629149 93.63401215 -35.036892 93.63529241 C-29.64047242 93.63580334 -24.24423478 93.63004781 -18.84785271 93.60893631 C-13.77610156 93.58963622 -8.70470751 93.58937274 -3.63294411 93.60396957 C-1.76846676 93.60606877 0.09603247 93.60129118 1.96047211 93.58924866 C4.49948986 93.57390699 7.03725903 93.58302953 9.57624817 93.59851074 C10.69131362 93.58308005 10.69131362 93.58308005 11.82890564 93.56733763 C15.11371666 93.61181432 16.821896 93.6611428 19.25162411 95.97643089 C20.50975227 98.57828679 20.42076986 100.01057434 19.96258545 102.84298706 C19.84270264 103.64220581 19.72281982 104.44142456 19.5993042 105.26486206 C19.43881592 106.16978394 19.43881592 106.16978394 19.27508545 107.09298706 C15.03519472 108.12369971 10.92594161 108.2401008 6.58802795 108.23774719 C5.43830003 108.24303746 5.43830003 108.24303746 4.26534528 108.2484346 C1.7012844 108.25909516 -0.86273929 108.26279788 -3.42681885 108.26657104 C-5.26665401 108.27287807 -7.10648766 108.27964404 -8.94631958 108.28683472 C-12.90556712 108.30149 -16.86480881 108.31322037 -20.82407188 108.32278252 C-27.07976932 108.3382357 -33.3354162 108.36218226 -39.59107971 108.38768005 C-57.37857882 108.45888903 -75.1661062 108.51877226 -92.95367432 108.5697937 C-102.77945987 108.59805265 -112.60519446 108.63340401 -122.43092662 108.67644745 C-128.65487563 108.70328139 -134.87876701 108.72114803 -141.10276258 108.7324847 C-144.96624427 108.74158145 -148.82965554 108.75892831 -152.69309616 108.77866364 C-154.49025051 108.78616467 -156.28742287 108.79022172 -158.08459282 108.79065895 C-160.52947239 108.79173449 -162.97398987 108.80491839 -165.41880798 108.82124329 C-166.13717903 108.81862643 -166.85555008 108.81600958 -167.59568995 108.81331342 C-171.60686968 108.74697422 -171.60686968 108.74697422 -174.72491455 111.09298706 C-175.03117979 113.15688126 -175.03117979 113.15688126 -174.98561096 115.56526184 C-174.99269577 116.50606094 -174.99978058 117.44686005 -175.00708008 118.41616821 C-175.00460266 119.45154724 -175.00212524 120.48692627 -174.99957275 121.55368042 C-175.00723915 123.18549004 -175.00723915 123.18549004 -175.01506042 124.8502655 C-175.02900756 128.46117593 -175.0279958 132.07189659 -175.0256958 135.68283081 C-175.02957991 138.18385388 -175.03391398 140.68487629 -175.03868103 143.18589783 C-175.04615427 148.4341596 -175.04598153 153.6823719 -175.04058838 158.93063354 C-175.03454779 164.99961582 -175.04685964 171.0683663 -175.06815845 177.13730901 C-175.08788396 182.97217614 -175.09094991 188.80695225 -175.08742332 194.64184761 C-175.08793805 197.12623196 -175.09320385 199.6106199 -175.10323524 202.09498405 C-175.11552411 205.56447252 -175.1088531 209.03341985 -175.097229 212.50289917 C-175.10487274 213.53625397 -175.11251648 214.56960876 -175.12039185 215.63427734 C-175.11337753 216.57789627 -175.10636322 217.5215152 -175.09913635 218.49372864 C-175.09938797 219.72457388 -175.09938797 219.72457388 -175.09964466 220.98028469 C-174.62171817 223.67480109 -173.86009713 224.41293548 -171.72491455 226.09298706 C-169.53232239 226.54190585 -169.53232239 226.54190585 -167.05375671 226.47051048 C-166.08821649 226.47833372 -165.12267626 226.48615697 -164.12787724 226.49421728 C-163.06476039 226.48752511 -162.00164354 226.48083295 -160.90631104 226.47393799 C-159.21505049 226.48095795 -159.21505049 226.48095795 -157.48962307 226.48811972 C-153.69163368 226.500136 -149.89400071 226.49058639 -146.0960083 226.48117065 C-143.38124848 226.48358231 -140.66650405 226.49046461 -137.95175171 226.49710083 C-131.33166461 226.51046059 -124.71167939 226.50755049 -118.09158826 226.49886291 C-112.71267181 226.49209557 -107.33378398 226.49116552 -101.9548645 226.49443436 C-100.80777391 226.49512391 -100.80777391 226.49512391 -99.63750976 226.49582738 C-98.08411955 226.49678653 -96.53072934 226.49775917 -94.97733915 226.49874516 C-80.40145528 226.50730562 -65.82562795 226.49745465 -51.24975336 226.48134406 C-38.73526053 226.46794027 -26.22085118 226.47026818 -13.70635986 226.48410034 C0.81635253 226.50014459 15.33901533 226.50648159 29.86173534 226.49726355 C31.40950202 226.49630787 32.95726871 226.49536476 34.5050354 226.49443436 C35.6474164 226.49374012 35.6474164 226.49374012 36.81287581 226.49303185 C42.18710141 226.49043849 47.56129562 226.4948204 52.93551636 226.50187302 C59.48237879 226.51027541 66.02913327 226.50803457 72.57598329 226.49203078 C75.91816809 226.48413085 79.26002309 226.48269246 82.60223007 226.49097824 C86.22049621 226.499124 89.8382489 226.48895628 93.45648193 226.47393799 C94.51959878 226.48063015 95.58271563 226.48732232 96.67804813 226.49421728 C97.64358836 226.48639403 98.60912859 226.47857079 99.60392761 226.47051048 C100.85741328 226.4697799 100.85741328 226.4697799 102.13622189 226.46903455 C104.77667598 226.00479917 105.66311574 225.19840877 107.27508545 223.09298706 C107.72226574 220.92984072 107.72226574 220.92984072 107.64930725 218.49372864 C107.65632156 217.55010971 107.66333588 216.60649078 107.67056274 215.63427734 C107.66291901 214.60092255 107.65527527 213.56756775 107.6473999 212.50289917 C107.65105057 211.41327377 107.65470123 210.32364838 107.65846252 209.20100403 C107.66658458 205.59062228 107.65294463 201.98068697 107.6383667 198.37033081 C107.63784833 195.86834208 107.63836513 193.36635295 107.63987732 190.86436462 C107.63978752 185.61784861 107.62967948 180.37144874 107.61126709 175.12496948 C107.5900884 169.05541562 107.5865919 162.98605094 107.59282905 156.91646761 C107.59851897 151.08105621 107.59277802 145.24571265 107.5816555 139.41031075 C107.57779596 136.92510815 107.57665839 134.43989984 107.57824135 131.95469475 C107.57861057 128.48757817 107.56603229 125.02075334 107.54974365 121.55368042 C107.55222107 120.51830139 107.55469849 119.48292236 107.55725098 118.41616821 C107.55016617 117.47536911 107.54308136 116.53457001 107.53578186 115.56526184 C107.53372899 114.74507537 107.53167612 113.9248889 107.52956104 113.07984829 C107.45126414 110.86146873 107.45126414 110.86146873 105.27508545 109.09298706 C102.76271384 108.77505251 102.76271384 108.77505251 99.80316162 108.80587769 C98.65824753 108.79246338 97.51333344 108.77904907 96.33372498 108.76522827 C94.46971794 108.75731262 94.46971794 108.75731262 92.5680542 108.74923706 C90.65903069 108.72730286 90.65903069 108.72730286 88.71144104 108.70492554 C84.62851805 108.6582766 80.54565003 108.62377868 76.46258545 108.59298706 C71.10172806 108.55244501 65.74122425 108.49819123 60.3805542 108.43673706 C59.14395554 108.43145996 57.90735687 108.42618286 56.63328552 108.42074585 C55.47891495 108.40733154 54.32454437 108.39391724 53.13519287 108.38009644 C52.12196457 108.37280518 51.10873627 108.36551392 50.06480408 108.35800171 C47.09781977 108.07614737 44.93153849 107.43201967 42.27508545 106.09298706 C40.87050808 103.28383232 41.02613388 101.20488172 41.27508545 98.09298706 C42.4044342 95.93101501 42.4044342 95.93101501 44.27508545 94.09298706 C47.04966736 93.57832336 47.04966736 93.57832336 50.45550537 93.55953979 C52.3684565 93.53578529 52.3684565 93.53578529 54.3200531 93.5115509 C55.71522384 93.51539416 57.11039171 93.5204342 58.5055542 93.52658081 C59.93942163 93.5213442 61.3732856 93.51506758 62.80714417 93.50779724 C65.81590955 93.49738178 68.82420245 93.50196563 71.83294678 93.51657104 C75.67206548 93.53368917 79.50967771 93.5103591 83.34862804 93.47508144 C86.3128688 93.45301014 89.27675522 93.45457332 92.24105263 93.46284676 C93.6551204 93.46366238 95.06921522 93.4568737 96.4832058 93.44207573 C104.51053547 93.37099661 111.1790743 93.36157672 117.27508545 99.09298706 C124.06262203 107.79495703 122.5278527 112.39003036 123.27508545 125.09298706 C143.07508545 125.09298706 162.87508545 125.09298706 183.27508545 125.09298706 C184.37470752 107.35154354 184.37470752 107.35154354 176.90141296 92.45144653 C171.01366416 87.53345304 162.72532219 84.91705173 155.6774292 82.04611206 C154.3349411 81.4937236 154.3349411 81.4937236 152.96533203 80.93017578 C150.04913239 79.73104858 147.13085227 78.53707348 144.21258545 77.34298706 C142.1522671 76.49657869 140.09212986 75.64972932 138.03216553 74.80245972 C133.81873014 73.06959917 129.60470526 71.33818408 125.39031982 69.6076355 C117.24242429 66.2596365 109.10521496 62.8859882 100.9694519 59.50863647 C98.44771429 58.46181375 95.92576397 57.4155051 93.40374756 56.36935425 C90.04227361 54.97497827 86.68086637 53.58044169 83.31951904 52.1857605 C78.22818185 50.07339063 73.13645378 47.96196415 68.0446167 45.85079956 C67.19712357 45.49940918 66.34963043 45.1480188 65.47645569 44.78598022 C61.21089994 43.01741735 56.94528948 41.24898652 52.67962646 39.48068237 C43.0683511 35.49619734 33.45836397 31.50863133 23.84980774 27.51759338 C16.99800189 24.6722348 10.14299754 21.83465495 3.28678894 18.99992371 C-1.17970395 17.15177762 -5.64101437 15.29199665 -10.09661865 13.41775513 C-12.02347584 12.60845149 -13.95213024 11.80362738 -15.88165283 11.0007019 C-18.1530291 10.05489718 -20.42122816 9.10140641 -22.68536377 8.13839722 C-23.67165771 7.7302478 -24.65795166 7.32209839 -25.6741333 6.90158081 C-26.51291016 6.54894165 -27.35168701 6.19630249 -28.21588135 5.83297729 C-34.92305598 3.85482741 -39.79562612 6.02563179 -45.9319458 8.65158081 Z M-274.72491455 141.09298706 C-274.72491455 147.03298706 -274.72491455 152.97298706 -274.72491455 159.09298706 C-247.00491455 159.09298706 -219.28491455 159.09298706 -190.72491455 159.09298706 C-190.72491455 153.15298706 -190.72491455 147.21298706 -190.72491455 141.09298706 C-218.44491455 141.09298706 -246.16491455 141.09298706 -274.72491455 141.09298706 Z M123.27508545 141.09298706 C123.27508545 147.03298706 123.27508545 152.97298706 123.27508545 159.09298706 C150.99508545 159.09298706 178.71508545 159.09298706 207.27508545 159.09298706 C207.27508545 153.15298706 207.27508545 147.21298706 207.27508545 141.09298706 C179.55508545 141.09298706 151.83508545 141.09298706 123.27508545 141.09298706 Z M-250.72491455 175.09298706 C-250.72491455 182.02298706 -250.72491455 188.95298706 -250.72491455 196.09298706 C-230.92491455 196.09298706 -211.12491455 196.09298706 -190.72491455 196.09298706 C-190.72491455 189.16298706 -190.72491455 182.23298706 -190.72491455 175.09298706 C-210.52491455 175.09298706 -230.32491455 175.09298706 -250.72491455 175.09298706 Z M123.27508545 175.09298706 C123.27508545 182.02298706 123.27508545 188.95298706 123.27508545 196.09298706 C143.07508545 196.09298706 162.87508545 196.09298706 183.27508545 196.09298706 C183.27508545 189.16298706 183.27508545 182.23298706 183.27508545 175.09298706 C163.47508545 175.09298706 143.67508545 175.09298706 123.27508545 175.09298706 Z M-204.72491455 212.09298706 C-204.72491455 279.41298706 -204.72491455 346.73298706 -204.72491455 416.09298706 C-180.63491455 416.09298706 -156.54491455 416.09298706 -131.72491455 416.09298706 C-131.72491455 358.67298706 -131.72491455 301.25298706 -131.72491455 242.09298706 C-145.58491455 241.76298706 -159.44491455 241.43298706 -173.72491455 241.09298706 C-185.32042017 236.74467245 -185.32042017 236.74467245 -186.84991455 234.28048706 C-187.13866455 233.55861206 -187.42741455 232.83673706 -187.72491455 232.09298706 C-188.0600708 231.38400269 -188.39522705 230.67501831 -188.74053955 229.94454956 C-189.96281256 226.40383806 -190.17962102 222.9879191 -190.34991455 219.28048706 C-190.38858643 218.58761597 -190.4272583 217.89474487 -190.46710205 217.18087769 C-190.56065023 215.48531692 -190.64383819 213.78918994 -190.72491455 212.09298706 C-195.34491455 212.09298706 -199.96491455 212.09298706 -204.72491455 212.09298706 Z M123.27508545 212.09298706 C123.17196045 214.25861206 123.06883545 216.42423706 122.96258545 218.65548706 C122.57515437 224.21428076 121.88055939 228.20772343 119.27508545 233.09298706 C118.78008545 234.57798706 118.78008545 234.57798706 118.27508545 236.09298706 C102.64079301 246.09893422 80.71353271 241.70159546 64.27508545 242.09298706 C64.27508545 299.51298706 64.27508545 356.93298706 64.27508545 416.09298706 C88.36508545 416.09298706 112.45508545 416.09298706 137.27508545 416.09298706 C137.27508545 348.77298706 137.27508545 281.45298706 137.27508545 212.09298706 C132.65508545 212.09298706 128.03508545 212.09298706 123.27508545 212.09298706 Z M153.27508545 212.09298706 C153.27508545 279.41298706 153.27508545 346.73298706 153.27508545 416.09298706 C163.17508545 416.09298706 173.07508545 416.09298706 183.27508545 416.09298706 C183.27508545 348.77298706 183.27508545 281.45298706 183.27508545 212.09298706 C173.37508545 212.09298706 163.47508545 212.09298706 153.27508545 212.09298706 Z M-115.72491455 242.09298706 C-115.72491455 299.51298706 -115.72491455 356.93298706 -115.72491455 416.09298706 C-105.82491455 416.09298706 -95.92491455 416.09298706 -85.72491455 416.09298706 C-85.72491455 358.67298706 -85.72491455 301.25298706 -85.72491455 242.09298706 C-95.62491455 242.09298706 -105.52491455 242.09298706 -115.72491455 242.09298706 Z M-69.72491455 242.09298706 C-69.72491455 262.55298706 -69.72491455 283.01298706 -69.72491455 304.09298706 C-65.76543843 302.113249 -62.87196411 299.73680677 -59.59991455 296.84298706 C-50.95435346 289.36263877 -43.19968955 283.58151239 -31.42022705 283.83908081 C-20.75189563 284.84406855 -13.87200063 291.84457943 -6.28106689 298.70236206 C-2.51006933 302.55577068 -2.51006933 302.55577068 2.27508545 304.09298706 C2.27508545 283.63298706 2.27508545 263.17298706 2.27508545 242.09298706 C-21.48491455 242.09298706 -45.24491455 242.09298706 -69.72491455 242.09298706 Z M18.27508545 242.09298706 C18.27508545 299.51298706 18.27508545 356.93298706 18.27508545 416.09298706 C28.17508545 416.09298706 38.07508545 416.09298706 48.27508545 416.09298706 C48.27508545 358.67298706 48.27508545 301.25298706 48.27508545 242.09298706 C38.37508545 242.09298706 28.47508545 242.09298706 18.27508545 242.09298706 Z M-50.03741455 309.34298706 C-55.17806775 313.89876405 -60.37585843 318.2777003 -65.8694458 322.40939331 C-69.13603094 325.37338951 -69.68497175 327.45827105 -69.96542358 331.91482544 C-69.9712106 333.48495058 -69.96592937 335.05513992 -69.95196533 336.62521362 C-69.95225739 337.48411194 -69.95254944 338.34301025 -69.95285034 339.22793579 C-69.95145843 342.06326443 -69.93590369 344.89832939 -69.92022705 347.73361206 C-69.91649643 349.70087541 -69.91364969 351.66814062 -69.91165161 353.63540649 C-69.90401903 358.8106907 -69.88437369 363.98586248 -69.86224365 369.16110229 C-69.8417772 374.44306925 -69.83264818 379.72505438 -69.8225708 385.00704956 C-69.80112748 395.36908605 -69.76594834 405.73100961 -69.72491455 416.09298706 C-60.48491455 416.09298706 -51.24491455 416.09298706 -41.72491455 416.09298706 C-41.71556885 413.56932495 -41.70622314 411.04566284 -41.69659424 408.44552612 C-41.66284112 400.11137384 -41.60730161 391.77746963 -41.54101181 383.44351578 C-41.50148684 378.39013613 -41.46932303 373.33693205 -41.45391846 368.28341675 C-41.43878489 363.40730702 -41.40439826 358.5316798 -41.35660553 353.65578461 C-41.3417576 351.79468731 -41.33387159 349.93352114 -41.3330307 348.07236481 C-41.33066951 345.46706071 -41.30365959 342.86309929 -41.27081299 340.25802612 C-41.27584335 339.48694519 -41.28087372 338.71586426 -41.28605652 337.92141724 C-41.21786966 334.43048682 -40.99065575 332.44974166 -38.8782959 329.61392212 C-35.93336213 327.53391292 -34.25487408 327.50466047 -30.72491455 328.09298706 C-28.5715332 329.61392212 -28.5715332 329.61392212 -26.72491455 332.09298706 C-26.3220933 334.94153924 -26.16043114 337.40922282 -26.17901611 340.25802612 C-26.16867844 341.07791016 -26.15834076 341.89779419 -26.14768982 342.74252319 C-26.11823065 345.44808588 -26.11676201 348.1529015 -26.11553955 350.85861206 C-26.10055998 352.73621043 -26.0838333 354.6137956 -26.06542969 356.49136353 C-26.02171884 361.42986654 -26.0017488 366.36819181 -25.98669434 371.30685425 C-25.96713672 376.34765144 -25.9251652 381.38825629 -25.8850708 386.42892456 C-25.80972799 396.31691867 -25.76153289 406.20477362 -25.72491455 416.09298706 C-16.48491455 416.09298706 -7.24491455 416.09298706 2.27508545 416.09298706 C2.36549574 404.7228492 2.43886458 393.35295054 2.48233414 381.98253441 C2.50319856 376.70264697 2.53149556 371.42301846 2.57684326 366.14328003 C2.62034144 361.04691654 2.64423118 355.95080193 2.65459442 350.85426712 C2.66197862 348.91100777 2.67639832 346.96776186 2.69800568 345.02460861 C2.72709242 342.30019571 2.73103925 339.57680789 2.72918701 336.8522644 C2.74356812 336.05097107 2.75794922 335.24967773 2.77276611 334.42410278 C2.73426675 329.18205459 1.6988954 326.27691459 -1.72491455 322.09298706 C-4.0473044 319.8786101 -4.0473044 319.8786101 -6.66241455 317.90548706 C-7.62405518 317.14622925 -8.5856958 316.38697144 -9.57647705 315.60470581 C-10.085979 315.20300171 -10.59548096 314.80129761 -11.12042236 314.38742065 C-12.81929045 313.01684875 -14.47375487 311.60445013 -16.12335205 310.17501831 C-16.97618774 309.43771484 -16.97618774 309.43771484 -17.84625244 308.68551636 C-18.94551386 307.73161706 -20.04126789 306.77365549 -21.13287354 305.81100464 C-32.83293703 295.72626906 -39.94505224 300.26789903 -50.03741455 309.34298706 Z M-250.72491455 432.09298706 C-250.72491455 436.05298706 -250.72491455 440.01298706 -250.72491455 444.09298706 C-248.99179394 444.09445362 -247.25867332 444.09592018 -245.47303391 444.09743118 C-204.35989436 444.1331101 -163.246826 444.18931783 -122.13375078 444.27090801 C-117.07673665 444.28092583 -112.0197222 444.2907699 -106.96270752 444.30050659 C-105.45252561 444.30341865 -105.45252561 444.30341865 -103.91183499 444.30638954 C-87.59626104 444.33743596 -71.28070117 444.35439756 -54.96510324 444.36618128 C-38.23182004 444.37857917 -21.49861089 444.40604968 -4.76537442 444.44760013 C5.56530865 444.47277462 15.89586897 444.48610147 26.22658315 444.48441663 C33.30454667 444.48438695 40.38238487 444.49895816 47.46029958 444.52515134 C51.54786128 444.53984258 55.63516599 444.54796177 59.72274971 444.53878975 C63.46224516 444.53054047 67.20122287 444.54055272 70.94064125 444.56532368 C72.93988937 444.57375073 74.9391903 444.56242691 76.93842053 444.55048871 C78.12028904 444.5619363 79.30215754 444.57338389 80.51984024 444.58517838 C81.54204737 444.58669726 82.5642545 444.58821614 83.6174376 444.58978105 C87.01309347 445.23272343 88.20224966 446.36973076 90.27508545 449.09298706 C91.00334728 455.02311912 91.00334728 455.02311912 89.12415618 457.78378326 C86.46913717 459.66362535 84.48974843 459.47215287 81.2524538 459.47774792 C79.35201029 459.49193273 79.35201029 459.49193273 77.41317397 459.5064041 C75.99924908 459.5017739 74.58532507 459.49686738 73.17140198 459.49171448 C71.67562989 459.4971503 70.17986209 459.50390033 68.68410128 459.51185638 C64.5634599 459.52994938 60.4429981 459.52931639 56.3223263 459.52572691 C51.88263486 459.52510494 47.44300467 459.54170548 43.00334167 459.5562439 C35.30788029 459.57907289 27.61246431 459.5909224 19.91697121 459.59537315 C8.79051025 459.60182401 -2.3358685 459.62474259 -13.4622964 459.65171645 C-31.512959 459.69502793 -49.56361816 459.72496975 -67.61431885 459.74655151 C-85.15177102 459.76754815 -102.68919491 459.79481174 -120.22662354 459.83053589 C-121.30712776 459.83273471 -122.38763199 459.83493354 -123.50087877 459.837199 C-128.92130088 459.84826832 -134.34172272 459.85946119 -139.76214445 459.8707155 C-184.74970981 459.96396232 -229.73729059 460.03530969 -274.72491455 460.09298706 C-274.72491455 464.38298706 -274.72491455 468.67298706 -274.72491455 473.09298706 C-115.66491455 473.09298706 43.39508545 473.09298706 207.27508545 473.09298706 C207.27508545 468.80298706 207.27508545 464.51298706 207.27508545 460.09298706 C206.12916428 460.08712082 204.9832431 460.08125458 203.80259705 460.07521057 C193.01645826 460.0180593 182.23052257 459.94533769 171.44459057 459.85727215 C165.89908989 459.81249708 160.3536639 459.77325676 154.80804443 459.74655151 C149.45869588 459.72058968 144.10963364 459.68023801 138.76046181 459.6298008 C136.71711087 459.61308379 134.67371036 459.60159972 132.63030052 459.59537315 C129.77355123 459.58578453 126.91754248 459.55778852 124.06097412 459.52536011 C123.211492 459.5267952 122.36200989 459.52823029 121.48678589 459.52970886 C115.69576716 459.43640868 115.69576716 459.43640868 113.58893299 457.7165041 C111.77870282 455.4796087 111.41181435 453.96429403 111.27508545 451.09298706 C113.4691153 446.49597214 113.4691153 446.49597214 116.27508545 445.09298706 C118.39857445 444.97231021 120.52579433 444.91554331 122.65252686 444.88766479 C123.30630814 444.8777652 123.96008942 444.8678656 124.63368225 444.85766602 C126.79796712 444.82603995 128.96227395 444.80128934 131.12664795 444.77658081 C132.6259519 444.75601223 134.12525004 444.73501578 135.62454224 444.71360779 C139.57333676 444.65837718 143.52218371 444.6089723 147.47106934 444.5607605 C151.49953891 444.51055267 155.52793223 444.45486286 159.55633545 444.39962769 C167.46252101 444.29203403 175.3687703 444.19059177 183.27508545 444.09298706 C183.27508545 440.13298706 183.27508545 436.17298706 183.27508545 432.09298706 C40.05508545 432.09298706 -103.16491455 432.09298706 -250.72491455 432.09298706 Z "  transform="translate(289.72491455078125,16.907012939453125)"></path>
    <path d="M0 0 C7.2148668 5.26526125 12.92662677 11.96660169 16.1875 20.3125 C16.54328125 21.20195312 16.8990625 22.09140625 17.265625 23.0078125 C20.13643984 33.29895382 19.32932649 45.94391784 14.1875 55.3125 C7.77141639 66.14888085 -0.40548699 73.03452121 -12.53515625 76.65625 C-25.54057744 79.26043446 -37.32490267 77.17684775 -48.42578125 70.1015625 C-57.55591958 63.25769449 -63.76646486 53.36463999 -65.58984375 42.0703125 C-66.67761611 28.59720224 -63.48410698 16.70455974 -54.75390625 6.27734375 C-40.14654212 -8.50636683 -17.55775508 -10.84893989 0 0 Z M-46.1875 22.25 C-49.84773032 29.14812637 -50.74407034 35.74623038 -48.8125 43.3125 C-45.27841778 51.60353026 -40.0180151 56.76758151 -32 60.6875 C-22.72696062 62.50574301 -15.76659992 61.54318527 -7.8125 56.3125 C-2.4704147 51.89947301 1.71173401 45.77790363 2.4609375 38.74609375 C2.75538897 30.0597755 1.14840051 23.87614623 -4.609375 17.2421875 C-10.117852 11.97608349 -15.80384818 9.74199841 -23.3125 8.9375 C-33.47537024 10.02637895 -39.81743788 14.37123896 -46.1875 22.25 Z "  transform="translate(289.8125,148.6875)"></path>
    <path d="M0 0 C4.25653198 3.45124215 4.25653198 3.45124215 4.75 7.1875 C4.3125 10.875 4.3125 10.875 2.1875 13.8125 C-0.6875 15.875 -0.6875 15.875 -3.5 16.4375 C-7.05325673 15.81045469 -9.63163898 14.59906672 -12.7578125 12.84765625 C-17.96568201 10.222637 -23.70959424 10.00021185 -29.25390625 11.62890625 C-37.26448846 14.67316626 -41.5415376 18.04294817 -45.671875 25.55859375 C-48.72491911 32.52188283 -48.28812277 39.64163287 -45.7265625 46.66796875 C-42.68840612 53.12119565 -37.99713384 56.83702815 -31.6875 59.875 C-25.6155982 61.72135381 -19.12227073 61.88567067 -13.3125 59.1875 C-6.98420497 55.53313245 -4.94531825 50.53556384 -2.6875 43.875 C-3.64011719 43.93300781 -4.59273437 43.99101562 -5.57421875 44.05078125 C-17.10768736 44.46565422 -17.10768736 44.46565422 -20.125 41.8125 C-22.16381034 37.97953656 -21.83581346 36.00892844 -20.6875 31.875 C-18.6875 28.875 -18.6875 28.875 -15.6875 27.875 C-11.56721263 27.58968879 -7.44155799 27.5973738 -3.3125 27.5625 C-2.17554688 27.53349609 -1.03859375 27.50449219 0.1328125 27.47460938 C8.40314293 27.41151413 8.40314293 27.41151413 12.5390625 29.51953125 C15.36568504 33.27383388 15.41027484 36.36428279 15.11328125 40.953125 C12.93775313 55.08535565 8.54530251 64.04352557 -2.625 73.3125 C-12.73246579 78.4693703 -23.89136369 79.66784733 -34.9375 76.75 C-46.40053744 72.69095723 -54.83381901 65.63089084 -60.5625 54.875 C-65.92110431 43.18349969 -65.89963629 31.94858032 -61.6875 19.875 C-57.57710893 9.19940096 -49.83744642 1.94326915 -39.6875 -3.125 C-26.64765467 -7.93184494 -11.97046875 -7.76620655 0 0 Z "  transform="translate(199.6875,148.125)"></path>
    <path d="M0 0 C2.7034774 2.14767976 3.69211321 4.28978276 4.80932617 7.515625 C5.12943161 8.42666992 5.44953705 9.33771484 5.77934265 10.27636719 C6.11383926 11.25766602 6.44833588 12.23896484 6.79296875 13.25 C7.14386063 14.2596582 7.4947525 15.26931641 7.85627747 16.30957031 C8.59575121 18.44322851 9.3309743 20.57836394 10.06225586 22.71484375 C11.18428216 25.99060549 12.32050793 29.26117379 13.45898438 32.53125 C14.1753234 34.60387507 14.89084605 36.67678252 15.60546875 38.75 C15.94603806 39.73129883 16.28660736 40.71259766 16.63749695 41.72363281 C16.9481459 42.63467773 17.25879486 43.54572266 17.57885742 44.484375 C17.85404709 45.28584961 18.12923676 46.08732422 18.4127655 46.91308594 C19 49 19 49 19 52 C19.66 52 20.32 52 21 52 C21.26643311 50.71593262 21.53286621 49.43186523 21.80737305 48.10888672 C22.93438454 43.04940197 24.44438069 38.17244154 26.08203125 33.2578125 C26.5261158 31.92253006 26.5261158 31.92253006 26.97917175 30.56027222 C27.60256685 28.69550329 28.22876864 26.83167047 28.85766602 24.96875 C29.8151609 22.11707514 30.74826387 19.25808248 31.68164062 16.3984375 C32.29277688 14.58022634 32.90535665 12.76249959 33.51953125 10.9453125 C33.93075981 9.66565109 33.93075981 9.66565109 34.35029602 8.36013794 C35.64331856 4.61723685 36.40687524 2.48605113 39.5222168 -0.06689453 C42.78760773 -1.29660427 44.68450543 -1.00906357 48 0 C49.8125 1.125 49.8125 1.125 51 3 C52.13015612 8.23753155 51.849156 11.70124549 50.1574707 16.75805664 C49.94946335 17.39317673 49.74145599 18.02829681 49.52714539 18.68266296 C48.84129463 20.76367764 48.1341823 22.83672037 47.42578125 24.91015625 C46.93963696 26.36516301 46.4545619 27.82052741 45.97050476 29.27622986 C44.95493711 32.31963358 43.92926899 35.35937459 42.89575195 38.39672852 C41.57587368 42.27705473 40.27726972 46.16408498 38.98566914 50.05390263 C37.98632662 53.05808976 36.97786187 56.05915019 35.96645164 59.05929375 C35.48456419 60.49096037 35.00497618 61.92340321 34.52779579 63.35664558 C33.85724348 65.36467938 33.17501419 67.36836951 32.48950195 69.37133789 C32.10454056 70.5093837 31.71957916 71.6474295 31.32295227 72.81996155 C27.89887705 81.05056147 27.89887705 81.05056147 24 83 C16.93680942 83.69474006 16.93680942 83.69474006 13.65966797 81.2644043 C9.48482332 76.9184999 8.12849467 70.83602631 6.27734375 65.24609375 C5.84694114 63.98117908 5.41524108 62.71670522 4.98231506 61.45265198 C3.8480012 58.12926185 2.73146566 54.80016381 1.61859131 51.46954346 C0.49544045 48.11861044 -0.64463954 44.77345477 -1.78320312 41.42773438 C-3.83813113 35.38010426 -5.88964094 29.33140819 -7.89260864 23.2663269 C-8.63992907 21.06205394 -9.42510862 18.87030597 -10.24484253 16.69192505 C-10.62996002 15.64511566 -11.01507751 14.59830627 -11.41186523 13.51977539 C-11.76490219 12.59910782 -12.11793915 11.67844025 -12.48167419 10.72987366 C-13.14493242 7.23668243 -12.40071253 5.22772579 -11 2 C-7.65728553 -1.83793142 -4.69581617 -1.19529866 0 0 Z "  transform="translate(325,143)"></path>
    <path d="M0 0 C2.71434124 2.27654427 2.96118753 3.71020168 3.43164062 7.22290039 C2.8468839 12.33985248 0.733046 14.29898073 -2.84375 17.80859375 C-3.44626587 18.42017838 -4.04878174 19.031763 -4.66955566 19.66188049 C-5.94548744 20.94693518 -7.23036074 22.22316557 -8.5234375 23.4909668 C-10.49256594 25.43017889 -12.41845706 27.4060434 -14.34375 29.38867188 C-15.59133937 30.6352298 -16.84126676 31.87945305 -18.09375 33.12109375 C-18.66492554 33.71160019 -19.23610107 34.30210663 -19.82458496 34.9105072 C-22.88837333 37.85398441 -24.93833206 39.36482507 -29.27539062 39.46508789 C-33 39 -33 39 -35.5 37.4375 C-37.68071663 33.89383548 -37.75331723 32.10900306 -37 28 C-32.19598645 21.21223485 -25.60787304 15.42465512 -19.75 9.5625 C-18.8528125 8.65306641 -17.955625 7.74363281 -17.03125 6.80664062 C-16.17015625 5.94361328 -15.3090625 5.08058594 -14.421875 4.19140625 C-13.64424805 3.40967041 -12.86662109 2.62793457 -12.06542969 1.82250977 C-8.12910329 -1.65085626 -4.90071311 -1.13766554 0 0 Z "  transform="translate(273,51)"></path>
    <path d="M0 0 C4.24257888 0.8838706 5.42983435 2.10973184 8 5.625 C8.7236683 9.636689 8.65224745 13.5596831 8.5625 17.625 C8.57345703 18.70523437 8.58441406 19.78546875 8.59570312 20.8984375 C8.55268183 25.54473718 8.49603313 28.73170621 6.21484375 32.83984375 C3.88148422 34.7205233 2.9526256 35.2855364 0 35.1875 C-0.66 35.18878906 -1.32 35.19007813 -2 35.19140625 C-4.90365368 34.36908245 -6.09416365 32.93928205 -8 30.625 C-8.8205259 26.51861524 -8.60279893 22.36673603 -8.5625 18.1875 C-8.58634766 17.05505859 -8.61019531 15.92261719 -8.63476562 14.75585938 C-8.61840644 5.50201545 -8.61840644 5.50201545 -5.65234375 2.37890625 C-3 0.625 -3 0.625 0 0 Z "  transform="translate(391,376.375)"></path>
    <path d="M0 0 C2.65234375 1.78515625 2.65234375 1.78515625 5 5 C5.7236038 9.0117111 5.65224778 12.93466806 5.5625 17 C5.57345703 18.08023437 5.58441406 19.16046875 5.59570312 20.2734375 C5.55268183 24.91973718 5.49603313 28.10670621 3.21484375 32.21484375 C0.88148422 34.0955233 -0.0473744 34.6605364 -3 34.5625 C-3.66 34.56378906 -4.32 34.56507813 -5 34.56640625 C-7.91246945 33.7415858 -9.09492841 32.32917826 -11 30 C-11.824721 25.70616656 -11.6027339 21.36419485 -11.5625 17 C-11.58634766 15.81148438 -11.61019531 14.62296875 -11.63476562 13.3984375 C-11.63283203 12.25632812 -11.63089844 11.11421875 -11.62890625 9.9375 C-11.62963135 8.89464844 -11.63035645 7.85179687 -11.63110352 6.77734375 C-11 4 -11 4 -8.64819336 1.6640625 C-5.37062503 -0.39548445 -3.80310259 -0.71308174 0 0 Z "  transform="translate(394,274)"></path>
    <path d="M0 0 C0.66 -0.02191406 1.32 -0.04382813 2 -0.06640625 C5.39399123 1.0008449 6.26730095 2.45887422 8 5.5625 C8.56097358 9.40664133 8.51253752 13.18475454 8.4375 17.0625 C8.44458984 18.09503906 8.45167969 19.12757813 8.45898438 20.19140625 C8.37742491 29.91580431 8.37742491 29.91580431 5 33.5625 C3.1328125 34.4453125 3.1328125 34.4453125 1.125 34.6875 C0.46757812 34.79320312 -0.18984375 34.89890625 -0.8671875 35.0078125 C-4.65421995 34.21711342 -5.79915818 32.72974921 -8 29.5625 C-8.71924776 25.36282453 -8.65200483 21.25026973 -8.5625 17 C-8.57345703 15.86369141 -8.58441406 14.72738281 -8.59570312 13.55664062 C-8.52171538 5.19602582 -8.52171538 5.19602582 -6.08959961 2.24267578 C-3.8277569 0.4240052 -2.85871969 -0.00558344 0 0 Z "  transform="translate(391,325.4375)"></path>
    <path d="M0 0 C2.8010579 2.10515839 3.86983654 3.30153798 4.51757812 6.77734375 C4.52208984 7.82019531 4.52660156 8.86304688 4.53125 9.9375 C4.53640625 11.07960938 4.5415625 12.22171875 4.546875 13.3984375 C4.53140625 14.58695312 4.5159375 15.77546875 4.5 17 C4.51546875 18.18851562 4.5309375 19.37703125 4.546875 20.6015625 C4.54171875 21.74367188 4.5365625 22.88578125 4.53125 24.0625 C4.52673828 25.10535156 4.52222656 26.14820313 4.51757812 27.22265625 C3.87026164 30.69618094 2.78945463 31.88609694 0 34 C-3.75349462 34.46918683 -6.03848453 34.53136381 -9.375 32.6875 C-13.21021857 28.70477302 -12.22194805 22.85256446 -12.25 17.6875 C-12.270625 16.74970703 -12.29125 15.81191406 -12.3125 14.84570312 C-12.34271863 9.48567359 -12.09117796 5.59925265 -9 1 C-5.90826248 -0.54586876 -3.40570448 -0.29359521 0 0 Z "  transform="translate(126,274)"></path>
    <path d="M0 0 C1.68774414 1.18579102 1.68774414 1.18579102 3 3 C3.6495064 7.28203284 3.46312334 11.61181444 3.4375 15.9375 C3.4674707 17.72704102 3.4674707 17.72704102 3.49804688 19.55273438 C3.49740234 20.69935547 3.49675781 21.84597656 3.49609375 23.02734375 C3.49887329 24.60116821 3.49887329 24.60116821 3.50170898 26.20678711 C2.87951388 29.67079403 1.72504312 30.84497522 -1 33 C-3.90784881 33.70882303 -5.942539 33.33971789 -9 33 C-11.67431489 31.18836733 -11.95920359 30.12238923 -13 27 C-13.22923808 23.54563256 -13.18516136 20.08619183 -13.1875 16.625 C-13.19974609 15.67882812 -13.21199219 14.73265625 -13.22460938 13.7578125 C-13.24318287 4.94159276 -13.24318287 4.94159276 -11 1 C-7.5127355 -1.84147478 -4.16912951 -0.98543061 0 0 Z "  transform="translate(127,378)"></path>
    <path d="M0 0 C1.18722656 -0.05607422 1.18722656 -0.05607422 2.3984375 -0.11328125 C4.625 0.3125 4.625 0.3125 6.23486328 1.96801758 C8.96011064 6.56418027 8.1362933 12.10628757 8.125 17.3125 C8.15335938 18.50101562 8.18171875 19.68953125 8.2109375 20.9140625 C8.21480469 22.62722656 8.21480469 22.62722656 8.21875 24.375 C8.22583984 25.41785156 8.23292969 26.46070313 8.24023438 27.53515625 C7.625 30.3125 7.625 30.3125 5.31445312 32.6875 C2.625 34.3125 2.625 34.3125 -1 34.25 C-5.51785714 32.99503968 -5.51785714 32.99503968 -7.375 30.3125 C-8.84910198 25.89019405 -8.59995829 21.57021583 -8.625 16.9375 C-8.645625 15.99132812 -8.66625 15.04515625 -8.6875 14.0703125 C-8.71597746 9.0013239 -8.71958451 5.41721735 -5.375 1.3125 C-3.79602167 -0.26647833 -2.18137428 0.06706491 0 0 Z "  transform="translate(122.375,325.6875)"></path>
  </symbol>
</svg>