<svg width="0" height="0" class="hidden">
  <symbol version="1.1" xmlns="http://www.w3.org/2000/svg" viewBox="0 0 512 512" id="icon_delete">
    <path d="M0 0 C1.17033279 -0.00852997 2.34066559 -0.01705994 3.54646301 -0.02584839 C4.81671326 -0.02494202 6.0869635 -0.02403564 7.39570618 -0.02310181 C8.75804002 -0.02909167 10.12037049 -0.03589827 11.48269653 -0.04345703 C15.17306303 -0.0610817 18.8633367 -0.06581103 22.55374122 -0.0670886 C24.86382806 -0.06851323 27.17389153 -0.07278881 29.48397255 -0.07808304 C37.55612808 -0.09657451 45.62821767 -0.10475512 53.70039368 -0.10317993 C61.20305619 -0.10198008 68.70543031 -0.12305372 76.20801991 -0.15466726 C82.66602249 -0.18090111 89.12393133 -0.1915442 95.58198673 -0.19026911 C99.43158892 -0.18976139 103.28093491 -0.19533835 107.13048363 -0.21662521 C110.75612389 -0.23612702 114.38126678 -0.23605173 118.00692558 -0.22159195 C119.95497449 -0.21853581 121.90302409 -0.23509807 123.85099792 -0.25247192 C136.72088594 -0.16131836 146.37164754 3.77405702 156.03755188 12.26742554 C163.48556861 20.1852615 169.3472185 30.22976318 169.23286438 41.32211304 C169.22641907 42.43070679 169.21997375 43.53930054 169.21333313 44.68148804 C169.19657532 45.82359741 169.1798175 46.96570679 169.16255188 48.14242554 C169.15352844 49.30773804 169.144505 50.47305054 169.13520813 51.67367554 C169.1117262 54.53847131 169.07888329 57.40284088 169.03755188 60.26742554 C170.07801163 60.25854309 171.11847137 60.24966064 172.19046021 60.24050903 C182.0320726 60.15915582 191.87361609 60.09933235 201.71548939 60.06017685 C206.77440298 60.03936932 211.83304347 60.01117747 216.89179993 59.96566772 C221.78070418 59.92196504 226.66934699 59.89823712 231.55843163 59.88791656 C233.41661884 59.88056881 235.27479297 59.86622111 237.13286781 59.84450531 C252.67528468 59.670206 263.94648018 61.64307793 276.03755188 72.26742554 C286.36235241 83.24351218 289.66401382 94.75088722 289.34614563 109.49008179 C288.76589179 121.74282782 283.08667289 131.77327473 274.22505188 140.07992554 C269.96907739 143.5946442 263.75039152 148.26742554 258.03755188 148.26742554 C258.04840675 148.98517001 258.05926162 149.70291449 258.07044542 150.4424088 C258.13466413 158.03550681 257.74429915 165.50471832 257.10191345 173.06790161 C257.00123577 174.30009847 256.9005581 175.53229533 256.79682958 176.80183148 C256.51920809 180.18741933 256.23722214 183.57258987 255.95329523 186.95765114 C255.64702601 190.62210791 255.3464861 194.28703536 255.04519653 197.9519043 C254.45508718 205.11886647 253.85971574 212.28538206 253.26248647 219.45175406 C252.56591584 227.81226273 251.87438844 236.1731863 251.18299334 244.53412428 C249.94821253 259.46379794 248.70854805 274.39306212 247.46626282 289.32211304 C246.26333895 303.77816125 245.06436162 318.23452994 243.86958313 332.69125366 C242.56622134 348.46175639 241.26074416 364.23208124 239.95155275 380.00210118 C239.81165347 381.68729603 239.67175473 383.37249092 239.53185654 385.05768585 C239.4630352 385.88665591 239.39421387 386.71562596 239.32330704 387.56971632 C238.84071577 393.38417106 238.35955265 399.19874296 237.87891006 405.01335907 C237.29205793 412.11207661 236.702711 419.21058212 236.11030985 426.30883881 C235.80866444 429.92384526 235.50803296 433.53892761 235.21034813 437.15426254 C230.89860339 489.47986468 230.89860339 489.47986468 213.33442688 504.50961304 C204.72102285 511.10150388 195.83629416 512.56766967 185.24732971 512.53485107 C184.17105214 512.53938219 183.09477457 512.5439133 181.98588252 512.54858172 C178.38489774 512.56122661 174.78406419 512.55960526 171.18305969 512.55795288 C168.59892075 512.56393808 166.0147836 512.5707436 163.4306488 512.57830811 C157.14266705 512.5948938 150.8547228 512.60041656 144.56672099 512.60153286 C139.45303696 512.60248454 134.33936525 512.60660082 129.22568512 512.61293411 C114.71365069 512.6305403 100.2016458 512.63977402 85.68960062 512.63827316 C84.51702204 512.6381533 84.51702204 512.6381533 83.320755 512.63803101 C82.14673744 512.63790836 82.14673744 512.63790836 80.94900236 512.63778324 C68.26950261 512.63697064 55.59012174 512.65610349 42.91065636 512.68430774 C29.87794016 512.71306798 16.84528187 512.72684629 3.81253314 512.72512019 C-3.49891256 512.72445734 -10.81023366 512.7299031 -18.1216507 512.75147629 C-24.99996377 512.77164214 -31.87801004 512.77098232 -38.75633621 512.75644302 C-41.27699035 512.75435391 -43.79766094 512.75906183 -46.3182869 512.77116394 C-49.7672623 512.7866472 -53.2153348 512.77728676 -56.66429138 512.76190186 C-57.65468564 512.77218898 -58.64507989 512.78247611 -59.6654861 512.79307497 C-70.47260597 512.68701504 -79.49996295 508.8797476 -87.96244812 502.26742554 C-88.57862 501.78918335 -89.19479187 501.31094116 -89.82963562 500.81820679 C-101.33169093 490.67083799 -103.91240648 475.27741249 -105.06889343 460.80062866 C-105.16402348 459.67255893 -105.25915352 458.54448919 -105.35716629 457.38223553 C-105.6741928 453.60484829 -105.98234978 449.8267905 -106.29057312 446.04867554 C-106.51740854 443.31609448 -106.74613617 440.58367256 -106.97477722 437.85124207 C-107.53312698 431.16491361 -108.0848867 424.47805691 -108.63443947 417.79100031 C-109.27981832 409.94078951 -109.9314599 402.09110248 -110.58350229 394.2414428 C-111.4855005 383.38157909 -112.38586636 372.52158183 -113.28245544 361.66127014 C-115.21550221 338.24901441 -117.16681593 314.83834013 -119.12904191 291.42851245 C-120.18481366 278.83097089 -121.2366415 266.23309977 -122.28797531 253.63518715 C-123.0776368 244.17388118 -123.86872371 234.71269901 -124.66325378 225.25180054 C-125.34350518 217.1510153 -126.02018286 209.04994065 -126.6924572 200.94848937 C-127.03745418 196.79222763 -127.38406072 192.63611688 -127.73504639 188.48035622 C-128.058336 184.65207917 -128.37695568 180.82344183 -128.69201803 176.99447918 C-128.86049104 174.96137184 -129.03382216 172.92866884 -129.20737076 170.89598846 C-129.82413796 163.33288057 -130.10075233 155.85520836 -129.96244812 148.26742554 C-130.55058289 148.11966675 -131.13871765 147.97190796 -131.74467468 147.81967163 C-142.20104712 145.0604189 -150.3534606 137.32236017 -155.96244812 128.26742554 C-161.64807446 116.49748564 -163.62729701 101.90875101 -159.46244812 89.26742554 C-153.36699473 75.49383963 -143.10635005 66.72040115 -129.36647034 61.23010254 C-125.34830061 60.0937411 -121.61456733 60.00191306 -117.4785614 60.04037476 C-116.64863174 60.0400827 -115.81870209 60.03979065 -114.96362305 60.03948975 C-112.23656036 60.04087651 -109.50977523 60.05640683 -106.78276062 60.07211304 C-104.88561655 60.07584549 -102.98847054 60.07869137 -101.09132385 60.08068848 C-96.1100579 60.08830663 -91.12890949 60.10793949 -86.14768982 60.13009644 C-81.05991709 60.15059405 -75.97212528 60.15969856 -70.88432312 60.16976929 C-60.91031328 60.19118711 -50.9363905 60.22530109 -40.96244812 60.26742554 C-40.99386902 59.21784668 -40.99386902 59.21784668 -41.02592468 58.14706421 C-41.11007746 54.9165029 -41.16141883 51.68617328 -41.21244812 48.45492554 C-41.24596375 47.35471069 -41.27947937 46.25449585 -41.31401062 45.12094116 C-41.46429668 32.38419757 -37.34055179 22.80215237 -28.96244812 13.26742554 C-21.05913175 5.83306686 -11.0577088 0.03660117 0 0 Z M-5.77494812 34.70492554 C-12.69179034 42.80751214 -10.96244812 48.99629855 -10.96244812 60.26742554 C38.53755188 60.26742554 88.03755188 60.26742554 139.03755188 60.26742554 C139.95279435 46.84411302 139.95279435 46.84411302 134.60005188 35.45492554 C129.45424849 31.06216654 125.55570906 30.1464621 118.92771912 30.13371277 C117.92126343 30.12944778 116.91480774 30.1251828 115.87785339 30.12078857 C114.78473846 30.12124176 113.69162354 30.12169495 112.56538391 30.12216187 C111.40546936 30.11880325 110.24555481 30.11544464 109.05049133 30.11198425 C105.21543813 30.10248394 101.38042862 30.10053163 97.54536438 30.09945679 C95.55285853 30.09705586 93.56035266 30.09465319 91.56784713 30.09199637 C85.30367647 30.08386221 79.03952018 30.08141119 72.77534485 30.0821228 C66.32414602 30.08272339 59.87303085 30.07217295 53.42185318 30.05637914 C47.87348957 30.04328212 42.32515323 30.03793981 36.77677429 30.03857821 C33.46726415 30.03883256 30.15784497 30.03509017 26.84834671 30.02540016 C23.15499688 30.01559842 19.46186224 30.01847919 15.76850891 30.02450562 C14.67944244 30.01888611 13.59037598 30.0132666 12.4683075 30.00747681 C2.6087098 30.011368 2.6087098 30.011368 -5.77494812 34.70492554 Z M-125.77494812 94.70492554 C-129.71323675 99.31834936 -130.40790692 101.85760966 -130.27885437 107.75961304 C-129.81202795 111.45964467 -128.43681232 113.52556251 -125.96244812 116.26742554 C-120.86609266 120.05702319 -115.94975186 120.39204204 -109.74450874 120.39605999 C-107.85501761 120.40089666 -107.85501761 120.40089666 -105.92735493 120.40583104 C-104.53199893 120.40435995 -103.13664303 120.40279223 -101.74128723 120.40113831 C-100.25703208 120.40300658 -98.77277743 120.40530735 -97.28852355 120.40800363 C-93.20876241 120.41412591 -89.12902174 120.41398753 -85.04925704 120.41280925 C-80.64971204 120.41260536 -76.25017364 120.41812293 -71.85063171 120.42286682 C-63.23090333 120.43117615 -54.61118178 120.43392178 -45.99144973 120.4344792 C-38.98600186 120.4349542 -31.98055625 120.43700815 -24.9751091 120.44017982 C-5.11859811 120.44898696 14.73790746 120.45359908 34.59442042 120.45284935 C35.66507275 120.45280939 36.73572507 120.45276944 37.83882141 120.45272827 C39.44675787 120.45266695 39.44675787 120.45266695 41.08717789 120.45260439 C58.46416348 120.45219784 75.84112741 120.46176945 93.21810673 120.47586664 C111.05554611 120.49022335 128.89297492 120.49713722 146.73042023 120.49627286 C156.74686798 120.49594066 166.76329302 120.49869786 176.77973557 120.50945091 C185.30707815 120.51854661 193.83438773 120.5207388 202.36173306 120.51394149 C206.71293066 120.51067166 211.06406489 120.5106363 215.4152565 120.51929474 C219.39880589 120.52714014 223.38224146 120.52574842 227.365788 120.51701061 C228.80653468 120.5154713 230.24728977 120.51730797 231.68802653 120.52287068 C243.6034487 120.95860711 243.6034487 120.95860711 253.85005188 115.82992554 C257.78834051 111.21650171 258.48301068 108.67724141 258.35395813 102.77523804 C257.88713171 99.07520641 256.51191608 97.00928857 254.03755188 94.26742554 C248.94119642 90.47782789 244.02485562 90.14280903 237.8196125 90.13879108 C236.55995175 90.13556664 235.30029099 90.13234219 234.00245869 90.12902004 C232.60710269 90.13049113 231.21174679 90.13205884 229.81639099 90.13371277 C228.33213584 90.13184449 226.84788119 90.12954372 225.36362731 90.12684745 C221.28386617 90.12072516 217.2041255 90.12086354 213.1243608 90.12204182 C208.7248158 90.12224572 204.3252774 90.11672814 199.92573547 90.11198425 C191.30600709 90.10367493 182.68628554 90.10092929 174.06655349 90.10037187 C167.06110562 90.09989687 160.05566001 90.09784293 153.05021286 90.09467125 C133.19370187 90.08586412 113.33719629 90.081252 93.48068334 90.08200172 C92.41003101 90.08204168 91.33937869 90.08208164 90.23628235 90.0821228 C88.62834589 90.08218412 88.62834589 90.08218412 86.98792587 90.08224668 C69.61094028 90.08265323 52.23397635 90.07308163 34.85699703 90.05898444 C17.01955765 90.04462772 -0.81787116 90.03771385 -18.65531647 90.03857821 C-28.67176422 90.03891041 -38.68818926 90.03615321 -48.70463181 90.02540016 C-57.23197439 90.01630446 -65.75928397 90.01411227 -74.2866293 90.02090959 C-78.6378269 90.02417942 -82.98896113 90.02421477 -87.34015274 90.01555634 C-91.32370213 90.00771094 -95.3071377 90.00910265 -99.29068424 90.01784047 C-100.73143092 90.01937978 -102.17218601 90.0175431 -103.61292277 90.01198039 C-115.52834494 89.57624397 -115.52834494 89.57624397 -125.77494812 94.70492554 Z M-98.96244812 150.26742554 C-98.16391518 167.49421445 -98.16391518 167.49421445 -96.94451904 184.67684937 C-96.84707049 185.86576656 -96.74962194 187.05468376 -96.64922041 188.27962875 C-96.38433497 191.50236483 -96.11626129 194.72481495 -95.84666884 197.94716001 C-95.55427085 201.45196458 -95.26617814 204.95712374 -94.97747803 208.4622345 C-94.4139213 215.29600025 -93.84642442 222.12943302 -93.27739603 228.96274513 C-92.81470461 234.51980889 -92.35341175 240.07698713 -91.89307976 245.63424683 C-91.82718402 246.42972754 -91.76128829 247.22520825 -91.69339572 248.04479444 C-91.5594786 249.66146054 -91.42556361 251.27812682 -91.29165071 252.89479327 C-90.04095591 267.99162802 -88.78563128 283.08807504 -87.52876984 298.18439746 C-86.38114515 311.97024626 -85.23892078 325.75653617 -84.09928841 339.54304779 C-82.92527927 353.74493311 -81.74788499 367.94653393 -80.5667457 382.1478281 C-80.43303616 383.7555951 -80.29933166 385.36336253 -80.16563225 386.97113037 C-80.09987001 387.76193424 -80.03410778 388.55273811 -79.96635275 389.36750573 C-79.50517136 394.91592137 -79.04616511 400.46451443 -78.58804512 406.01318359 C-78.02952414 412.77733776 -77.46774631 419.54121209 -76.90186269 426.30475444 C-76.61375517 429.74927968 -76.32706882 433.19390651 -76.04441071 436.63888359 C-75.73630453 440.38424731 -75.42251984 444.12909493 -75.10736084 447.87387085 C-74.97704841 449.48230976 -74.97704841 449.48230976 -74.8441034 451.12324238 C-74.44501308 464.65063451 -74.44501308 464.65063451 -69.89994812 476.89242554 C-63.33306978 482.20181653 -55.85560819 482.70805675 -47.67753601 482.64837646 C-46.18094625 482.65539642 -46.18094625 482.65539642 -44.65412235 482.6625582 C-41.33097872 482.67446671 -38.00825063 482.66506702 -34.68510437 482.65560913 C-32.29446676 482.65967666 -29.90383103 482.66501956 -27.51319885 482.67153931 C-21.70605845 482.68378025 -15.89904874 482.6820142 -10.0919044 482.67330138 C-5.37012323 482.66651176 -0.64837463 482.66561363 4.07341003 482.66887283 C4.74678026 482.66933253 5.42015049 482.66979223 6.11392587 482.67026586 C7.4820885 482.67122509 8.85025111 482.67219773 10.21841371 482.67318363 C23.03191244 482.68172754 35.84534667 482.67191912 48.65883482 482.65578254 C59.6409004 482.64238025 70.62287083 482.64470862 81.60493469 482.65853882 C94.37422151 482.67461233 107.14345186 482.68090366 119.91274738 482.67170203 C121.27572949 482.67074643 122.6387116 482.66980332 124.00169373 482.66887283 C124.67221533 482.66841001 125.34273694 482.66794718 126.03357738 482.66747033 C130.74681995 482.66488575 135.46002655 482.66923993 140.17326355 482.67631149 C146.52299893 482.68498841 152.87255493 482.67894571 159.22227097 482.66162872 C161.55025307 482.6576678 163.87825031 482.65879115 166.20622635 482.66541672 C169.38856679 482.67363763 172.57033556 482.6633035 175.75263977 482.64837646 C176.6696765 482.65506863 177.58671324 482.6617608 178.53153896 482.66865575 C185.77688324 482.6029235 192.23597407 481.532531 197.97505188 476.89242554 C203.38088187 469.40565384 202.50624878 456.21468548 203.22715759 447.29286194 C203.38285408 445.43481822 203.38285408 445.43481822 203.54169595 443.53923827 C203.82552393 440.14103589 204.10529457 436.74254593 204.38325787 433.34386194 C204.6852899 429.66332706 204.99265418 425.98323678 205.29931641 422.30308533 C205.89778672 415.11086264 206.49136521 407.9182444 207.08320118 400.72547307 C207.77319517 392.34168779 208.4678482 383.95829045 209.16261582 375.57489965 C210.40212505 360.61619868 211.63707023 345.65712436 212.86958313 330.69784546 C214.06463153 316.19329383 215.26346657 301.68906135 216.46626282 287.18515015 C217.77778527 271.37010391 219.08723653 255.55488879 220.39306867 239.7393716 C220.53233779 238.05265058 220.67160782 236.36592963 220.81087875 234.67920876 C220.87939153 233.84940799 220.94790432 233.01960723 221.01849324 232.16466099 C221.50079938 226.32470934 221.98453286 220.48487692 222.46878433 214.64508629 C223.05874669 207.52976794 223.64630159 200.4142555 224.23082305 193.29848804 C224.52893619 189.67001598 224.82808241 186.04163723 225.13008308 182.41348648 C225.45760127 178.4783055 225.78000845 174.54271526 226.10191345 170.60707092 C226.19782292 169.46417483 226.29373239 168.32127873 226.3925482 167.14374942 C226.4783997 166.08385265 226.56425119 165.02395588 226.65270424 163.93194103 C226.72756416 163.02462142 226.80242408 162.11730181 226.87955248 161.18248767 C227.07648665 157.54908556 227.03755188 153.90616074 227.03755188 150.26742554 C119.45755188 150.26742554 11.87755188 150.26742554 -98.96244812 150.26742554 Z "  transform="translate(191.9624481201172,-0.267425537109375)"></path>
    <path d="M0 0 C4.57848169 2.16875448 6.91859935 4.41855628 9 9 C9.40874074 12.45887383 9.33942563 15.88147989 9.26583862 19.35961914 C9.25427416 20.37788568 9.24270969 21.39615221 9.23079479 22.44527531 C9.06222372 33.39699182 8.43875078 44.31724186 7.74658203 55.24609375 C7.61131817 57.46466607 7.47665236 59.68327492 7.3425293 61.9019165 C6.98122972 67.84753531 6.61113501 73.79257427 6.23885584 79.7375145 C5.9278262 84.71842053 5.62135362 89.69960282 5.3148793 94.6807909 C4.55127513 107.09141352 3.77929691 119.50150063 3.00313316 131.91134322 C2.37238278 141.99970681 1.7495605 152.08853527 1.13232422 162.17773438 C0.41248752 173.94398477 -0.31263372 185.70989478 -1.04536164 197.47535038 C-1.43214046 203.68624051 -1.8167689 209.89724368 -2.19579697 216.10861206 C-2.55156278 221.93361787 -2.91492735 227.75810084 -3.28416443 233.58226776 C-3.41827495 235.7174288 -3.54973223 237.85275841 -3.67833328 239.98825836 C-3.85433632 242.90373037 -4.03995425 245.81843761 -4.22799683 248.7331543 C-4.30096822 249.9980678 -4.30096822 249.9980678 -4.37541378 251.28853512 C-4.78987198 257.4720639 -5.24536458 262.97542067 -9.4375 267.8125 C-14.509547 272.14229622 -17.54298274 272.43423039 -24.046875 272.31640625 C-28.97090343 271.78883177 -31.57378104 269.74126524 -34.63572884 266.00294495 C-36.65374875 261.56101077 -36.36782162 257.46067586 -36.26583862 252.64038086 C-36.25427416 251.62211432 -36.24270969 250.60384779 -36.23079479 249.55472469 C-36.06222372 238.60300818 -35.43875078 227.68275814 -34.74658203 216.75390625 C-34.61131817 214.53533393 -34.47665236 212.31672508 -34.3425293 210.0980835 C-33.98122972 204.15246469 -33.61113501 198.20742573 -33.23885584 192.2624855 C-32.9278262 187.28157947 -32.62135362 182.30039718 -32.3148793 177.3192091 C-31.55127513 164.90858648 -30.77929691 152.49849937 -30.00313316 140.08865678 C-29.37238278 130.00029319 -28.7495605 119.91146473 -28.13232422 109.82226562 C-27.41248752 98.05601523 -26.68736628 86.29010522 -25.95463836 74.52464962 C-25.56785954 68.31375949 -25.1832311 62.10275632 -24.80420303 55.89138794 C-24.44843722 50.06638213 -24.08507265 44.24189916 -23.71583557 38.41773224 C-23.58172505 36.2825712 -23.45026777 34.14724159 -23.32166672 32.01174164 C-23.14566368 29.09626963 -22.96004575 26.18156239 -22.77200317 23.2668457 C-22.72335558 22.42357003 -22.67470799 21.58029436 -22.62458622 20.71146488 C-22.21012802 14.5279361 -21.75463542 9.02457933 -17.5625 4.1875 C-11.82360961 -0.71155278 -7.34932676 -0.78742787 0 0 Z "  transform="translate(352,180)"></path>
    <path d="M0 0 C1.010625 -0.00773438 2.02125 -0.01546875 3.0625 -0.0234375 C7.847388 0.62557656 10.3112343 2.49491049 13.25 6.25 C16.28563463 11.67077613 16.28234028 17.31789 16.65174866 23.40133667 C16.70977282 24.31226361 16.76779697 25.22319056 16.82757944 26.16172135 C17.02122756 29.21552716 17.20995599 32.26961678 17.39868164 35.32373047 C17.53648388 37.51374003 17.67456764 39.70373189 17.81291199 41.89370728 C18.18812479 47.84910271 18.55885285 53.80476923 18.92840123 59.76051855 C19.15998136 63.48937149 19.39252981 67.21816274 19.62542534 70.94693375 C20.397405 83.30696891 21.16648994 95.66718009 21.93187708 108.02762507 C21.97312962 108.69381641 22.01438215 109.36000776 22.05688477 110.04638672 C22.09818787 110.71340501 22.13949098 111.3804233 22.18204569 112.06765427 C22.84876745 122.83186077 23.52247281 133.59561706 24.19941122 144.35918544 C24.89643218 155.44341194 25.58790881 166.52797292 26.27420896 177.61286843 C26.65877186 183.82271089 27.04548306 190.03240002 27.43782234 196.24175644 C27.80779657 202.10021082 28.17075198 207.9590613 28.52867317 213.81826401 C28.66004125 215.95023736 28.793756 218.08206787 28.93020248 220.21372223 C29.62839543 231.14441587 30.14271222 242.06366289 30.26683044 253.0173645 C30.28720023 253.98286378 30.30757002 254.94836305 30.32855707 255.94311988 C30.34500431 260.9140536 30.28410302 264.36505036 27 268.375 C23.19231086 271.98742303 20.09638332 272.69185859 15 272.875 C9.90361668 272.69185859 6.80768914 271.98742303 3 268.375 C-1.27294061 262.62863159 -1.23312779 256.24254521 -1.65174866 249.34866333 C-1.70977282 248.43773639 -1.76779697 247.52680944 -1.82757944 246.58827865 C-2.02122756 243.53447284 -2.20995599 240.48038322 -2.39868164 237.42626953 C-2.53648388 235.23625997 -2.67456764 233.04626811 -2.81291199 230.85629272 C-3.18812479 224.90089729 -3.55885285 218.94523077 -3.92840123 212.98948145 C-4.15998136 209.26062851 -4.39252981 205.53183726 -4.62542534 201.80306625 C-5.397405 189.44303109 -6.16648994 177.08281991 -6.93187708 164.72237493 C-6.97312962 164.05618359 -7.01438215 163.38999224 -7.05688477 162.70361328 C-7.09818787 162.03659499 -7.13949098 161.3695767 -7.18204569 160.68234573 C-7.84876745 149.91813923 -8.52247281 139.15438294 -9.19941122 128.39081456 C-9.89643218 117.30658806 -10.58790881 106.22202708 -11.27420896 95.13713157 C-11.65877186 88.92728911 -12.04548306 82.71759998 -12.43782234 76.50824356 C-12.80779657 70.64978918 -13.17075198 64.7909387 -13.52867317 58.93173599 C-13.66004125 56.79976264 -13.793756 54.66793213 -13.93020248 52.53627777 C-14.6268728 41.629422 -15.15630183 30.72394486 -15.32933044 19.7951355 C-15.35807914 18.83801513 -15.38682783 17.88089476 -15.4164477 16.89477074 C-15.45688211 11.0428651 -14.8609227 7.84669033 -11 3.375 C-7.33713369 0.51941014 -4.60236472 -0.03522218 0 0 Z "  transform="translate(166,179.625)"></path>
    <path d="M0 0 C4.58282699 2.17081278 6.9024962 4.42363589 9 9 C9.44242745 12.40094562 9.40891275 15.77809549 9.38768005 19.20372009 C9.39306559 20.24098112 9.39845113 21.27824215 9.40399987 22.34693533 C9.41832398 25.82768318 9.41116457 29.30805312 9.40405273 32.78881836 C9.40975395 35.28225511 9.41671724 37.77568926 9.42485046 40.26911926 C9.4409568 46.34184135 9.44287696 52.41441458 9.43763756 58.48714345 C9.43359602 63.42310125 9.43503922 68.35902848 9.44038582 73.29498482 C9.44113424 73.99751679 9.44188266 74.70004875 9.44265376 75.42386957 C9.44418524 76.85106552 9.44572359 78.27826146 9.44726873 79.7054574 C9.46099646 93.08920649 9.45555417 106.47289712 9.44408352 119.85664488 C9.43415074 132.09993286 9.44709203 144.34306973 9.47101771 156.5863344 C9.49540203 169.15905537 9.50501824 181.73170595 9.49836498 194.30445009 C9.49487128 201.36257195 9.49711474 208.42057758 9.51461601 215.47868156 C9.53086691 222.11481692 9.52616675 228.75071029 9.50731087 235.38685417 C9.50361571 237.8241368 9.50676027 240.26144068 9.51719666 242.69870377 C9.53034419 246.0225706 9.51891337 249.34547142 9.50120544 252.66929626 C9.51081045 253.63670948 9.52041546 254.6041227 9.53031152 255.60085148 C9.46683041 261.3811572 8.79736705 264.57052663 5 269 C-0.22259857 273.05630398 -5.65340142 272.77397544 -12 272 C-16.58282699 269.82918722 -18.9024962 267.57636411 -21 263 C-21.44242745 259.59905438 -21.40891275 256.22190451 -21.38768005 252.79627991 C-21.39306559 251.75901888 -21.39845113 250.72175785 -21.40399987 249.65306467 C-21.41832398 246.17231682 -21.41116457 242.69194688 -21.40405273 239.21118164 C-21.40975395 236.71774489 -21.41671724 234.22431074 -21.42485046 231.73088074 C-21.4409568 225.65815865 -21.44287696 219.58558542 -21.43763756 213.51285655 C-21.43359602 208.57689875 -21.43503922 203.64097152 -21.44038582 198.70501518 C-21.44113424 198.00248321 -21.44188266 197.29995125 -21.44265376 196.57613043 C-21.44418524 195.14893448 -21.44572359 193.72173854 -21.44726873 192.2945426 C-21.46099646 178.91079351 -21.45555417 165.52710288 -21.44408352 152.14335512 C-21.43415074 139.90006714 -21.44709203 127.65693027 -21.47101771 115.4136656 C-21.49540203 102.84094463 -21.50501824 90.26829405 -21.49836498 77.69554991 C-21.49487128 70.63742805 -21.49711474 63.57942242 -21.51461601 56.52131844 C-21.53086691 49.88518308 -21.52616675 43.24928971 -21.50731087 36.61314583 C-21.50361571 34.1758632 -21.50676027 31.73855932 -21.51719666 29.30129623 C-21.53034419 25.9774294 -21.51891337 22.65452858 -21.50120544 19.33070374 C-21.51081045 18.36329052 -21.52041546 17.3958773 -21.53031152 16.39914852 C-21.46683041 10.6188428 -20.79736705 7.42947337 -17 3 C-11.77740143 -1.05630398 -6.34659858 -0.77397544 0 0 Z "  transform="translate(262,180)"></path>
  </symbol>
</svg>