<svg width="0" height="0" class="hidden">
  <symbol xmlns="http://www.w3.org/2000/svg" viewBox="0 0 16.77 16.77" id="icon_calendar">
    <defs></defs>
    <g id="Layer_2">
      <g id="Layer_1-2">
        <g id="ieEjpT">
          <path d="M0,2.68a1.44,1.44,0,0,1,1.6-1c.38,0,.77,0,1.15,0s.47.12.48.41-.2.45-.48.46q-.7,0-1.41,0c-.29,0-.46.12-.46.42,0,1,0,2,0,3h15V3c0-.34-.15-.51-.5-.5s-.81,0-1.22,0-.53-.1-.53-.43.23-.44.52-.44.87,0,1.3,0a1.36,1.36,0,0,1,1.31,1v13a1.52,1.52,0,0,1-1,1H1a1.49,1.49,0,0,1-1-1ZM.89,6.81c0,.14,0,.26,0,.38v8.05c0,.59.07.65.68.65H15.22c.6,0,.67-.07.67-.66v-8c0-.13,0-.26,0-.41Z"></path>
          <path d="M5.07,0a.86.86,0,0,1,.54.94c0,.8,0,1.61,0,2.42a.7.7,0,0,1-.77.75A.71.71,0,0,1,4,3.37c0-.87,0-1.74,0-2.61,0-.42.25-.61.58-.76Z"></path>
          <path d="M12.15,0a.89.89,0,0,1,.56,1c0,.8,0,1.59,0,2.38a.72.72,0,0,1-.8.77.69.69,0,0,1-.75-.77c0-.79,0-1.59,0-2.38a.86.86,0,0,1,.56-1Z"></path>
          <path d="M0,15.72a1.49,1.49,0,0,0,1,1H0Z"></path>
          <path d="M15.72,16.77a1.52,1.52,0,0,0,1-1v1Z"></path>
          <path d="M8.36,1.66H9.7c.29,0,.53.1.52.44s-.23.43-.53.43c-.89,0-1.78,0-2.68,0-.29,0-.52-.08-.54-.42s.17-.45.55-.45S7.91,1.66,8.36,1.66Z"></path>
          <path d="M4.38,11.91c-.74,0-1.37,0-2,0-.1,0-.2-.15-.29-.23a.19.19,0,0,1,0-.08c-.1-1.06-.1-1.06,1-1.06h1c.22,0,.32.07.32.29Z"></path>
          <path d="M5.54,11.89c0-.39,0-.77,0-1.15a.39.39,0,0,1,.27-.2c.57,0,1.13,0,1.7,0,.1,0,.27.13.27.2,0,.38,0,.76,0,1.15Z"></path>
          <path d="M9,11.91c0-.41,0-.8,0-1.19,0-.07.14-.18.22-.18.59,0,1.18,0,1.78,0,.08,0,.18.14.25.23s0,.1,0,.15c.06,1,.06,1-.92,1Z"></path>
          <path d="M14.65,11.9H12.4c0-.4,0-.78,0-1.15,0-.08.17-.2.26-.21.57,0,1.14,0,1.71,0,.09,0,.25.11.26.18C14.66,11.11,14.65,11.5,14.65,11.9Z"></path>
          <path d="M2.1,8.06H4.38c0,.38,0,.75,0,1.11a.35.35,0,0,1-.26.21c-.58,0-1.16,0-1.75,0-.08,0-.24-.12-.24-.18C2.09,8.83,2.1,8.45,2.1,8.06Z"></path>
          <path d="M11.2,8V9.39c-.7,0-1.35,0-2,0-.09,0-.17-.12-.24-.2s0-.1,0-.15c-.06-1-.06-1,.92-1Z"></path>
          <path d="M9,13.06h2.28c0,.38,0,.75,0,1.11,0,.08-.16.22-.25.22-.58,0-1.17,0-1.75,0A.32.32,0,0,1,9,14.21C9,13.83,9,13.45,9,13.06Z"></path>
          <path d="M7.78,9.39c-.7,0-1.36,0-2,0-.08,0-.17-.12-.24-.2s0-.1,0-.15c0-1,0-1,.93-1H7.78Z"></path>
          <path d="M14.66,9.38H12.39c0-.39,0-.77,0-1.15a.32.32,0,0,1,.25-.18q.87,0,1.74,0a.35.35,0,0,1,.26.21C14.67,8.63,14.66,9,14.66,9.38Z"></path>
          <path d="M2.11,13.05H4.34V14.4h-2c-.07,0-.19-.1-.19-.16C2.1,13.84,2.11,13.45,2.11,13.05Z"></path>
          <path d="M5.53,13.06H7.79c0,.39,0,.79,0,1.19,0,.05-.16.14-.24.14-.58,0-1.17,0-1.75,0a.35.35,0,0,1-.25-.22C5.51,13.8,5.53,13.44,5.53,13.06Z"></path>
        </g>
      </g>
    </g>
  </symbol>
</svg>