<svg width="0" height="0" class="hidden">
  <symbol xmlns="http://www.w3.org/2000/svg" viewBox="0 0 14.29 12.74" id="icon_briefcase">
    <defs></defs>
    <g id="Layer_2">
      <g id="Layer_1-2">
        <g id="ZmJhrd.tif">
          <path d="M13,12.74H1.3a1,1,0,0,1-.62-1.06c0-1.44,0-2.89,0-4.33,0-.25,0-.41-.31-.48S0,6.56,0,6.25C0,5.19,0,4.13,0,3.07c0-.71.27-1,1-1H4.77c0-.34,0-.64,0-.93A1.07,1.07,0,0,1,5.92,0H8.37A1.07,1.07,0,0,1,9.52,1.17v.92c1.27,0,2.49,0,3.7,0a1,1,0,0,1,1.07.66V6.52a1.06,1.06,0,0,1-.31.21c-.36.1-.39.35-.39.67,0,1.41,0,2.83,0,4.25A1,1,0,0,1,13,12.74ZM8.56,7.49a13.6,13.6,0,0,0,4.81-1.13.43.43,0,0,0,.3-.46c0-.92,0-1.85,0-2.77,0-.35-.12-.43-.44-.43-1.67,0-3.33,0-5,0H1c-.31,0-.42.1-.42.42,0,1,0,2,0,2.92a.48.48,0,0,0,.24.36A12.93,12.93,0,0,0,2.38,7a14,14,0,0,0,3.35.54c.13-.52.27-.63.77-.64H7.77C8.28,6.86,8.41,7,8.56,7.49ZM1.3,7.37v4.5c0,.25.18.23.35.23h11c.26,0,.35-.09.35-.36,0-.95,0-1.89,0-2.84V7.32l-4.46.91v.09c0,.63-.18.79-.81.79h-1c-.83,0-.93-.08-1-.9,0,0,0,0,0,0ZM8.9,2.08A5.4,5.4,0,0,0,8.87,1,.61.61,0,0,0,8.43.64Q7.14.58,5.85.64A.61.61,0,0,0,5.41,1a5.42,5.42,0,0,0,0,1.07ZM6.4,7.49v1H7.89v-1Z"></path>
          <path d="M13,12.74a1,1,0,0,0,.63-1.09c0-1.42,0-2.84,0-4.25,0-.32,0-.57.39-.67a1.06,1.06,0,0,0,.31-.21v6.22Z"></path>
        </g>
      </g>
    </g>
  </symbol>
</svg>