<svg width="0" height="0" class="hidden">
  <symbol xmlns="http://www.w3.org/2000/svg" viewBox="0 0 14.37 15.34" id="icon_proffesion_man">
    <defs></defs>
    <g id="Layer_2">
      <g id="Layer_1-2">
        <g id="GFWF7R.tif">
          <path d="M6.4,0A8.8,8.8,0,0,1,7.84.62,3.07,3.07,0,0,1,9.2,3.28a5.42,5.42,0,0,0,0,.57,1.77,1.77,0,0,0,.14.56A1.07,1.07,0,0,1,8.64,6a.34.34,0,0,0-.29.3,2.28,2.28,0,0,1-.72,1.24,1.24,1.24,0,0,0-.12.9.13.13,0,0,0,.07,0c.39.16.79.32,1.2.46.06,0,.19-.06.26-.12A3.17,3.17,0,0,1,10.43,8c.17,0,.4-.17.47.11s-.17.28-.34.32A2.61,2.61,0,0,0,8.81,9.89a2.67,2.67,0,0,0,.52,3,2.73,2.73,0,0,0,2.88.61A2.68,2.68,0,0,0,13.89,11a2.64,2.64,0,0,0-2-2.53l-.14,0c-.17,0-.31-.13-.22-.3S11.8,8,11.9,8a3.06,3.06,0,0,1,2.42,2.7.84.84,0,0,0,0,.17v.3a1.09,1.09,0,0,0,0,.17,2.86,2.86,0,0,1-1.76,2.48.79.79,0,0,0-.56.92c0,.45-.19.62-.65.62H.66c-.45,0-.65-.18-.65-.62,0-1,0-2,0-3A2.26,2.26,0,0,1,1.55,9.57L4.28,8.5a.44.44,0,0,0,.24-.14,1,1,0,0,0-.19-.88A2.13,2.13,0,0,1,3.62,6.3a.4.4,0,0,0-.34-.37,1,1,0,0,1-.67-1.47,2.16,2.16,0,0,0,.15-.62c0-.2,0-.4,0-.6A3.3,3.3,0,0,1,4,.71,3.94,3.94,0,0,1,5.57,0ZM3.46,9.31,1.81,10A1.85,1.85,0,0,0,.47,11.88c0,.9,0,1.8,0,2.7,0,.09,0,.19,0,.29H2.09v-2.5c0-.17,0-.37.24-.37s.21.2.21.36v2.19c0,.1,0,.21,0,.31H4.72c.19-1.11.38-2.21.55-3.32,0-.14-.1-.31-.16-.48-.56.25-.67.2-.93-.31S3.71,9.81,3.46,9.31ZM7.3,3.05A5.77,5.77,0,0,1,4,4a14.24,14.24,0,0,0,0,2.17A1.93,1.93,0,0,0,6.2,7.66,2,2,0,0,0,8,5.79c0-.62,0-1.24,0-1.85a.41.41,0,0,0-.08-.25C7.71,3.48,7.5,3.27,7.3,3.05Zm-4,.89.33-.2c.15-.08.31-.24.47-.24a5.39,5.39,0,0,0,3-.8.56.56,0,0,1,.47,0c.33.3.61.65.91,1l.24.28a2.77,2.77,0,0,0-1.18-3,2.59,2.59,0,0,0-3,0A2.91,2.91,0,0,0,3.25,3.94ZM6.84,14.87c-.06-.36-.13-.68-.16-1a.38.38,0,0,1,.15-.32c.19-.07.26.09.29.25s0,.3.07.44c.1.66.1.66.75.66H9.47c0-.4,0-.75,0-1.1a.49.49,0,0,0-.17-.33,3,3,0,0,1-1.12-1.92,9,9,0,0,1,0-1.47l-.33.66c-.27.53-.36.57-.9.36a.57.57,0,0,0-.19.61,5,5,0,0,1,.13.86.38.38,0,0,1-.15.32c-.19.06-.25-.1-.28-.26l-.18-1c-.53-.06-.54-.06-.62.41l-.21,1.21c-.09.54-.18,1.07-.27,1.64Zm.16-7a2.76,2.76,0,0,1-2,0c0,.23,0,.46.07.59.29.42.64.81,1,1.23.27-.33.5-.65.77-.94A.89.89,0,0,0,7,7.91ZM8.13,9.15c-.24-.1-.44-.19-.65-.26A.29.29,0,0,0,7.23,9c-.3.35-.59.71-.9,1.1l1,.7Zm-2.45.91c-.3-.38-.58-.73-.87-1.07a.35.35,0,0,0-.27-.1,6.39,6.39,0,0,0-.66.26l.81,1.61ZM10,13.92v.93h1.59v-.66ZM6.57,10.78,6,10.38l-.57.41A.61.61,0,0,0,6.57,10.78ZM8.46,4.32V5.51A.6.6,0,0,0,9,4.93.59.59,0,0,0,8.46,4.32Zm-4.94,0c-.4.09-.6.34-.55.66a.5.5,0,0,0,.55.49Z"></path>
          <path d="M8.91,11a2.33,2.33,0,0,1,4.65,0,2.33,2.33,0,1,1-4.65,0Zm2.32,1.91a1.88,1.88,0,0,0,0-3.76,1.88,1.88,0,1,0,0,3.76Z"></path>
          <path d="M7,7.91a.89.89,0,0,1-.22.89c-.27.29-.5.61-.77.94-.34-.42-.69-.81-1-1.23-.09-.13,0-.36-.07-.59A2.76,2.76,0,0,0,7,7.91Z"></path>
          <path d="M11.15,11.24l.75-.83c.12-.13.27-.2.38-.05a.38.38,0,0,1-.06.35c-.29.32-.61.6-.91.9,0,0-.07.08-.09.07s-.31,0-.38-.12-.54-.3-.46-.66a.44.44,0,0,1,.34-.05A2.31,2.31,0,0,1,11.15,11.24Z"></path>
        </g>
      </g>
    </g>
  </symbol>
</svg>