<svg width="0" height="0" class="hidden">
  <symbol xmlns="http://www.w3.org/2000/svg" viewBox="0 0 10.38 13.08" id="icon_earth">
    <defs></defs>
    <g id="Layer_2">
      <g id="Layer_1-2">
        <g id="um4Qwv">
          <path d="M0,7.58A9.57,9.57,0,0,1,.32,6.15,5.06,5.06,0,0,1,4.71,2.73h.14l.09.42-.81.59a.83.83,0,0,1,.08.12c.19.37.14.52-.23.69s-.59.28-.61.66c.21-.1.43-.22.65-.31a.41.41,0,0,1,.29,0c.32.19.63.38.94.59s.38.32.66.24c0,0,.15.08.15.12a1.18,1.18,0,0,1-.12.58c-.08.11-.33.13-.5.15s-.2-.05-.29,0-.25.12-.33.09c-.26-.13-.68-.09-.66-.57l-.25,0A1.93,1.93,0,0,0,2.81,8a.6.6,0,0,0,.76.48l.36,0A.52.52,0,0,1,4.47,9a2.35,2.35,0,0,0,.17.51,1.14,1.14,0,0,1,.09.85.77.77,0,0,0,0,.4c.07.26.17.52.26.78a.38.38,0,0,0,.49-.23c.08-.16.1-.35.18-.52s.2-.25.28-.38.14-.21.11-.28a1.11,1.11,0,0,1,.29-1.18c.12-.14.22-.31.34-.48a.93.93,0,0,1-.26-.15A.62.62,0,0,1,6.28,8s.13-.12.21-.15c.61-.2.62-.23.27-.76a3.25,3.25,0,0,1-.25-.45c-.07-.14,0-.28.15-.25A3.26,3.26,0,0,1,8,6.67a.66.66,0,0,1,.33.51c0,.15.06.3.1.5.16-.29.28-.53.42-.77,0-.08.15-.17.22-.17s.16.12.19.2c.11.26.19.53.28.78a2.29,2.29,0,0,0-.25-2.19c0-.08-.09-.15-.14-.24l.12-.16.17-.22A9.1,9.1,0,0,1,10,6.05c.16.51.24,1,.36,1.58V8.1c0,.08,0,.16,0,.25a5,5,0,0,1-3.17,4.32,12,12,0,0,1-1.62.41H4.77a.47.47,0,0,0-.17,0A5.13,5.13,0,0,1,.2,9.26C.11,8.9.07,8.52,0,8.15ZM4.28,3.19l-.1,0A4.87,4.87,0,0,0,.43,8.66a.55.55,0,0,0,.4.5c.16.05.31.15.47.21a.27.27,0,0,1,.19.35,6.25,6.25,0,0,1-.16.62.55.55,0,0,0,.11.57,4.8,4.8,0,0,0,7,.51A4.71,4.71,0,0,0,10,8.12L9.8,8.2c-.35.14-.42.11-.54-.25-.07-.17-.13-.35-.21-.58-.09.18-.16.32-.24.45a1.34,1.34,0,0,1-.31.36c-.18.14-.3.08-.35-.14S8,7.53,8,7.28a.45.45,0,0,0-.35-.4,3.48,3.48,0,0,0-.59-.09c.42.93.42.94-.17,1.3.22.21.15.42,0,.63a3.23,3.23,0,0,1-.29.43.85.85,0,0,0-.2.9.58.58,0,0,1,0,.39c-.13.21-.44.32-.32.65v0c-.11.14-.21.29-.31.43a.92.92,0,0,1-1,.33.29.29,0,0,1-.15-.16c-.08-.27-.15-.54-.22-.82s-.13-.37-.08-.5a1,1,0,0,0-.14-1,.54.54,0,0,1-.06-.25c0-.19-.12-.28-.32-.26a1.24,1.24,0,0,1-.33,0,1,1,0,0,1-.55-.11,1.61,1.61,0,0,1-.26-2c.1-.14.24-.25.34-.39a1.52,1.52,0,0,1,1.18-.66c.23,0,.37,0,.35.3s.13.27.22.19.41,0,.62,0a.87.87,0,0,0,.28,0l-.48-.3-.26-.16-.65-.38a.58.58,0,0,0-.32,0c-.27.06-.52.17-.79.21s-.33-.1-.23-.33a6.14,6.14,0,0,1,.25-.59.35.35,0,0,1,.18-.16c.2-.11.4-.2.61-.3,0-.06-.08-.09-.11-.14-.18-.3-.15-.43.15-.63ZM1,10.14c.18-.46.17-.48-.27-.59Z"></path>
          <path d="M7.89,0a4.49,4.49,0,0,1,.88.35,2.25,2.25,0,0,1,1,2.35A4.08,4.08,0,0,1,8,5.65c-.31.22-.38.22-.69,0A4.28,4.28,0,0,1,5.37,2.72,2.35,2.35,0,0,1,7.23.05l.14,0ZM9.44,2.39c0-.11,0-.22,0-.34A1.86,1.86,0,0,0,7.74.36a2,2,0,0,0-2,2.43A4.06,4.06,0,0,0,7.51,5.36a.3.3,0,0,0,.26,0A3.68,3.68,0,0,0,9.44,2.39Z"></path>
          <path d="M1,10.14.73,9.55C1.17,9.66,1.18,9.68,1,10.14Z"></path>
          <path d="M7.59,1.28a1,1,0,0,1,1,1,1,1,0,1,1-2,0A1,1,0,0,1,7.59,1.28Z"></path>
        </g>
      </g>
    </g>
  </symbol>
</svg>