<svg width="0" height="0" class="hidden">
  <symbol xmlns="http://www.w3.org/2000/svg" viewBox="0 0 24.09 28.03" id="icon_copy">
    <defs></defs>
    <g id="Layer_2">
      <g id="Layer_1-2">
        <g id="jGqRq8">
          <path d="M0,24.91V7.07c0-.11.08-.22.1-.33a3.51,3.51,0,0,1,3.49-2.8h.65c.11-1.59.34-2.35,1.18-3A11,11,0,0,1,7.3,0H17.49a6,6,0,0,1,.6.53q2.82,3,5.63,6.09a3.62,3.62,0,0,1,.37.56V21.43c0,.13-.08.25-.11.38a3.57,3.57,0,0,1-3.24,2.75c-.42,0-.84,0-1.28,0A3.33,3.33,0,0,1,18.34,27a12.7,12.7,0,0,1-1.89,1H3A3.46,3.46,0,0,1,.9,26.78,14,14,0,0,1,0,24.91ZM16.14,1.61l-.59,0H8.08a2,2,0,0,0-2.26,2.3v16.8A2.05,2.05,0,0,0,8.12,23c4,0,8.07,0,12.1,0a2.12,2.12,0,0,0,2.28-2.3c-.05-3.76,0-7.52,0-11.29,0-.19,0-.37,0-.62H20.29a3.79,3.79,0,0,1-4.15-4.13C16.13,3.68,16.14,2.68,16.14,1.61Zm1.69,23h-.67c-2.93,0-5.87-.09-8.79,0a3.81,3.81,0,0,1-4.13-4.15c.12-4.74,0-9.49,0-14.24V5.54c-1.6-.24-2.65.56-2.66,2,0,5.63,0,11.27,0,16.9a2.5,2.5,0,0,0,.32,1.14,2,2,0,0,0,1.84.88H15.65a4.44,4.44,0,0,0,.63,0A1.91,1.91,0,0,0,17.83,24.56ZM22,7.32l.07-.16L17.8,2.52c0,.09-.07.12-.07.15,0,.79,0,1.58,0,2.37a2,2,0,0,0,1.79,2.12C20.35,7.29,21.2,7.27,22,7.32Z"></path>
          <path d="M0,24.91a14,14,0,0,0,.9,1.87A3.46,3.46,0,0,0,3,28H0Z"></path>
          <path d="M14.19,12.16H18.7c.61,0,1,.34.95.84s-.38.74-1,.74h-9c-.61,0-1-.31-1-.78s.36-.8,1-.8Z"></path>
          <path d="M13.21,18H9.68c-.64,0-1-.29-1-.79s.33-.77,1-.77h7c.67,0,1,.27,1,.78s-.34.78-1,.78Z"></path>
        </g>
      </g>
    </g>
  </symbol>
</svg>