<svg width="0" height="0" class="hidden">
  <symbol xmlns="http://www.w3.org/2000/svg" viewBox="0 0 36.93 41.07" id="icon_nationality">
    <defs></defs>
    <g id="Layer_2">
      <g id="Layer_1-2">
        <g id="_7zV5F8.tif">
          <path d="M32.41,41.07H1.62A2.45,2.45,0,0,1,0,39.45V1.64A2.38,2.38,0,0,1,2.61,0C12.36,0,22.1,0,31.85,0c.79,0,1,.19,1,1V12.42l3.44.77a.71.71,0,0,1,.62,1C36,18,35.17,21.86,34.33,25.71a2.31,2.31,0,0,1-1.49,1.88v.52c0,4,0,8,0,12A1,1,0,0,1,32.41,41.07Zm-31-37V38.72c0,.78.2,1,1,1H15.79l2-8.91c-5.39.22-9.34-1.93-11.1-7.15a9.48,9.48,0,0,1,3-10.82c3.76-3.22,7.94-3.31,12.26-1a2.72,2.72,0,0,1,.11-.43,1,1,0,0,0-.27-1.18,1.92,1.92,0,0,1-.11-2.55,2,2,0,0,1,2.52-.63,2,2,0,0,1,1.08,2.35,7.62,7.62,0,0,1-.62,1.2l6.75,1.5v-8Zm24.3,20.83a10.13,10.13,0,0,1-6,5.34.7.7,0,0,0-.53.6c-.2,1-.43,1.95-.64,2.92-.44,2-.87,3.91-1.31,5.89H31.45V27.54l-2-.46c-.76-.17-.91-.42-.74-1.18.13-.55.25-1.11.38-1.7l-8-1.78-1.42,6.41a9.16,9.16,0,0,0,4.85-4.47ZM22.25,17l-.9,4.07,12,2.68.9-4.07Zm.29-1.34,12,2.68.88-3.94-12-2.68ZM31.45,1.38H2.25A1.37,1.37,0,0,0,2,1.4a.63.63,0,0,0-.58.68.64.64,0,0,0,.56.66,2,2,0,0,0,.42,0H31.45ZM13.3,18.5a13.29,13.29,0,0,0,0,4.08h6.3l.91-4.08ZM13.61,24q.06.22.12.42A14,14,0,0,0,16,28.7a1.38,1.38,0,0,0,1.65.65h.08c.28,0,.39-.16.44-.41.23-1.1.48-2.2.72-3.29.12-.55.24-1.09.37-1.66ZM7.77,18.51a8.45,8.45,0,0,0,0,4.06h4.06V18.51Zm11.46-1.4A12.59,12.59,0,0,0,16.41,12a12.7,12.7,0,0,0-2.8,5.14Zm-11,0c1.31,0,2.53,0,3.75,0,.11,0,.26-.18.3-.3.3-.76.51-1.55.86-2.27.45-.93,1-1.81,1.53-2.72A9,9,0,0,0,8.2,17.12Zm6.48,12.11s0-.08,0-.11a14.66,14.66,0,0,1-2.41-4.92.49.49,0,0,0-.36-.23c-.69,0-1.39,0-2.09,0H8.25A8.73,8.73,0,0,0,14.68,29.23Zm6.05-12.11s.06,0,.06,0c.28-1.19.56-2.38.83-3.57a.37.37,0,0,0-.13-.27,8.29,8.29,0,0,0-3.3-1.42c.5.86,1,1.68,1.46,2.56S20.37,16.19,20.73,17.12Zm9.66,7.38-.29,1.34c.7.15,1.35.31,2,.43a.66.66,0,0,0,.81-.51.67.67,0,0,0-.52-.81C31.75,24.79,31.1,24.66,30.39,24.5ZM24,8.89a.68.68,0,1,0-.65.7A.69.69,0,0,0,24,8.89Z"></path>
          <path d="M0,39.45a2.45,2.45,0,0,0,1.62,1.62H0Z"></path>
          <path d="M24,8.89a.69.69,0,0,1-.65.7.68.68,0,1,1,.65-.7Z"></path>
          <path d="M19.8,8.21H9.6V6.88H19.8Z"></path>
          <path d="M15,35.63v1.31H8.93V35.63Z"></path>
          <path d="M11,34.21V32.89h4.75v1.32Z"></path>
          <path d="M23.92,36.94H19.19V35.62h4.73Z"></path>
          <path d="M21.87,34.21h-2V32.89h2Z"></path>
        </g>
      </g>
    </g>
  </symbol>
</svg>