<svg width="0" height="0" class="hidden">
  <symbol version="1.1" xmlns="http://www.w3.org/2000/svg" viewBox="0 0 512 512" id="icon-worker">
    <path d="M0 0 C1.94298225 -0.01925285 1.94298225 -0.01925285 3.92521667 -0.03889465 C5.34247453 -0.04706418 6.75973673 -0.0545075 8.17700195 -0.0612793 C9.25012099 -0.06739259 9.25012099 -0.06739259 10.3449192 -0.07362938 C14.13424005 -0.0944786 17.92352486 -0.10878322 21.71289062 -0.11816406 C25.61224415 -0.12920465 29.51102327 -0.1635798 33.41017437 -0.20333576 C36.42064924 -0.22958271 39.43098917 -0.23786317 42.44156837 -0.24144554 C43.87798743 -0.24629352 45.31440118 -0.25785622 46.75070763 -0.27648354 C54.8514261 -0.37498078 60.83091336 -0.27099068 67.7277832 4.17700195 C68.6146582 4.73387695 69.5015332 5.29075195 70.4152832 5.86450195 C74.25031928 9.69953803 77.7277832 14.63787044 77.7277832 20.17700195 C78.9652832 20.40387695 80.2027832 20.63075195 81.4777832 20.86450195 C103.84068267 25.90402859 125.5528401 42.28233287 138.0793457 61.4387207 C144.62813099 72.31715314 149.66081497 82.79630736 152.7277832 95.17700195 C152.91614746 95.92884766 153.10451172 96.68069336 153.29858398 97.45532227 C154.80818038 104.11350692 154.96535777 110.49557046 154.8527832 117.30200195 C154.84375977 118.35387695 154.83473633 119.40575195 154.82543945 120.48950195 C154.80214174 123.05225073 154.76943432 125.61449707 154.7277832 128.17700195 C155.64301758 128.14477539 156.55825195 128.11254883 157.5012207 128.0793457 C161.67609254 128.20570381 164.56485869 129.55146753 167.7277832 132.17700195 C172.95937268 138.82679339 172.90935503 145.93311296 172.9152832 153.98950195 C172.9275293 154.85381836 172.93977539 155.71813477 172.95239258 156.60864258 C172.97273279 165.59223706 171.49419306 174.01035921 165.19262695 180.84106445 C161.06414983 184.65920047 157.06757869 186.49075075 151.7277832 188.17700195 C152.2227832 189.33200195 152.7177832 190.48700195 153.2277832 191.67700195 C156.20084728 200.6815453 156.31615414 212.23389821 152.1809082 220.8684082 C147.43545572 228.40755449 141.26117182 235.07691814 132.7277832 238.17700195 C131.4077832 238.17700195 130.0877832 238.17700195 128.7277832 238.17700195 C128.71360352 238.89500977 128.69942383 239.61301758 128.68481445 240.3527832 C127.58640255 264.19129019 118.20571204 282.71347535 100.9152832 298.86450195 C77.42895508 319.17700195 77.42895508 319.17700195 69.7277832 319.17700195 C69.7277832 321.48700195 69.7277832 323.79700195 69.7277832 326.17700195 C70.42585587 326.28054489 71.12392853 326.38408783 71.84315491 326.49076843 C80.09672983 327.78275329 88.13037677 329.64053944 96.22387695 331.6965332 C97.58801019 332.04061202 98.95219278 332.38449519 100.31642151 332.72819519 C103.1569608 333.44515634 105.99650729 334.16590111 108.83544922 334.88916016 C112.43452218 335.80553341 116.03644192 336.71011218 119.63928127 337.61154652 C122.45236076 338.31721977 125.26350022 339.03039534 128.07417488 339.74558067 C130.03404559 340.24259235 131.99568828 340.73260032 133.9573822 341.22236633 C158.47236787 347.51367796 180.18921075 359.07557171 193.7277832 381.17700195 C204.0564937 399.08931632 206.87769588 416.28047214 206.9309082 436.83325195 C206.93373558 437.57501175 206.93656296 438.31677155 206.93947601 439.08100891 C206.95437833 443.00119369 206.96366615 446.92134248 206.96801758 450.84155273 C206.97351097 454.86607614 206.99758286 458.89026278 207.02598953 462.91468048 C207.04469729 466.03412827 207.04982566 469.15349587 207.05135345 472.272995 C207.05435858 473.75601557 207.06231376 475.23903547 207.07553864 476.72200012 C207.16570439 487.60246529 206.72031815 497.95961309 198.7277832 506.17700195 C193.46215826 510.15455817 189.02004863 512.29896218 182.35219288 512.31122303 C181.22949995 512.31568087 180.10680702 512.32013872 178.95009309 512.32473165 C177.71140322 512.32454729 176.47271335 512.32436292 175.19648743 512.32417297 C173.88466482 512.32784966 172.57284221 512.33152635 171.2212674 512.33531445 C167.57218207 512.34533934 163.92311318 512.34905203 160.27401602 512.35170376 C156.34135655 512.35560537 152.40871012 512.36518381 148.47605896 512.37391663 C138.97478162 512.39368513 129.4735032 512.40374775 119.97221044 512.41264442 C115.49882407 512.4170267 111.02543888 512.42239366 106.55205345 512.42763329 C91.68308031 512.44464598 76.81410791 512.4591404 61.94512653 512.46638203 C58.08597627 512.46829195 54.22682602 512.47021228 50.36767578 512.47216797 C48.92890133 512.47289358 48.92890133 512.47289358 47.46106073 512.47363385 C31.92108952 512.48193509 16.38119527 512.5072734 0.84125767 512.53974865 C-15.11013254 512.57281221 -31.06148362 512.59083015 -47.01290828 512.59402627 C-55.97031571 512.59619202 -64.92761092 512.6049502 -73.88498497 512.63048744 C-81.51316673 512.65218484 -89.14120902 512.66024961 -96.76941814 512.65052066 C-100.6610762 512.64597314 -104.55244643 512.64788817 -108.44406509 512.6672821 C-112.66491391 512.68813497 -116.88512326 512.67793762 -121.10600281 512.66474915 C-122.9473072 512.68120301 -122.9473072 512.68120301 -124.82580966 512.69798928 C-133.85249778 512.62978916 -140.6859851 510.76323365 -147.2722168 504.17700195 C-151.83753522 497.29669203 -153.39061928 491.75962674 -153.41748047 483.49755859 C-153.42083908 482.84632019 -153.42419769 482.19508179 -153.42765808 481.52410889 C-153.43712685 479.378439 -153.43910991 477.23284767 -153.44018555 475.0871582 C-153.44340369 473.58084584 -153.44676817 472.07453378 -153.45027161 470.56822205 C-153.45625468 467.40842975 -153.45811263 464.24866475 -153.45751953 461.08886719 C-153.45741858 457.07824712 -153.4710041 453.06780679 -153.48829174 449.05722904 C-153.49952659 445.94186127 -153.50143517 442.82653515 -153.50090981 439.71114922 C-153.50207528 438.23506495 -153.50641454 436.75897908 -153.51424217 435.28291512 C-153.63811639 409.48560677 -147.56382598 387.72710703 -130.2722168 368.17700195 C-129.47944336 367.26047852 -129.47944336 367.26047852 -128.6706543 366.32543945 C-113.95896617 350.4542094 -94.06766397 344.90901044 -73.80871582 339.81604004 C-70.88578959 339.07964662 -67.96423509 338.33793735 -65.04272461 337.59594727 C-57.97547429 335.80215833 -50.90557064 334.01902749 -43.8347168 332.23950195 C-42.05567459 331.7908931 -42.05567459 331.7908931 -40.24069214 331.33322144 C-36.83681692 330.47639128 -33.43170012 329.62469568 -30.02612305 328.7746582 C-28.98658478 328.51250519 -27.94704651 328.25035217 -26.87600708 327.98025513 C-25.91822357 327.74233246 -24.96044006 327.50440979 -23.97363281 327.25927734 C-23.13494156 327.04944717 -22.29625031 326.839617 -21.43214417 326.62342834 C-19.2722168 326.17700195 -19.2722168 326.17700195 -16.2722168 326.17700195 C-16.2722168 323.86700195 -16.2722168 321.55700195 -16.2722168 319.17700195 C-16.94510742 318.93594727 -17.61799805 318.69489258 -18.3112793 318.4465332 C-38.93990377 309.60180635 -60.45494074 290.94965567 -69.2722168 270.17700195 C-72.98516555 259.80212775 -75.05462005 249.19530991 -75.2722168 238.17700195 C-76.61993164 238.0087793 -76.61993164 238.0087793 -77.99487305 237.8371582 C-86.14007049 236.19646885 -92.64428319 229.83115519 -97.2722168 223.17700195 C-102.40042792 214.87779638 -102.07911795 205.59084869 -101.2722168 196.17700195 C-100.55432003 193.16183552 -99.68640284 190.94644962 -98.2722168 188.17700195 C-98.9012793 187.99266602 -99.5303418 187.80833008 -100.1784668 187.6184082 C-107.45267043 185.15350486 -111.91629958 181.50802869 -116.2722168 175.17700195 C-119.46874591 168.5139666 -119.47894381 161.60731779 -119.5222168 154.36450195 C-119.5428418 153.51307617 -119.5634668 152.66165039 -119.5847168 151.78442383 C-119.62931171 144.46528358 -118.59932358 137.98146397 -113.8347168 132.23950195 C-109.35939424 128.63741307 -107.01988204 128.09098247 -101.2722168 128.17700195 C-101.29316406 127.57452637 -101.31411133 126.97205078 -101.33569336 126.35131836 C-102.24451563 96.04382109 -94.56331173 70.65197503 -73.4440918 48.1262207 C-60.89023514 35.04478837 -45.05152317 24.59277739 -27.2722168 20.17700195 C-26.2822168 20.17700195 -25.2922168 20.17700195 -24.2722168 20.17700195 C-24.16006836 19.44481445 -24.04791992 18.71262695 -23.93237305 17.95825195 C-22.44459361 11.69021077 -18.48482637 6.60437777 -13.0847168 3.17700195 C-8.64860251 0.65707905 -5.09158778 0.0439021 0 0 Z M-6.2722168 22.17700195 C-7.36506191 25.45553729 -7.40332311 27.87768444 -7.4140625 31.32910156 C-7.42109695 32.59729233 -7.42813141 33.86548309 -7.43537903 35.17210388 C-7.43719492 35.84938475 -7.43901081 36.52666561 -7.44088173 37.22447014 C-7.44805848 39.34722081 -7.46373288 41.46974184 -7.48222351 43.59242249 C-7.53464324 49.6270131 -7.58268345 55.66147553 -7.59814453 61.69628906 C-7.60822599 65.3893499 -7.63754986 69.08182909 -7.67946434 72.77466011 C-7.69177367 74.18080814 -7.69689569 75.58703831 -7.69466591 76.99323845 C-7.69231329 78.96072393 -7.71666884 80.92818642 -7.7421875 82.89550781 C-7.75098686 84.57404091 -7.75098686 84.57404091 -7.75996399 86.28648376 C-8.38531957 89.81521341 -9.4895701 90.99171101 -12.2722168 93.17700195 C-14.2722168 93.7434082 -14.2722168 93.7434082 -16.2722168 93.73950195 C-17.2622168 93.77237305 -17.2622168 93.77237305 -18.2722168 93.8059082 C-21.59151603 92.76214419 -22.47388566 91.14851696 -24.2722168 88.17700195 C-24.88990188 84.44661 -24.87715776 80.74491568 -24.8815918 76.9699707 C-24.89812805 75.88943924 -24.91466431 74.80890778 -24.93170166 73.69563293 C-24.98020171 70.25186489 -25.00155786 66.80853854 -25.0222168 63.36450195 C-25.05037467 61.02658908 -25.08030184 58.68869681 -25.11206055 56.35083008 C-25.18596121 50.62630094 -25.23759206 44.90189612 -25.2722168 39.17700195 C-27.03795495 39.80978408 -28.80284922 40.44492132 -30.56738281 41.08105469 C-32.0417556 41.61121437 -32.0417556 41.61121437 -33.5459137 42.15208435 C-44.24988037 46.17609909 -52.31944213 53.23552384 -60.2722168 61.17700195 C-61.0147168 61.90790039 -61.7572168 62.63879883 -62.5222168 63.3918457 C-79.72009731 81.42946647 -83.2722168 103.8999369 -83.2722168 128.17700195 C-10.6722168 128.17700195 61.9277832 128.17700195 136.7277832 128.17700195 C136.7277832 99.24259514 131.36787027 79.47463439 111.6027832 58.55200195 C104.06052699 51.2496792 89.72997529 39.17700195 78.7277832 39.17700195 C78.72191696 39.76724655 78.71605072 40.35749115 78.71000671 40.96562195 C78.64602652 47.11411459 78.5615948 53.26208606 78.46533203 59.41015625 C78.43209686 61.70403162 78.40406056 63.9979885 78.38134766 66.29199219 C78.34777646 69.59125468 78.29545785 72.88977125 78.23950195 76.1887207 C78.23311203 77.21285568 78.22672211 78.23699066 78.22013855 79.29216003 C78.10475443 84.89179739 77.89543096 89.0093542 73.7277832 93.17700195 C66.48909914 93.77033671 66.48909914 93.77033671 63.62733459 91.54000854 C61.17885193 88.49414166 61.22891157 86.82151098 61.22949219 82.94311523 C61.21945663 81.68145538 61.20942108 80.41979553 61.19908142 79.11990356 C61.20313429 78.44836369 61.20718716 77.77682381 61.21136284 77.08493423 C61.22401787 74.97380594 61.21268177 72.86398052 61.19532776 70.75289917 C61.1686328 67.02989003 61.16303153 63.30720094 61.16442871 59.58410645 C61.16665714 53.63260688 61.15241223 47.68150478 61.10884285 41.73015976 C61.099042 39.65722311 61.10770301 37.58491664 61.11753845 35.51199341 C61.11065506 34.24402924 61.10377167 32.97606506 61.09667969 31.66967773 C61.09764145 30.5581131 61.09860321 29.44654846 61.09959412 28.30130005 C60.67015346 24.6927437 59.59706568 22.27707122 57.7277832 19.17700195 C55.11631312 17.87126691 53.16454738 18.02839644 50.23999023 18 C49.09184845 17.98716476 47.94370667 17.97432953 46.76077271 17.96110535 C45.51496429 17.95371841 44.26915588 17.94633148 42.9855957 17.9387207 C41.71054169 17.93064896 40.43548767 17.92257721 39.12179565 17.91426086 C36.41994584 17.90041068 33.71821846 17.88939668 31.01635742 17.88183594 C27.55710404 17.87076811 24.09849334 17.83636363 20.63946724 17.79666424 C17.33824034 17.76422303 14.03695773 17.75972152 10.7355957 17.7512207 C9.49383575 17.73371262 8.25207581 17.71620453 6.97268677 17.69816589 C5.81824066 17.70109146 4.66379456 17.70401703 3.47436523 17.70703125 C1.95119186 17.69823189 1.95119186 17.69823189 0.39724731 17.68925476 C-3.00392243 18.31069447 -4.1557057 19.49538637 -6.2722168 22.17700195 Z M-101.2722168 146.17700195 C-102.38342315 158.67066419 -102.38342315 158.67066419 -97.75412655 168.96527195 C-93.79927678 170.89612786 -89.90470271 170.59261849 -85.56166077 170.56468201 C-84.56538412 170.57006754 -83.56910747 170.57545308 -82.54264063 170.58100182 C-79.19464363 170.59534229 -75.84703863 170.58816256 -72.49902344 170.58105469 C-70.10263245 170.58675506 -67.70624419 170.59371801 -65.30986023 170.60185242 C-59.47063632 170.61796665 -53.63151174 170.61987698 -47.7922774 170.61463951 C-43.04650408 170.61059964 -38.30076257 170.61203919 -33.55499077 170.61738777 C-32.8797882 170.61813619 -32.20458563 170.61888462 -31.50892238 170.61965572 C-30.13728916 170.62118718 -28.76565596 170.62272553 -27.39402276 170.62427069 C-14.52821339 170.6380018 -1.66246482 170.63255378 11.20334316 170.62108547 C22.97531618 170.61115265 34.74713203 170.62409345 46.51908081 170.64801966 C58.60473059 170.67239852 70.69030713 170.68202152 82.77598101 170.67536694 C89.56189676 170.67187197 96.34769161 170.67412494 103.13358879 170.69161797 C109.5136522 170.70704612 115.89341476 170.70317724 122.27346611 170.68431282 C124.61763958 170.68061553 126.96183513 170.68376838 129.30598831 170.69419861 C132.50109047 170.70733178 135.69518535 170.69592845 138.89024353 170.6782074 C139.82234223 170.6878124 140.75444093 170.69741741 141.71478504 170.70731348 C145.83451476 170.66015873 148.16111386 170.50770574 151.78012943 168.39567661 C157.09435546 162.34196275 154.7277832 153.80797775 154.7277832 146.17700195 C70.2477832 146.17700195 -14.2322168 146.17700195 -101.2722168 146.17700195 Z M-80.7097168 194.73950195 C-83.83916708 199.6214444 -83.90532785 204.54055496 -83.2722168 210.17700195 C-81.06941099 214.58261357 -78.48492948 217.63182137 -74.2722168 220.17700195 C-71.20033076 220.99700405 -68.13826585 221.67869839 -65.0144043 222.27075195 C-61.70827503 223.36337587 -61.05390993 224.23884788 -59.2722168 227.17700195 C-58.62792969 229.82739258 -58.62792969 229.82739258 -58.24487305 232.83325195 C-58.09211914 233.93926758 -57.93936523 235.0452832 -57.78198242 236.18481445 C-57.56058594 237.91344727 -57.56058594 237.91344727 -57.3347168 239.67700195 C-55.70295056 252.40916904 -53.34553286 263.91183538 -45.2722168 274.17700195 C-44.68182617 274.94270508 -44.09143555 275.7084082 -43.4831543 276.49731445 C-28.17627956 294.87738411 -0.53289273 312.34025446 23.5090332 315.5480957 C45.90929026 316.09522842 70.37441995 300.16762279 86.7277832 286.17700195 C87.5837207 285.46672852 88.4396582 284.75645508 89.3215332 284.0246582 C106.0196686 269.71556326 109.96086681 251.46349058 112.1027832 230.35668945 C112.75997309 227.01323589 113.23347746 225.47610116 115.7277832 223.17700195 C118.3996582 222.34106445 118.3996582 222.34106445 121.4777832 221.80200195 C127.17468675 220.53985504 131.00696537 218.73333277 134.7277832 214.17700195 C137.46420117 209.70258879 137.35635734 205.2763096 136.7277832 200.17700195 C134.95080356 194.83596655 131.58997524 191.86672521 126.7277832 189.17700195 C123.11597552 187.97306606 119.81568519 188.02889504 116.05586243 188.02983093 C115.26673452 188.02615424 114.47760661 188.02247756 113.66456574 188.01868945 C111.01155943 188.00764733 108.35859227 188.00380787 105.70556641 188 C103.80679703 187.99373572 101.90802888 187.98708895 100.00926208 187.98008728 C94.84378233 187.96267376 89.67831183 187.95212442 84.51280999 187.94388175 C81.28565514 187.93873202 78.05850315 187.93265625 74.83135033 187.92637062 C64.73461719 187.907317 54.63789138 187.89308658 44.54114372 187.88475865 C32.88581359 187.87498656 21.23067339 187.8486684 9.57541019 187.80825776 C0.56722964 187.77809676 -8.44089648 187.76328976 -17.44912654 187.75997764 C-22.8295244 187.75762704 -28.2097194 187.74866517 -33.5900631 187.72351646 C-38.65359278 187.7002313 -43.7167861 187.69600439 -48.78035545 187.70627785 C-50.63628763 187.70677322 -52.49223638 187.70045247 -54.34811783 187.6867218 C-56.88760569 187.66898858 -59.42588825 187.67611557 -61.96537781 187.68925476 C-63.05962013 187.67280089 -63.05962013 187.67280089 -64.17596835 187.65601462 C-70.80239607 187.73843846 -76.11979398 189.91419848 -80.7097168 194.73950195 Z M1.7277832 328.17700195 C1.07913824 336.80758348 2.4317819 343.14855591 7.9777832 349.92700195 C14.40204998 355.18322023 19.93127678 358.58552448 28.44262695 358.45825195 C35.43341233 357.5978476 41.23956035 354.58927068 45.7277832 349.17700195 C46.4496582 348.37262695 47.1715332 347.56825195 47.9152832 346.73950195 C52.0992274 340.8242705 51.97604011 335.15577936 51.7277832 328.17700195 C50.6862207 328.46575195 49.6446582 328.75450195 48.5715332 329.05200195 C32.01494775 333.4327934 18.14364168 332.72793302 1.7277832 328.17700195 Z M-22.3737793 345.70825195 C-23.58549805 346.02407227 -24.7972168 346.33989258 -26.0456543 346.6652832 C-27.31666992 346.99915039 -28.58768555 347.33301758 -29.8972168 347.67700195 C-31.18882541 348.01446382 -32.4804914 348.35170614 -33.7722168 348.6887207 C-36.93945591 349.51598465 -40.10608662 350.34550578 -43.2722168 351.17700195 C-41.67296805 364.61825948 -39.94212659 378.04422274 -38.09359741 391.45346069 C-37.88024819 393.01254491 -37.67060013 394.57214032 -37.4647522 396.13223267 C-37.17127424 398.34922384 -36.86399748 400.56390577 -36.5534668 402.77856445 C-36.37879883 404.06069824 -36.20413086 405.34283203 -36.02416992 406.66381836 C-35.24252163 410.31574007 -34.25532854 413.01504046 -32.2722168 416.17700195 C-29.34436819 418.03188761 -27.08267405 418.42889776 -23.64881897 418.43769836 C-22.72498917 418.44478317 -21.80115936 418.45186798 -20.84933472 418.45916748 C-19.84298981 418.45669006 -18.8366449 418.45421265 -17.79980469 418.45166016 C-16.20163658 418.45932655 -16.20163658 418.45932655 -14.57118225 418.46714783 C-11.04568887 418.48105941 -7.52039063 418.48008589 -3.99487305 418.4777832 C-1.5463402 418.48166918 0.90219197 418.48600364 3.35072327 418.49076843 C8.48448878 418.49823396 13.61818552 418.49793686 18.75195312 418.49267578 C25.33398397 418.48687986 31.91573353 418.50381379 38.49771786 418.52702045 C43.55487212 418.54174475 48.61195843 418.54263127 53.66913033 418.53951073 C56.09604004 418.54002456 58.52295349 418.54527394 60.94984245 418.55532265 C64.34207368 418.56764454 67.73375429 418.56092051 71.12597656 418.54931641 C72.13029724 418.55696014 73.13461792 418.56460388 74.16937256 418.57247925 C80.99526395 418.58861053 80.99526395 418.58861053 86.7277832 415.17700195 C88.56743376 411.74904519 89.14846925 408.34449097 89.68920898 404.51635742 C89.92923141 402.84970535 89.92923141 402.84970535 90.17410278 401.14938354 C90.42110428 399.36481247 90.42110428 399.36481247 90.6730957 397.54418945 C90.9352034 395.70100632 90.9352034 395.70100632 91.2026062 393.82058716 C91.664214 390.56403973 92.12013034 387.30675952 92.5736084 384.04907227 C93.03719448 380.73282031 93.51020498 377.41792119 93.98168945 374.1027832 C94.33768252 371.58332598 94.69316867 369.06379707 95.0480957 366.54418945 C95.21681183 365.35042694 95.38552795 364.15666443 95.55935669 362.92672729 C95.78992264 361.26953171 95.78992264 361.26953171 96.02514648 359.57885742 C96.22927658 358.11922073 96.22927658 358.11922073 96.43753052 356.63009644 C96.7865339 354.09216664 96.7865339 354.09216664 96.7277832 351.17700195 C92.91999623 350.17699244 89.11139347 349.18015959 85.30200195 348.1862793 C83.36796631 347.68096888 81.43459033 347.17313588 79.5012207 346.6652832 C78.28950195 346.34946289 77.0777832 346.03364258 75.8293457 345.70825195 C74.14832764 345.26835937 74.14832764 345.26835937 72.43334961 344.81958008 C69.86694227 344.09997712 69.86694227 344.09997712 67.7277832 344.17700195 C67.50864258 344.80606445 67.28950195 345.43512695 67.0637207 346.08325195 C62.99993241 357.05217646 56.24127527 365.85884818 45.7902832 371.48950195 C35.21276519 376.27505865 23.44191443 376.62343435 12.3918457 373.21606445 C-0.09441255 368.34605757 -7.76675015 360.24099431 -13.2722168 348.17700195 C-13.9362793 345.8449707 -13.9362793 345.8449707 -14.2722168 344.17700195 C-17.12041378 344.17700195 -19.61838877 344.98721518 -22.3737793 345.70825195 Z M-75.2722168 359.17700195 C-75.2722168 403.72700195 -75.2722168 448.27700195 -75.2722168 494.17700195 C-7.9522168 494.17700195 59.3677832 494.17700195 128.7277832 494.17700195 C128.7277832 449.62700195 128.7277832 405.07700195 128.7277832 359.17700195 C118.9848997 356.00159035 118.9848997 356.00159035 113.7277832 356.17700195 C113.58743904 357.19605118 113.58743904 357.19605118 113.44425964 358.23568726 C112.46385602 365.342955 111.47237338 372.44861589 110.47460938 379.5534668 C110.10340467 382.20077434 109.73673853 384.84859735 109.37207031 387.49682617 C108.84569085 391.31577019 108.30916819 395.13317614 107.77075195 398.95043945 C107.53149239 400.71041763 107.53149239 400.71041763 107.28739929 402.50595093 C104.40237156 422.71613194 104.40237156 422.71613194 97.7277832 429.17700195 C91.70761715 433.39111819 86.21547762 435.29089959 78.85919189 435.31744385 C77.42957123 435.32600906 77.42957123 435.32600906 75.97106934 435.33474731 C74.42026672 435.3364241 74.42026672 435.3364241 72.83813477 435.33813477 C71.19086395 435.34558212 71.19086395 435.34558212 69.51031494 435.35317993 C65.87967297 435.36777672 62.24907469 435.37459954 58.6184082 435.38012695 C56.09120686 435.38588055 53.56400552 435.39163826 51.0368042 435.3973999 C46.41437711 435.40656136 41.79196308 435.41286446 37.1695292 435.41589665 C30.38454078 435.42037297 23.59975426 435.43790625 16.8148272 435.46689725 C10.92179712 435.49119558 5.02881682 435.4988447 -0.86426544 435.5005722 C-3.36323394 435.50359349 -5.86220169 435.51160426 -8.36113739 435.52475739 C-11.86257591 435.54187131 -15.3635265 435.53992425 -18.86499023 435.53344727 C-20.40364746 435.54726944 -20.40364746 435.54726944 -21.97338867 435.56137085 C-30.26215368 435.51350344 -38.03900977 433.99386516 -44.72125244 428.79182434 C-50.99165938 422.26324522 -52.34072352 413.23892596 -53.4753418 404.6340332 C-53.64346375 403.46619797 -53.81158569 402.29836273 -53.98480225 401.09513855 C-54.51362777 397.39535484 -55.01831393 393.69275359 -55.5222168 389.98950195 C-55.87478375 387.49253076 -56.22893598 384.99578287 -56.5847168 382.49926758 C-57.37315574 376.94485325 -58.14477027 371.38834808 -58.90661621 365.83023071 C-59.35024211 362.61075829 -59.80808141 359.39357479 -60.2722168 356.17700195 C-65.52933329 356.00159035 -65.52933329 356.00159035 -75.2722168 359.17700195 Z M-115.4753418 379.2512207 C-131.66548247 395.78735149 -135.4135314 415.45622531 -135.4753418 437.74731445 C-135.47816917 438.43857296 -135.48099655 439.12983147 -135.48390961 439.8420372 C-135.49881269 443.49292116 -135.5081009 447.14376642 -135.51245117 450.79467773 C-135.5179548 454.55161564 -135.54204747 458.30819463 -135.57042313 462.06501961 C-135.58908215 464.96988969 -135.5942566 467.8746733 -135.59578705 470.77959824 C-135.59880152 472.16462055 -135.60678911 473.54964179 -135.61997223 474.93460464 C-135.63711624 476.87226366 -135.63329563 478.81007341 -135.62866211 480.74780273 C-135.63230774 481.84730255 -135.63595337 482.94680237 -135.63970947 484.07962036 C-135.21305244 487.67566384 -134.1334978 490.08709404 -132.2722168 493.17700195 C-120.6408416 498.99268955 -106.2764896 494.17700195 -93.2722168 494.17700195 C-93.2722168 451.60700195 -93.2722168 409.03700195 -93.2722168 365.17700195 C-101.55201463 365.17700195 -109.86187353 373.76831959 -115.4753418 379.2512207 Z M146.7277832 365.17700195 C146.7277832 407.74700195 146.7277832 450.31700195 146.7277832 494.17700195 C158.9377832 494.17700195 171.1477832 494.17700195 183.7277832 494.17700195 C188.46218398 489.44260117 188.85046635 487.61568539 188.87304688 481.27539062 C188.87942673 480.05949753 188.88580658 478.84360443 188.89237976 477.59086609 C188.89349258 476.27222061 188.89460541 474.95357513 188.89575195 473.5949707 C188.89896891 472.22032131 188.90233331 470.84567225 188.90583801 469.47102356 C188.91183143 466.58174855 188.91367811 463.69250344 188.91308594 460.80322266 C188.91298525 457.14004855 188.92653838 453.4770724 188.94385815 449.81394482 C188.95511129 446.96793277 188.95700099 444.12196621 188.95647621 441.27593422 C188.95819913 439.28112467 188.96896966 437.28632933 188.98002625 435.29154968 C188.92492215 412.89322162 183.45633166 394.9439311 167.98168945 378.39575195 C163.01223969 373.50381527 154.05484361 365.17700195 146.7277832 365.17700195 Z "  transform="translate(229.272216796875,-0.177001953125)"></path>
  </symbol>
</svg>