<svg width="0" height="0" class="hidden">
  <symbol version="1.1" xmlns="http://www.w3.org/2000/svg" viewBox="0 0 512 512" id="icon-health">
    <path d="M0 0 C6.74072416 4.00585123 11.39527021 9.84181225 14.4375 17 C15.4275 16.505 16.4175 16.01 17.4375 15.5 C25.46378258 12.51513691 35.99725749 12.69597173 44 15.625 C52.48619751 19.69723572 58.14234732 25.95283458 61.48092461 34.7491684 C62.44873402 38.03817775 62.72384442 40.72017173 62.78567505 44.13830566 C62.81154694 45.34849365 62.83741882 46.55868164 62.86407471 47.80554199 C62.88202087 49.12074829 62.89996704 50.43595459 62.91845703 51.79101562 C62.94411341 53.20134566 62.97038505 54.61166461 62.9972229 56.02197266 C63.22993114 68.95600818 63.34262578 81.89309506 63.43075752 94.82883453 C63.49678341 104.35409375 63.61499792 113.87546909 63.80577958 123.39906549 C63.9359986 130.13414818 64.0020641 136.86819858 64.02425659 143.6044898 C64.03915073 147.60585742 64.07943964 151.60253812 64.19031143 155.60249329 C64.78950666 178.24103144 60.59157084 193.67265975 48.43020248 212.83566284 C45.441012 217.58238574 42.73329172 222.4783381 40 227.375 C38.95977363 229.19743745 37.91826306 231.01914297 36.875 232.83984375 C34.1863905 237.60172326 31.60853096 242.41495793 29.0625 247.25390625 C28.68471909 247.97102783 28.30693817 248.68814941 27.91770935 249.42700195 C26.0505296 252.9757245 24.19288631 256.52904589 22.34790039 260.08935547 C21.6605055 261.4021159 20.97293205 262.71478285 20.28515625 264.02734375 C19.68711182 265.17968506 19.08906738 266.33202637 18.47290039 267.51928711 C14.65260542 274.36267026 9.60299996 280.13172338 4.02075195 285.58032227 C3.41021973 286.18472137 2.7996875 286.78912048 2.1706543 287.41183472 C0.85844883 288.70984826 -0.45600794 290.00558922 -1.77252769 291.29922676 C-3.85871874 293.35032591 -5.9374765 295.40870071 -8.01435852 297.46922302 C-13.91551817 303.32173423 -19.8280078 309.16270072 -25.74926758 314.99487305 C-29.38272028 318.57467073 -33.00629599 322.16422525 -36.62403297 325.75990105 C-37.99932795 327.12281578 -39.37840189 328.48192852 -40.76135826 329.83706856 C-42.69481905 331.73195617 -44.61551155 333.63897925 -46.53393555 335.54907227 C-47.10281998 336.1004335 -47.67170441 336.65179474 -48.25782776 337.21986389 C-55.8756847 344.87552911 -56.68488157 353.59532834 -56.73828125 363.9765625 C-56.76145974 365.7161582 -56.78557624 367.4557416 -56.81054688 369.1953125 C-56.84575893 371.91870635 -56.87508154 374.64163964 -56.88842773 377.36523438 C-56.90388119 380.00706262 -56.94404214 382.64758014 -56.98828125 385.2890625 C-56.98637283 386.10267242 -56.98446442 386.91628235 -56.98249817 387.75454712 C-57.05294652 391.00609898 -57.20338169 393.43696129 -58.97453308 396.21383667 C-62.96707955 398.96941289 -66.75579846 398.55793637 -71.5 398.51757812 C-73.01279541 398.52809204 -73.01279541 398.52809204 -74.55615234 398.53881836 C-77.89188114 398.55643218 -81.22676248 398.5447631 -84.5625 398.53125 C-86.87890791 398.53394393 -89.19531472 398.53782551 -91.51171875 398.54284668 C-96.36729698 398.54874634 -101.22258096 398.54016338 -106.078125 398.52148438 C-112.30614646 398.49869496 -118.53347845 398.51181548 -124.76147461 398.53577423 C-129.54497485 398.55021932 -134.32831127 398.54563205 -139.11181641 398.53526306 C-141.40836671 398.53259223 -143.70493183 398.535878 -146.00146484 398.54518127 C-149.2097114 398.55532527 -152.41683706 398.53987483 -155.625 398.51757812 C-156.57681152 398.52567505 -157.52862305 398.53377197 -158.50927734 398.54211426 C-162.22725171 398.49417574 -164.83544955 398.3842254 -168.1502533 396.63244629 C-170.44200958 392.36058266 -170.12637985 388.13577273 -170.09594727 383.36328125 C-170.10456284 382.27981918 -170.11317841 381.19635712 -170.12205505 380.08006287 C-170.14479354 376.49063344 -170.13795721 372.9019804 -170.12890625 369.3125 C-170.13414116 366.8134742 -170.14041715 364.31445039 -170.14768982 361.81542969 C-170.15811074 356.56975019 -170.15384189 351.32427206 -170.13891602 346.07861328 C-170.12391653 340.70697918 -170.13081787 335.33593368 -170.15942383 329.96435547 C-170.19361409 323.46922186 -170.2030488 316.97455252 -170.1926403 310.4793396 C-170.19182344 308.01076313 -170.19863578 305.5421713 -170.21341133 303.07363892 C-170.35931518 274.26397697 -170.35931518 274.26397697 -159.3125 262.3125 C-158.83651367 261.77343018 -158.36052734 261.23436035 -157.87011719 260.67895508 C-154.27360206 256.6499704 -150.48694089 252.81724941 -146.6171875 249.05078125 C-144.01265194 246.45119728 -141.63665559 243.69014453 -139.2421875 240.8984375 C-137.0481559 238.41867156 -134.69746559 236.123473 -132.3359375 233.8046875 C-129.7511316 231.17433436 -127.35080219 228.39538237 -124.9453125 225.6015625 C-124.17679517 224.71147181 -123.39402881 223.83152881 -122.5625 223 C-122.46396578 220.40567988 -122.42949777 217.83722865 -122.43652344 215.24243164 C-122.4346553 214.42929504 -122.43278717 213.61615845 -122.43086243 212.77838135 C-122.42684748 211.00501384 -122.42478259 209.23164113 -122.42440033 207.45826912 C-122.42099124 203.68093821 -122.39962771 199.9037804 -122.37916946 196.12650967 C-122.34115253 189.08944525 -122.30987536 182.05255957 -122.31201172 175.01538086 C-122.31280197 170.12509249 -122.2892934 165.23542942 -122.2501297 160.34530449 C-122.2397078 158.48636122 -122.23811743 156.62734543 -122.24578094 154.76838875 C-122.32214084 134.17574351 -122.32214084 134.17574351 -114.58831787 125.88319397 C-106.90388465 118.52267751 -100.33389013 117.66803837 -90.0859375 117.69921875 C-86.75744298 117.98335853 -84.58969333 118.69712037 -81.5625 120 C-81.57360306 119.34569 -81.58470612 118.69138 -81.59614563 118.01724243 C-81.70726823 111.17097708 -81.78238616 104.32497037 -81.8371582 97.47802734 C-81.86221127 94.92714013 -81.89626328 92.37632405 -81.93969727 89.82568359 C-82.00075144 86.14663073 -82.02880348 82.46853179 -82.05078125 78.7890625 C-82.07658768 77.65949127 -82.1023941 76.52992004 -82.12898254 75.36611938 C-82.13193148 66.93003961 -80.41440256 60.18007929 -74.58760071 53.85684204 C-66.85133549 46.55117352 -60.35300362 45.66798021 -50.0859375 45.69921875 C-46.75744298 45.98335853 -44.58969333 46.69712037 -41.5625 48 C-41.58868408 47.1435791 -41.61486816 46.2871582 -41.6418457 45.40478516 C-41.72783938 42.18056635 -41.79011905 38.95693819 -41.8371582 35.73193359 C-41.86206805 34.34501736 -41.89601002 32.95822913 -41.93969727 31.57177734 C-42.24431158 21.64493429 -41.62015156 13.42666476 -34.5715332 5.86376953 C-25.42546526 -2.8805209 -11.65089452 -5.28936315 0 0 Z M-23.5625 20 C-26.36339684 25.86451425 -25.86533073 32.16455297 -25.86889648 38.51953125 C-25.87722 39.77873383 -25.88554352 41.0379364 -25.89411926 42.33529663 C-25.91598934 45.77739222 -25.92485238 49.21939904 -25.92994571 52.66155624 C-25.93359654 54.81414584 -25.93984019 56.96671242 -25.9469471 59.11929321 C-25.97141036 66.63455217 -25.98448784 74.14974234 -25.98803711 81.66503906 C-25.99167552 88.66231803 -26.02160023 95.65915925 -26.06344169 102.65630436 C-26.0981527 108.67262043 -26.11358564 114.68879135 -26.11428314 120.70520687 C-26.11507535 124.29483525 -26.12378787 127.88401668 -26.15228081 131.47354126 C-26.18334615 135.4761646 -26.17439826 139.4777445 -26.16186523 143.48046875 C-26.17669952 144.66506683 -26.19153381 145.84966492 -26.20681763 147.07015991 C-26.25668334 153.84826341 -26.25668334 153.84826341 -23.10707092 159.6027832 C-21.84750832 160.78940552 -21.84750832 160.78940552 -20.5625 162 C-19.25 164.875 -19.25 164.875 -18.5625 167 C-17.39626007 165.82855752 -16.23055552 164.65657847 -15.06714058 163.48233032 C-14.08000632 162.50983292 -13.0729778 161.55704301 -12.04548454 160.62728882 C-4.76960347 153.95138958 -0.96508464 147.72555354 -0.25524998 137.74645996 C-0.07196488 131.59480674 -0.1542823 125.46436539 -0.28515625 119.3125 C-0.29995291 116.63774668 -0.31028117 113.96332743 -0.31504822 111.28857422 C-0.33427193 105.71016776 -0.39756702 100.13376385 -0.49243164 94.55615234 C-0.6137693 87.41299247 -0.66558916 80.27112594 -0.69435978 73.12705994 C-0.72197483 66.29283632 -0.78386319 59.45896565 -0.84765625 52.625 C-0.85784349 51.32656158 -0.86803074 50.02812317 -0.87852669 48.69033813 C-0.91331685 45.01447224 -0.96887519 41.33954725 -1.03149414 37.6640625 C-1.03956085 36.58135574 -1.04762756 35.49864899 -1.05593872 34.38313293 C-1.20712408 27.29742294 -1.85481111 22.01713905 -6.75 16.5625 C-13.57005694 12.77357948 -18.51836635 14.47547267 -23.5625 20 Z M19.4375 35 C15.44014088 40.07772645 14.29293465 44.25396351 14.34657288 50.6138916 C14.35123566 51.51070648 14.35589844 52.40752136 14.36070251 53.33151245 C14.3706575 54.30299225 14.38061249 55.27447205 14.39086914 56.27539062 C14.40364227 58.41670549 14.41608295 60.55802236 14.42823792 62.69934082 C14.44011233 64.39873558 14.44011233 64.39873558 14.45222664 66.13246155 C14.49445023 73.41537043 14.48249851 80.69844519 14.48233891 87.98145294 C14.48533332 94.37183255 14.50597012 100.76123536 14.56420898 107.15136719 C14.6195829 113.34327657 14.62577286 119.53355095 14.59951591 125.72563171 C14.59828651 128.07620501 14.61462284 130.42686003 14.64943123 132.7771759 C14.82905679 145.58534391 14.95448657 154.99611103 5.87680054 164.65028381 C5.07183136 165.42569016 4.26686218 166.2010965 3.4375 167 C2.41423685 168.26039547 1.41051432 169.53734855 0.44140625 170.83984375 C-0.36425781 171.86207031 -1.16992188 172.88429688 -2 173.9375 C-2.92580024 175.1132663 -3.85158091 176.28904801 -4.77734375 177.46484375 C-5.23737793 178.04862793 -5.69741211 178.63241211 -6.17138672 179.23388672 C-8.47124237 182.15371048 -10.76665945 185.07701893 -13.0625 188 C-13.9791451 189.16668361 -14.89581177 190.33335027 -15.8125 191.5 C-16.26625 192.0775 -16.72 192.655 -17.1875 193.25 C-29.5625 209 -41.9375 224.75 -54.3125 240.5 C-54.9940918 241.36782104 -54.9940918 241.36782104 -55.68945312 242.25317383 C-56.59871696 243.40996308 -57.50886171 244.56606051 -58.41992188 245.72143555 C-60.83284144 248.78388744 -63.2255901 251.85979911 -65.59375 254.95703125 C-66.09068359 255.60220703 -66.58761719 256.24738281 -67.09960938 256.91210938 C-68.05449066 258.15256263 -69.00397726 259.39719274 -69.94726562 260.64648438 C-73.22511341 264.8875378 -73.22511341 264.8875378 -76.5625 266 C-78.97265625 264.34765625 -78.97265625 264.34765625 -81.625 262.0625 C-84.69154155 259.02941105 -84.69154155 259.02941105 -88.5625 258 C-82.08522325 249.54160389 -75.54755294 241.13383426 -68.95361328 232.76611328 C-66.65375763 229.84628952 -64.35834055 226.92298107 -62.0625 224 C-61.1458549 222.83331639 -60.22918823 221.66664973 -59.3125 220.5 C-58.85875 219.9225 -58.405 219.345 -57.9375 218.75 C-55.875 216.125 -55.875 216.125 -53.8125 213.5 C-53.35794434 212.92145264 -52.90338867 212.34290527 -52.43505859 211.74682617 C-51.52661636 210.59067103 -50.61808897 209.43458279 -49.70947266 208.27856445 C-47.29123719 205.20164025 -44.87487739 202.12326447 -42.4609375 199.04296875 C-41.95498047 198.39779297 -41.44902344 197.75261719 -40.92773438 197.08789062 C-39.95193441 195.84352187 -38.97665388 194.59874557 -38.00195312 193.35351562 C-34.6749622 189.1124622 -34.6749622 189.1124622 -33.5625 188 C-33.40922386 185.77454838 -33.34046926 183.54304841 -33.3125 181.3125 C-33.28671875 180.09175781 -33.2609375 178.87101563 -33.234375 177.61328125 C-33.59098429 173.68633373 -34.47316112 171.32327784 -36.5625 168 C-39.3125 166.25 -39.3125 166.25 -42.5625 166 C-48.27272518 168.10801807 -51.59866929 171.8387159 -55.5625 176.25 C-56.8944719 177.70187737 -58.22650454 179.15369902 -59.55859375 180.60546875 C-60.22745605 181.34071777 -60.89631836 182.0759668 -61.58544922 182.83349609 C-64.56966953 186.10368269 -67.59822024 189.33176396 -70.625 192.5625 C-71.78287687 193.80308236 -72.94042885 195.04396803 -74.09765625 196.28515625 C-77.58498827 200.02432382 -81.07364496 203.76225353 -84.5625 207.5 C-85.72917246 208.74999459 -86.89583913 209.99999459 -88.0625 211.25 C-123.0625 248.75 -123.0625 248.75 -124.81494141 250.62719727 C-125.97402765 251.86935297 -127.13256229 253.11202364 -128.29052734 254.35522461 C-131.31870527 257.60482045 -134.35776842 260.84322344 -137.4140625 264.06640625 C-138.04570312 264.73542969 -138.67734375 265.40445313 -139.328125 266.09375 C-140.53030309 267.36664444 -141.73581454 268.63640255 -142.9453125 269.90234375 C-151.7974334 279.29728338 -153.90169617 287.77840939 -153.78955078 300.48876953 C-153.78984283 301.37780472 -153.79013489 302.2668399 -153.79043579 303.18281555 C-153.78905709 306.08291845 -153.77356561 308.98275522 -153.7578125 311.8828125 C-153.75407717 313.90876119 -153.75123265 315.93471169 -153.74923706 317.96066284 C-153.74164158 323.26408982 -153.72202861 328.56740531 -153.6998291 333.87078857 C-153.67566257 340.24943743 -153.66657022 346.62812378 -153.65492249 353.00680542 C-153.63560153 362.67128089 -153.59725046 372.33551227 -153.5625 382 C-127.1625 382 -100.7625 382 -73.5625 382 C-73.2325 370.12 -72.9025 358.24 -72.5625 346 C-67.3440662 331.64930704 -59.59523366 323.76381356 -48.87818718 313.50157547 C-45.53440402 310.29031458 -42.22456217 307.04421897 -38.90820312 303.8046875 C-34.72872169 299.72601793 -30.54088173 295.65735561 -26.31665039 291.625 C-9.36525088 275.42073327 4.30066255 260.54501281 14.01593018 239.02230835 C16.3300336 234.10244161 19.070335 229.44030092 21.8125 224.75 C28.11650968 213.73174772 34.05573789 202.52845126 39.96630859 191.29589844 C40.32274445 190.61979523 40.6791803 189.94369202 41.04641724 189.24710083 C41.72074681 187.96731677 42.39340627 186.68665095 43.06417847 185.40499878 C45.32597628 181.11152372 45.32597628 181.11152372 46.4375 180 C46.54028238 178.28682501 46.57270869 176.56939688 46.57794189 174.85314941 C46.58365204 173.73728455 46.58936218 172.62141968 46.59524536 171.47174072 C46.59636322 170.23647644 46.59748108 169.00121216 46.59863281 167.72851562 C46.60359772 166.43584778 46.60856262 165.14317993 46.61367798 163.81134033 C46.62683058 160.25305802 46.63325355 156.69479461 46.63768864 153.13649178 C46.64061736 150.9120521 46.64472199 148.68761761 46.64919281 146.46318054 C46.66288098 139.50010657 46.67253874 132.53704442 46.6763947 125.57395792 C46.68086597 117.54377164 46.6983648 109.51375638 46.7273953 101.48362207 C46.74905958 95.27459191 46.75910166 89.06560965 46.76043582 82.85654211 C46.76148131 79.15004759 46.76733316 75.44371353 46.78525543 71.73725891 C46.80489916 67.5936154 46.8004283 63.45032567 46.79394531 59.30664062 C46.80776749 57.47803497 46.80776749 57.47803497 46.8218689 55.61248779 C46.83222862 44.76470197 46.83222862 44.76470197 41.98552322 35.38401031 C37.24981601 31.3143592 34.03864849 30.6440413 27.9765625 30.72265625 C24.21289598 31.13376444 22.21959813 32.4828636 19.4375 35 Z M-63.5625 68 C-65.73540595 72.9741144 -65.83729494 77.43881324 -65.78955078 82.75927734 C-65.78984283 83.61846771 -65.79013489 84.47765808 -65.79043579 85.36288452 C-65.78904853 88.1873402 -65.77351584 91.01152821 -65.7578125 93.8359375 C-65.75408022 95.80034237 -65.75123426 97.7647491 -65.74923706 99.72915649 C-65.74161753 104.88797181 -65.72198345 110.04667369 -65.6998291 115.20544434 C-65.67933447 120.47418687 -65.67022761 125.74294781 -65.66015625 131.01171875 C-65.63873599 141.34119554 -65.60462032 151.67058832 -65.5625 162 C-65.0890918 161.59297852 -64.61568359 161.18595703 -64.12792969 160.76660156 C-63.19062012 159.96174316 -63.19062012 159.96174316 -62.234375 159.140625 C-61.6165918 158.60985352 -60.99880859 158.07908203 -60.36230469 157.53222656 C-55.94200778 153.76909805 -52.58522759 151.85337898 -46.859375 150.890625 C-45.86776367 150.72079102 -44.87615234 150.55095703 -43.85449219 150.37597656 C-43.09813477 150.2519043 -42.34177734 150.12783203 -41.5625 150 C-41.49287765 140.21177164 -41.43962667 130.42360255 -41.40706348 120.63517666 C-41.3914319 116.08962166 -41.37023959 111.54423654 -41.33618164 106.9987793 C-41.30349854 102.60916037 -41.28562813 98.21970447 -41.27786827 93.82997322 C-41.2723408 92.15828957 -41.26154699 90.48661447 -41.24530983 88.81500053 C-41.22341615 86.46688686 -41.22053799 84.11944015 -41.22192383 81.77124023 C-41.211138 81.08575104 -41.20035217 80.40026184 -41.1892395 79.69400024 C-41.22747177 73.67640939 -42.69331859 69.08280214 -46.75 64.5625 C-53.57005694 60.77357948 -58.51836635 62.47547267 -63.5625 68 Z M-103.5625 140 C-105.26587619 144.14576059 -105.80870241 147.6348391 -105.78955078 152.09716797 C-105.78939972 153.27793915 -105.78924866 154.45871033 -105.78909302 155.67526245 C-105.77877045 156.93484772 -105.76844788 158.19443298 -105.7578125 159.4921875 C-105.7549826 160.79326447 -105.75215271 162.09434143 -105.74923706 163.43484497 C-105.74163675 166.8773582 -105.72201973 170.31970003 -105.6998291 173.762146 C-105.67929261 177.28151125 -105.67021873 180.80090447 -105.66015625 184.3203125 C-105.63877002 191.21361163 -105.6046781 198.10679757 -105.5625 205 C-104.80187256 204.23864746 -104.04124512 203.47729492 -103.25756836 202.69287109 C-101.32411677 200.76099583 -99.386887 198.83376017 -97.44140625 196.9140625 C-96.33590506 195.81774104 -95.23043677 194.72138641 -94.125 193.625 C-93.57779297 193.08617187 -93.03058594 192.54734375 -92.46679688 191.9921875 C-91.36080746 190.8927424 -90.26970421 189.77812988 -89.19360352 188.64941406 C-87.5625 187 -87.5625 187 -85.83569336 185.62402344 C-82.09148578 182.27192884 -81.21579074 179.31990961 -80.92442322 174.30288696 C-80.8511014 171.30854564 -80.87198501 168.32428079 -80.94506836 165.33007812 C-80.99987022 163.00550478 -81.00659643 160.68452761 -81.00585938 158.359375 C-81.02060933 156.86455275 -81.03809628 155.36975449 -81.05859375 153.875 C-81.06193222 153.18937988 -81.06527069 152.50375977 -81.06871033 151.79736328 C-81.24409858 145.77150089 -82.68114533 141.09636663 -86.75 136.5625 C-93.57005694 132.77357948 -98.51836635 134.47547267 -103.5625 140 Z "  transform="translate(441.5625,106)"></path>
    <path d="M0 0 C7.0788829 4.21872819 11.85572123 10.17259922 14.4375 18 C14.77807617 21.54858398 14.77807617 21.54858398 14.73046875 25.24609375 C14.72622391 25.90207047 14.72197906 26.55804718 14.71760559 27.23390198 C14.70098779 29.30220911 14.66337238 31.36949401 14.625 33.4375 C14.60993111 34.85089725 14.59624659 36.26430998 14.58398438 37.67773438 C14.55114104 41.11881435 14.49948015 44.55930719 14.4375 48 C15.19200439 47.67765381 15.94650879 47.35530762 16.72387695 47.02319336 C22.97525786 44.66605999 31.01032619 45.02662831 37.39453125 46.83984375 C44.97836419 50.2997491 50.57567876 56.03720731 53.80143738 63.74932861 C55.1562941 68.54341202 54.79728665 73.55480714 54.73046875 78.49609375 C54.72622391 79.68477554 54.72197906 80.87345734 54.71760559 82.09815979 C54.70087251 85.87817457 54.6632289 89.65764755 54.625 93.4375 C54.60994628 96.00715373 54.59625908 98.57681586 54.58398438 101.14648438 C54.55098648 107.43117305 54.50084004 113.71554781 54.4375 120 C55.19200439 119.67765381 55.94650879 119.35530762 56.72387695 119.02319336 C62.97525786 116.66605999 71.01032619 117.02662831 77.39453125 118.83984375 C85.17808647 122.39086664 90.50477677 128.12796097 93.79975128 135.99842834 C94.90784914 139.47618879 94.81812446 142.86557111 94.75878906 146.48632812 C94.75773666 147.30515976 94.75668427 148.12399139 94.75559998 148.96763611 C94.75200963 150.73438378 94.74191049 152.50112797 94.72592926 154.26780701 C94.70282061 157.06813617 94.70182233 159.86767961 94.70721436 162.66809082 C94.719854 170.62577032 94.70285375 178.58302794 94.64697266 186.54052734 C94.61427277 191.41831334 94.61558048 196.2951289 94.63799286 201.17295837 C94.6397375 203.02607063 94.62852145 204.87924363 94.60388947 206.73219299 C94.12948252 216.54876519 94.12948252 216.54876519 96.97998047 225.65380859 C98.71357129 227.40087641 100.36787792 228.68680806 102.4375 230 C103.62269877 231.31688753 104.79413631 232.64663074 105.9375 234 C108.1830794 236.60647609 110.48301512 239.08934521 112.9375 241.5 C116.03394033 244.54114676 118.86546795 247.75128561 121.69140625 251.04296875 C123.34642931 252.89792748 125.0736607 254.60102343 126.875 256.3125 C136.5239835 265.89628766 142.81600002 276.62639193 142.97961426 290.43185425 C142.97151733 291.43330475 142.96342041 292.43475525 142.95507812 293.46655273 C142.9620874 294.55413376 142.96909668 295.64171478 142.97631836 296.76225281 C142.9937759 300.31963405 142.98232452 303.87620593 142.96875 307.43359375 C142.97144705 309.91935884 142.97533124 312.4051229 142.98034668 314.8908844 C142.98622396 320.08124918 142.97773045 325.27133742 142.95898438 330.46166992 C142.9406726 335.79162134 142.93968702 341.12101805 142.95898438 346.45092773 C142.98213826 352.9021945 142.98582576 359.35313592 142.97276306 365.80443001 C142.97009363 368.26007221 142.97337309 370.71572828 142.98268127 373.17135429 C142.99281697 376.59434952 142.97738989 380.01629238 142.95507812 383.43920898 C142.96317505 384.4548291 142.97127197 385.47044922 142.97961426 386.5168457 C142.93263006 390.39906188 142.87908209 393.1777916 141.02624512 396.62770081 C136.94470818 398.79133206 133.05224451 398.55630341 128.5 398.51757812 C126.98720459 398.52809204 126.98720459 398.52809204 125.44384766 398.53881836 C122.10811886 398.55643218 118.77323752 398.5447631 115.4375 398.53125 C113.12109209 398.53394393 110.80468528 398.53782551 108.48828125 398.54284668 C103.63270302 398.54874634 98.77741904 398.54016338 93.921875 398.52148438 C87.69385354 398.49869496 81.46652155 398.51181548 75.23852539 398.53577423 C70.45502515 398.55021932 65.67168873 398.54563205 60.88818359 398.53526306 C58.59163329 398.53259223 56.29506817 398.535878 53.99853516 398.54518127 C50.7902886 398.55532527 47.58316294 398.53987483 44.375 398.51757812 C43.42318848 398.52567505 42.47137695 398.53377197 41.49072266 398.54211426 C35.10277733 398.45974989 35.10277733 398.45974989 31.84854126 396.21086121 C29.66546278 392.79034923 29.87378826 389.3233785 29.8984375 385.39453125 C29.88664459 384.55589035 29.87485168 383.71724945 29.86270142 382.85319519 C29.82744318 380.17277559 29.81827982 377.49313234 29.8125 374.8125 C29.796072 372.14995626 29.77379323 369.48775547 29.74087524 366.82536316 C29.72150166 365.17140973 29.71188197 363.51730107 29.71395874 361.86323547 C29.62306155 351.84185321 27.87153809 344.38035549 20.6210022 337.02374268 C19.52941903 335.96257163 18.43227157 334.90710394 17.33056641 333.85644531 C16.08221128 332.64743459 14.8338914 331.43838747 13.58560181 330.22930908 C12.92703815 329.59520363 12.2684745 328.96109818 11.58995438 328.3077774 C8.04766063 324.88852824 4.53656343 321.43738069 1.01953125 317.9921875 C-3.43143863 313.63615356 -7.89024257 309.2892513 -12.38232422 304.97558594 C-29.1182545 288.88484766 -43.80447605 274.27640075 -53.26719666 252.79797363 C-55.49504817 247.98561071 -58.1965955 243.44714152 -60.875 238.875 C-67.05756422 228.03560614 -72.91816124 217.03566239 -78.73950195 205.99951172 C-79.08874222 205.33779968 -79.43798248 204.67608765 -79.79780579 203.99432373 C-82.43315855 198.99730271 -82.43315855 198.99730271 -83.55452824 196.81871319 C-84.54297099 194.96293511 -84.54297099 194.96293511 -85.82174587 193.18822193 C-90.3811315 186.25370721 -90.26714067 179.62400549 -90.19360352 171.55102539 C-90.19875034 170.1078046 -90.20603736 168.66459011 -90.21528625 167.22138977 C-90.23371348 163.32444194 -90.22091669 159.42818321 -90.20119596 155.53126454 C-90.18473266 151.43867737 -90.19363313 147.34613121 -90.19871521 143.25352478 C-90.20322815 136.38155192 -90.18741747 129.50985194 -90.15942383 122.63793945 C-90.12738821 114.71311073 -90.12738529 106.78877435 -90.1446386 98.86391073 C-90.16054953 91.21629913 -90.15374005 83.5688666 -90.13670158 75.92126274 C-90.12986075 72.67786275 -90.13083285 69.43460759 -90.13824654 66.19120979 C-90.14595596 62.36520698 -90.13363329 58.53975857 -90.10639763 54.71385002 C-90.09956065 53.31674723 -90.099365 51.91959218 -90.10661316 50.52249146 C-90.15591239 39.77459857 -88.82631481 30.62653404 -81.265625 22.53125 C-74.35129831 16.3146994 -66.98175225 13.617089 -57.6875 13.6875 C-56.98367187 13.68878906 -56.27984375 13.69007812 -55.5546875 13.69140625 C-50.23484273 13.78992189 -46.2896694 14.6364153 -41.5625 17 C-41.21058594 16.34773438 -40.85867187 15.69546875 -40.49609375 15.0234375 C-32.08927786 0.14139789 -16.79741833 -7.62582182 0 0 Z M-23.5625 20 C-26.16955004 25.63787299 -25.92154624 31.44391261 -25.99584961 37.53466797 C-26.01702347 38.69002548 -26.03819733 39.845383 -26.06001282 41.03575134 C-26.24090014 51.68695996 -26.33432927 62.34055443 -26.40032101 72.99311638 C-26.44965411 80.84698864 -26.54210717 88.69767621 -26.69423288 96.55024803 C-26.79794669 102.09534316 -26.85058311 107.63958699 -26.8669911 113.18561852 C-26.87810917 116.48652882 -26.91714665 119.78296489 -26.99812126 123.083004 C-27.32392115 137.10289249 -27.39118444 147.71929333 -17.47038937 158.37791252 C-15.8718864 159.96610522 -14.23314116 161.48845212 -12.5625 163 C-11.22649105 164.33065233 -9.89175994 165.66260568 -8.5625 167 C-8.18158203 166.18595703 -8.18158203 166.18595703 -7.79296875 165.35546875 C-7.44878906 164.64003906 -7.10460937 163.92460937 -6.75 163.1875 C-6.24533203 162.12595703 -6.24533203 162.12595703 -5.73046875 161.04296875 C-4.5625 159 -4.5625 159 -3.01331139 157.7003746 C-1.00639497 155.34823584 -1.18521277 153.81786404 -1.18154907 150.7510376 C-1.1730896 149.6631897 -1.16463013 148.5753418 -1.15591431 147.45452881 C-1.161987 146.26071594 -1.16805969 145.06690308 -1.17431641 143.83691406 C-1.16905945 142.57975586 -1.16380249 141.32259766 -1.15838623 140.02734375 C-1.14469463 136.57666023 -1.15002017 133.12624544 -1.15952349 129.67555714 C-1.16711724 126.06199734 -1.16007465 122.4484606 -1.15536499 118.8348999 C-1.1499038 112.76196159 -1.1571056 106.68913264 -1.17138672 100.61621094 C-1.18768464 93.60491455 -1.18244716 86.59388028 -1.1659075 79.58259034 C-1.15226781 73.55866837 -1.15038596 67.53482507 -1.15822351 61.51089263 C-1.16289021 57.91517965 -1.16355324 54.31958957 -1.15361404 50.72388458 C-1.1432931 46.70932159 -1.1576222 42.69520559 -1.17431641 38.68066406 C-1.16824371 37.49494812 -1.16217102 36.30923218 -1.15591431 35.08758545 C-1.2129109 27.68209975 -1.6304469 22.26714489 -6.75 16.5625 C-13.57005694 12.77357948 -18.51836635 14.47547267 -23.5625 20 Z M-68.5625 35 C-72.81930882 40.4072977 -73.65750112 44.79862774 -73.77023315 51.53366089 C-73.7903949 52.63479218 -73.81055664 53.73592346 -73.83132935 54.87042236 C-73.84815765 56.06931091 -73.86498596 57.26819946 -73.88232422 58.50341797 C-73.90335205 59.77418182 -73.92437988 61.04494568 -73.94604492 62.35421753 C-74.13433337 74.11305298 -74.23684106 85.87326081 -74.31818962 97.63326836 C-74.37393353 105.51936055 -74.45395706 113.4035574 -74.59814453 121.28857422 C-74.72431986 128.18873905 -74.80274471 135.08759486 -74.82632077 141.9889003 C-74.84022385 145.62903687 -74.87532204 149.26571673 -74.967556 152.90478134 C-75.42488461 171.74421409 -72.99785773 184.97604668 -62.12634277 200.66800308 C-59.81430611 204.11570414 -57.91612424 207.74438995 -56.03125 211.4375 C-55.36667716 212.70371203 -54.70113944 213.96941862 -54.03417969 215.234375 C-53.71203491 215.84990234 -53.38989014 216.46542969 -53.0579834 217.09960938 C-47.61973219 227.48130095 -42.08471609 237.79950638 -36.3125 248 C-35.80009766 248.90621094 -35.28769531 249.81242188 -34.75976562 250.74609375 C-33.37568347 253.17424322 -31.98934923 255.59668878 -30.5625 258 C-30.22501582 258.58353524 -29.88753164 259.16707048 -29.53982067 259.76828861 C-26.64258394 264.62066168 -23.44146175 268.52744898 -19.39868164 272.45678711 C-18.50496101 273.34393654 -18.50496101 273.34393654 -17.59318542 274.24900818 C-16.31050198 275.52035798 -15.02436735 276.78823373 -13.73509407 278.05290031 C-11.6884719 280.0608827 -9.65167555 282.07839284 -7.61705017 284.098526 C-2.56333545 289.11234097 2.50659234 294.10965712 7.57611084 299.10748291 C11.86688616 303.3388183 16.15129632 307.57641184 20.42764473 311.82232857 C22.42334651 313.79874747 24.42794165 315.76582367 26.43309021 317.73265076 C46.99072121 338.02906465 45.49595264 348.10429509 46.4375 382 C72.8375 382 99.2375 382 126.4375 382 C126.49572479 366.07031954 126.49572479 366.07031954 126.53515625 350.140625 C126.54708624 343.63831292 126.56116096 337.13605747 126.58837891 330.63378906 C126.6101973 325.3882981 126.62208755 320.14286791 126.62725449 314.89733505 C126.63093413 312.90159016 126.63811937 310.90584839 126.64896011 308.91012955 C126.66359472 306.10293786 126.66547297 303.29599356 126.66455078 300.48876953 C126.67533661 299.26632286 126.67533661 299.26632286 126.68634033 298.0191803 C126.64274869 285.66094918 123.71971609 278.20007709 115 269.5 C114.41347656 268.9328125 113.82695312 268.365625 113.22265625 267.78125 C111.36302199 265.92568497 109.64975861 263.99188921 107.9375 262 C105.6919206 259.39352391 103.39198488 256.91065479 100.9375 254.5 C97.84393357 251.46167583 95.01644493 248.2523468 92.1875 244.96875 C90.49951714 243.06976929 88.74980266 241.27994012 86.9375 239.5 C83.84393357 236.46167583 81.01644493 233.2523468 78.1875 229.96875 C76.49951714 228.06976929 74.74980266 226.27994012 72.9375 224.5 C69.84393357 221.46167583 67.01644493 218.2523468 64.1875 214.96875 C62.49951714 213.06976929 60.74980266 211.27994012 58.9375 209.5 C55.84393357 206.46167583 53.01644493 203.2523468 50.1875 199.96875 C48.49951714 198.06976929 46.74980266 196.27994012 44.9375 194.5 C41.84393357 191.46167583 39.01644493 188.2523468 36.1875 184.96875 C33.96157883 182.46458868 31.59162593 180.1365655 29.19140625 177.80078125 C27.29341013 175.85205918 25.59921527 173.79066368 23.875 171.6875 C21.01348231 168.40441943 18.94157795 166.47915723 14.4375 166 C10.94456151 167.1419222 9.00907678 167.87669285 7.3125 171.2109375 C5.54037345 176.85959088 5.35503153 182.18559794 6.4375 188 C8.77646448 191.92740409 11.75137285 195.04085171 14.89746094 198.31298828 C17.75062119 201.43843808 20.22008784 204.86216075 22.75 208.25 C27.62407742 214.69373224 32.64140411 220.99839177 37.76171875 227.24755859 C41.99434033 232.42376643 46.08807183 237.69082926 50.13671875 243.01171875 C53.02597812 246.76432217 56.01847379 250.42682804 59.0390625 254.07421875 C60.4375 256 60.4375 256 60.4375 258 C58.655371 259.44074715 56.81089724 260.80510649 54.9375 262.125 C53.40609375 263.21167969 53.40609375 263.21167969 51.84375 264.3203125 C51.0496875 264.87460937 50.255625 265.42890625 49.4375 266 C45.17175247 264.45601713 43.00391788 261.24766948 40.375 257.75 C39.394733 256.47380334 38.4142585 255.19776605 37.43359375 253.921875 C36.93585449 253.26896484 36.43811523 252.61605469 35.92529297 251.94335938 C33.62531426 248.93912069 31.28070496 245.97055611 28.9375 243 C28.02058859 241.83352568 27.10392262 240.66685838 26.1875 239.5 C25.73375 238.9225 25.28 238.345 24.8125 237.75 C12.4375 222 0.0625 206.25 -12.3125 190.5 C-12.76641113 189.92233887 -13.22032227 189.34467773 -13.68798828 188.74951172 C-14.60319993 187.58460823 -15.51823944 186.41956947 -16.43310547 185.25439453 C-18.74563021 182.30960955 -21.06124234 179.36734815 -23.3828125 176.4296875 C-23.85267578 175.83414063 -24.32253906 175.23859375 -24.80664062 174.625 C-26.09150775 172.99665354 -27.37773059 171.36937708 -28.6640625 169.7421875 C-29.09811401 169.15712936 -29.53216553 168.57207123 -29.97937012 167.96928406 C-31.57984098 165.8924218 -31.57984098 165.8924218 -33.77941895 163.87019348 C-43.1121587 153.86988943 -41.75186101 142.51563797 -41.5546875 129.51953125 C-41.55271999 127.13685571 -41.55516421 124.75417285 -41.5617981 122.37150574 C-41.56939706 116.12572607 -41.52609717 109.88141142 -41.46917725 103.63592529 C-41.38629072 93.63156982 -41.37985498 83.62693121 -41.37613297 73.62228966 C-41.3673355 70.14060201 -41.33594146 66.65968849 -41.30099487 63.17817688 C-41.29115486 61.03390723 -41.28178163 58.88963537 -41.27294922 56.74536133 C-41.25737473 55.78669159 -41.24180023 54.82802185 -41.22575378 53.84030151 C-41.22246038 47.48435664 -41.5774188 40.34223859 -46.01473808 35.37400532 C-50.76358477 31.32190639 -53.95823232 30.64400085 -60.0234375 30.72265625 C-63.78710402 31.13376444 -65.78040187 32.4828636 -68.5625 35 Z M16.4375 68 C14.49192952 72.57019819 14.15932125 76.75802247 14.21044922 81.65771484 C14.21015717 82.39986237 14.20986511 83.14200989 14.20956421 83.90664673 C14.21094928 86.34153235 14.22647129 88.77610582 14.2421875 91.2109375 C14.24592056 92.90629916 14.24876615 94.60166299 14.25076294 96.29702759 C14.2583763 100.74564638 14.27800495 105.19413328 14.3001709 109.6427002 C14.32067893 114.18756324 14.32977524 118.73244771 14.33984375 123.27734375 C14.3612531 132.18495358 14.39536118 141.0924658 14.4375 150 C15.57203613 150.1861084 15.57203613 150.1861084 16.72949219 150.37597656 C18.21690918 150.63072754 18.21690918 150.63072754 19.734375 150.890625 C20.71760742 151.05594727 21.70083984 151.22126953 22.71386719 151.39160156 C27.86923876 152.54319586 31.21501165 155.79476353 35.109375 159.140625 C36.04668457 159.9454834 36.04668457 159.9454834 37.00292969 160.76660156 C37.47633789 161.17362305 37.94974609 161.58064453 38.4375 162 C38.50708221 150.64715953 38.56035311 139.29436999 38.59293652 127.94135952 C38.60857676 122.66940707 38.62978521 117.39760077 38.66381836 112.12573242 C38.69647012 107.03585948 38.71436536 101.94612692 38.72213173 96.8561573 C38.72766478 94.91653293 38.73846949 92.97691604 38.75469017 91.03735161 C38.7765417 88.31566784 38.77946369 85.59456044 38.77807617 82.87280273 C38.788862 82.07510468 38.79964783 81.27740662 38.8107605 80.45553589 C38.77613569 74.15800658 37.57612648 69.38304093 33.25 64.5625 C26.42994306 60.77357948 21.48163365 62.47547267 16.4375 68 Z M56.4375 140 C51.89363801 151.01908841 51.84987861 168.29049341 54.4375 180 C57.2855947 186.33904211 62.12335172 190.44868616 67.59082031 194.55126953 C70.21505066 196.60999281 72.18243333 198.9368978 74.3125 201.5 C75.33362777 202.68468503 76.36695502 203.85977458 77.4375 205 C77.7675 205 78.0975 205 78.4375 205 C78.5072076 197.42832194 78.56041623 189.85667744 78.59293652 182.28475094 C78.60854978 178.76825002 78.62970765 175.2519697 78.66381836 171.7355957 C78.70284335 167.68699095 78.71724501 163.63861561 78.73046875 159.58984375 C78.74595261 158.33541977 78.76143646 157.08099579 78.77738953 155.78855896 C78.778867 148.08999375 78.57311323 142.49396903 73.25 136.5625 C66.42994306 132.77357948 61.48163365 134.47547267 56.4375 140 Z "  transform="translate(97.5625,106)"></path>
    <path d="M0 0 C1.47910579 1.19748182 2.92712974 2.43305804 4.37304688 3.67041016 C6.86471927 5.50841681 6.86471927 5.50841681 9.49414062 4.70947266 C12.34469359 2.98577891 14.84955574 1.05353187 17.43164062 -1.05224609 C33.51748835 -13.35435377 52.54606283 -15.97957168 72.30664062 -13.51367188 C90.07534641 -10.37975005 105.60255118 0.40240284 115.92382812 14.95947266 C124.30608976 28.0705951 128.58869672 40.76740596 128.49414062 56.44775391 C128.48987061 57.53386963 128.48560059 58.61998535 128.48120117 59.73901367 C128.28701202 68.98804391 126.61405897 76.72794497 122.99414062 85.19775391 C122.61 86.13490234 122.22585938 87.07205078 121.83007812 88.03759766 C115.95468833 101.00742071 104.88427862 111.11334991 94.24023438 120.23681641 C91.35758842 122.75349165 88.55117047 125.34732869 85.74414062 127.94775391 C85.18839355 128.46233154 84.63264648 128.97690918 84.06005859 129.50708008 C82.92844764 130.55506723 81.79693752 131.60316328 80.66552734 132.65136719 C73.67778226 139.11651141 66.64169463 145.5268721 59.55664062 151.88525391 C56.68813653 154.47390394 53.83937412 157.08360536 50.99414062 159.69775391 C46.54006271 163.7900793 42.05759366 167.84889999 37.55273438 171.88525391 C35.21203024 174.00082161 32.89489042 176.13996023 30.58227539 178.28613281 C26.14931906 182.38780564 21.66594382 186.41971491 17.05664062 190.32275391 C15.77466797 191.40943359 15.77466797 191.40943359 14.46679688 192.51806641 C11.76292594 194.35481918 10.25953734 195.10801781 6.99414062 195.19775391 C1.25985649 193.19631401 -2.61609062 189.09879549 -6.88085938 184.94775391 C-8.23112147 183.64952503 -9.58268283 182.35264611 -10.93554688 181.05712891 C-11.60602051 180.41469238 -12.27649414 179.77225586 -12.96728516 179.11035156 C-15.62252836 176.61919285 -18.3612162 174.23376621 -21.11279297 171.85009766 C-23.92219641 169.39793845 -26.65188336 166.8636426 -29.38085938 164.32275391 C-33.23109293 160.75261817 -37.09465412 157.20127653 -41.00585938 153.69775391 C-44.87248505 150.23285558 -48.69599724 146.72470823 -52.50585938 143.19775391 C-57.12936039 138.91797767 -61.78678325 134.68016735 -66.47851562 130.47509766 C-69.8508448 127.43635282 -73.19291767 124.36502314 -76.53417969 121.29223633 C-79.77243128 118.3175755 -83.0373118 115.3753047 -86.31835938 112.44775391 C-87.88145469 111.03174411 -89.44401059 109.61513849 -91.00585938 108.19775391 C-91.63105469 107.65119141 -92.25625 107.10462891 -92.90039062 106.54150391 C-105.91915696 94.55130828 -112.07040035 76.76210906 -112.96289062 59.43164062 C-113.33061457 40.31417433 -107.15385463 21.16555061 -93.91992188 7.05712891 C-68.52241412 -17.61473577 -28.59246458 -22.40543968 0 0 Z M-82.09179688 19.77197266 C-93.29412866 33.96921355 -96.59152097 48.3965968 -95.00585938 66.19775391 C-92.22447449 81.61322606 -83.03775076 93.28027809 -71.33007812 103.19384766 C-68.3644048 105.75080634 -65.50006261 108.40855305 -62.63085938 111.07275391 C-57.96695679 115.39578657 -53.26890897 119.67592826 -48.53320312 123.92041016 C-45.67503734 126.49585166 -42.83875676 129.09461154 -40.00585938 131.69775391 C-36.35658766 135.05068508 -32.6941634 138.38773747 -29.00585938 141.69775391 C-25.31755418 145.00777138 -21.65522528 148.34492432 -18.00585938 151.69775391 C-9.74773198 159.28228544 -1.39618876 166.75994984 6.99414062 174.19775391 C11.08599275 172.54717588 13.97289792 169.62601234 17.11914062 166.63525391 C18.28662789 165.54098998 19.45460088 164.44724405 20.62304688 163.35400391 C21.19684082 162.81517578 21.77063477 162.27634766 22.36181641 161.72119141 C24.56718812 159.66293243 26.80846715 157.64658577 29.05664062 155.63525391 C32.72521016 152.3472167 36.3666824 149.03101625 39.99414062 145.69775391 C44.4474668 141.60606183 48.93073951 137.54952414 53.43164062 133.51025391 C56.30014472 130.92160387 59.14890713 128.31190245 61.99414062 125.69775391 C66.44478909 121.60857943 70.92492145 117.55406307 75.42382812 113.51806641 C78.85856702 110.41740546 82.26550577 107.28684579 85.6628418 104.14526367 C88.47773294 101.55107677 91.35031214 99.0655046 94.30664062 96.63525391 C103.38151872 88.69002869 110.31939086 76.27979838 111.1328125 64.12573242 C111.84677031 47.14298595 109.12825523 33.51863748 98.15039062 19.91259766 C88.12263696 9.24783505 75.52007238 3.27315487 60.91577148 2.72729492 C43.74086859 2.52305283 31.15108514 8.90239132 18.72290039 20.41479492 C15.01815834 23.73630788 11.94477154 25.50877721 6.99414062 26.19775391 C2.12411005 24.53299856 -1.27023332 21.36847498 -5.00585938 17.94775391 C-18.13390706 6.38749144 -32.3798552 2.1874043 -49.68652344 3.00683594 C-62.17137593 4.03453643 -73.59392633 10.76702753 -82.09179688 19.77197266 Z "  transform="translate(248.005859375,21.80224609375)"></path>
  </symbol>
</svg>