<svg width="0" height="0" class="hidden">
  <symbol xmlns="http://www.w3.org/2000/svg" viewBox="0 0 38.53 38.54" id="icon_alert">
    <defs></defs>
    <g id="Layer_2">
      <g id="Layer_1-2">
        <path fill="#ce0909" d="M19.75,5.71A2.9,2.9,0,0,0,16.49,8a5.65,5.65,0,0,0,0,1.59q.65,7.07,1.33,14.11a1.53,1.53,0,0,0,1.59,1.51A1.57,1.57,0,0,0,21,23.7c.28-2.94.57-5.88.85-8.82.2-2.06.38-4.12.57-6.14A3,3,0,0,0,19.75,5.71Z"></path>
        <path fill="#ce0909" d="M19.42,26.48A2.64,2.64,0,0,0,16.76,29a2.63,2.63,0,1,0,5.25.07A2.64,2.64,0,0,0,19.42,26.48Z"></path>
        <path fill="#fff" d="M35.72,30.14a1.21,1.21,0,0,1,.12-1.08,19,19,0,0,0,2.39-13.12,19.26,19.26,0,1,0-9.12,19.87A1,1,0,0,1,30,35.7l6.48,1.92c.46.14.94.26,1.48.41,0-.2,0-.3-.08-.4C37.19,35.13,36.47,32.63,35.72,30.14ZM19.35,31.71A2.61,2.61,0,0,1,16.76,29a2.63,2.63,0,0,1,5.25.07A2.59,2.59,0,0,1,19.35,31.71Zm2.46-16.83c-.28,2.94-.57,5.88-.85,8.82a1.57,1.57,0,0,1-1.55,1.55,1.53,1.53,0,0,1-1.59-1.51q-.67-7-1.33-14.11a5.65,5.65,0,0,1,0-1.59,2.9,2.9,0,0,1,3.26-2.33,3,3,0,0,1,2.63,3C22.19,10.76,22,12.82,21.81,14.88Z"></path>
      </g>
    </g>
  </symbol>
</svg>