<svg width="0" height="0" class="hidden">
  <symbol version="1.1" xmlns="http://www.w3.org/2000/svg" viewBox="0 0 512 512" id="icon-store">
    <path d="M0 0 C0.75412397 -0.00205263 1.50824793 -0.00410527 2.28522414 -0.0062201 C4.838568 -0.01192143 7.39185845 -0.01042902 9.9452076 -0.00901413 C11.78374453 -0.01159597 13.62228091 -0.01460862 15.4608165 -0.01801753 C20.53368007 -0.02611201 25.60652951 -0.02787846 30.67939878 -0.028615 C36.14234439 -0.03046129 41.6052826 -0.03800643 47.06822395 -0.04475021 C59.02253731 -0.05835105 70.97684732 -0.06436087 82.93116713 -0.06876087 C90.38974739 -0.07152013 97.84832636 -0.07575687 105.30690575 -0.08026505 C125.94136346 -0.0924596 146.57582013 -0.1027588 167.21028137 -0.10614014 C168.54510776 -0.10636177 169.87993416 -0.10658356 171.21476055 -0.10680549 C172.55285021 -0.10702613 173.89093987 -0.10724661 175.22902954 -0.10746694 C177.91356651 -0.10790949 180.59810348 -0.10835661 183.28264046 -0.10880661 C183.94825149 -0.108916 184.61386252 -0.10902539 185.29964359 -0.1091381 C206.89014084 -0.11277007 228.48060455 -0.12869503 250.07108896 -0.15199697 C272.88606572 -0.17657556 295.70102795 -0.19030531 318.51601899 -0.19150805 C330.95755099 -0.19242636 343.39903907 -0.19821765 355.84055901 -0.21632767 C366.43254819 -0.23169074 377.02447987 -0.23687161 387.61647807 -0.22858956 C393.02449244 -0.22466967 398.43239089 -0.22567765 403.84039116 -0.23964691 C408.78615246 -0.25230582 413.73170977 -0.25125941 418.67747046 -0.2390562 C420.47154996 -0.23708522 422.26564353 -0.24024155 424.05970322 -0.24890056 C426.48931313 -0.25988935 428.91818986 -0.25257987 431.34777832 -0.24050903 C432.05223664 -0.24810423 432.75669495 -0.25569942 433.48250049 -0.26352477 C436.49890416 -0.23093796 438.54465829 -0.01034353 441.2029773 1.46717381 C442.7997303 3.13142776 442.7997303 3.13142776 443.7997303 6.13142776 C443.71500187 8.20792032 443.57669824 10.28231981 443.41301155 12.35408401 C441.65181132 46.34911504 453.01428008 78.46888493 462.36589241 110.7229805 C464.57896924 118.35784297 466.77894778 125.99523004 468.90519905 133.65486526 C469.19339516 134.6569754 469.48159126 135.65908554 469.77852058 136.69156265 C474.487181 153.85663416 473.07701259 170.60685853 464.6747303 186.31892776 C456.5555285 199.38549881 444.45039137 208.34766999 429.61613655 212.47127151 C416.9291836 214.66584168 403.69039954 214.33257332 391.7997303 209.13142776 C390.87289436 208.74213089 389.94605843 208.35283401 388.99113655 207.95174026 C380.72470365 203.98854265 374.96098467 197.73771656 368.7997303 191.13142776 C368.1397303 190.47142776 367.4797303 189.81142776 366.7997303 189.13142776 C366.20547249 189.97705276 365.61121468 190.82267776 364.99894905 191.69392776 C354.54971756 206.15848192 341.78656409 214.2744018 324.13957405 217.62752151 C309.37076666 219.85579772 295.42142244 215.94629583 282.7997303 208.13142776 C276.35793471 203.22297339 270.93381124 197.37052612 265.7997303 191.13142776 C265.33824593 191.76049026 264.87676155 192.38955276 264.4012928 193.03767776 C253.45287463 207.40477197 239.77930294 215.67966786 221.7997303 218.13142776 C205.90547208 219.59110454 191.21324566 214.9369767 178.5497303 205.38142776 C173.55742985 201.21309923 169.63502134 196.35942226 165.7997303 191.13142776 C165.08687874 191.92806839 164.37402718 192.72470901 163.63957405 193.54549026 C150.9580985 207.63058973 138.48713658 216.56289871 118.8075428 218.41267776 C102.07285247 218.94534695 87.82422849 213.20095648 75.2137928 202.44392776 C72.44168421 199.7884451 70.16278415 197.03522096 68.0184803 193.85799026 C66.76126698 192.07693806 65.37942084 190.62846007 63.7997303 189.13142776 C63.33824593 189.77209183 62.87676155 190.41275589 62.4012928 191.07283401 C53.61766709 202.7206855 41.97155523 209.85984957 27.7997303 213.13142776 C24.18344522 213.5459112 20.62470689 213.60962904 16.9872303 213.56892776 C16.02381721 213.56062943 15.06040413 213.55233109 14.06779671 213.54378128 C-0.82664486 213.19201308 -13.51075158 207.74017438 -24.4502697 197.56892776 C-37.18772466 184.07255842 -40.82296748 169.27290633 -40.55100822 151.13518143 C-40.17815828 141.70747193 -37.64428624 132.92114551 -35.05573845 123.90095901 C-34.52238898 121.96402528 -33.99154365 120.02640049 -33.46304131 118.08813858 C-32.08318871 113.0533192 -30.67037142 108.02837824 -29.24964714 103.00496292 C-27.81110423 97.89584856 -26.40452691 92.77795703 -24.99519157 87.66072464 C-23.16299637 81.0195217 -21.32241976 74.38084445 -19.45925426 67.74825764 C-18.98992544 66.07689525 -18.52184944 64.40518044 -18.05515385 62.73308086 C-17.12786068 59.41254874 -16.19045376 56.09853831 -15.20445061 52.79481888 C-13.49897108 46.9882038 -12.77062012 41.74764632 -12.7940197 35.70174026 C-12.78318352 34.8635173 -12.77234734 34.02529434 -12.76118279 33.16167068 C-12.71586839 29.63015536 -12.70378693 26.09872866 -12.68903923 22.56697464 C-12.67334084 19.96579953 -12.64037605 17.36523217 -12.6065197 14.76424026 C-12.60954094 13.9714769 -12.61256218 13.17871353 -12.61567497 12.36192703 C-12.55356566 7.78606648 -12.06882936 4.75915752 -9.2002697 1.13142776 C-6.2421542 -0.34762998 -3.24304767 -0.00809216 0 0 Z M4.7997303 16.13142776 C4.7997303 22.40142776 4.7997303 28.67142776 4.7997303 35.13142776 C144.0597303 35.13142776 283.3197303 35.13142776 426.7997303 35.13142776 C426.7997303 28.86142776 426.7997303 22.59142776 426.7997303 16.13142776 C287.5397303 16.13142776 148.2797303 16.13142776 4.7997303 16.13142776 Z M2.7997303 52.13142776 C-1.01309644 66.16161245 -1.01309644 66.16161245 -4.8252697 80.19197464 C-6.38301072 85.92567205 -7.94082349 91.65934988 -9.49909782 97.39290237 C-10.75729408 102.02235958 -12.01513997 106.65191186 -13.27275658 111.28152657 C-13.74939403 113.0359203 -14.22615159 114.7902814 -14.70303917 116.54460716 C-16.00514117 121.33481466 -17.30434649 126.12578929 -18.6000824 130.9177227 C-19.19437353 133.10968059 -19.79336136 135.30031585 -20.39288139 137.49084854 C-20.7587522 138.83812517 -21.12448752 140.1854386 -21.49006462 141.53279495 C-21.80779335 142.69663712 -22.12552208 143.86047928 -22.45287895 145.05958939 C-25.1716328 156.23389471 -24.00150503 167.17386433 -18.2002697 177.13142776 C-14.00309455 183.8594058 -9.14626128 188.3416579 -2.2002697 192.13142776 C-1.11165642 192.75211136 -1.11165642 192.75211136 -0.00105095 193.38533401 C9.20312548 197.87022134 21.16308306 197.69982159 30.7997303 194.56892776 C41.91526601 189.77862103 49.74824073 181.42293783 54.58659554 170.49995804 C56.9645527 163.89704721 57.87651864 156.99212231 58.9559803 150.08455276 C59.22697261 148.42553912 59.4993423 146.76674995 59.7729969 145.10817337 C60.48839173 140.74933174 61.18517865 136.38771836 61.87791634 132.02522659 C62.56850686 127.69681983 63.27660063 123.37128673 63.98332405 119.04549026 C65.21685318 111.48122893 66.4326927 103.91426315 67.64094734 96.34592819 C68.51743667 90.866081 69.41329345 85.38967434 70.31926155 79.91463089 C70.67062742 77.78014703 71.02160848 75.64560029 71.37243843 73.51102829 C71.69603224 71.55105707 72.02435689 69.59186875 72.35283089 67.6327095 C72.54478035 66.46149551 72.73672981 65.29028152 72.93449593 64.0835762 C73.10259773 63.07244766 73.27069954 62.06131912 73.44389534 61.01955032 C73.92201201 57.62392576 73.92201201 57.62392576 73.7997303 52.13142776 C50.3697303 52.13142776 26.9397303 52.13142776 2.7997303 52.13142776 Z M91.7997303 52.13142776 C90.22207324 58.29917751 90.22207324 58.29917751 88.98976326 64.48520279 C88.86080162 65.24862488 88.73183998 66.01204697 88.59897041 66.79860306 C88.46589989 67.60654312 88.33282936 68.41448318 88.19572639 69.24690628 C88.04913078 70.12130859 87.90253517 70.99571091 87.75149727 71.89661026 C87.27155017 74.76722806 86.79682932 77.63867275 86.3231678 80.51033401 C86.15951351 81.49927092 85.99585922 82.48820782 85.82724571 83.5071125 C84.96102036 88.74331503 84.09892548 93.98017847 83.24015999 99.21760941 C82.35849675 104.58954513 81.46261362 109.95900517 80.56337738 115.32802296 C79.86897786 119.49036994 79.18538951 123.65444285 78.50458336 127.81903267 C78.17928822 129.79735053 77.85003898 131.77502292 77.51653862 133.75197411 C73.20526643 159.07068642 73.20526643 159.07068642 81.4872303 182.81892776 C88.30372541 192.32122394 96.96868466 198.0440897 108.3778553 200.74080276 C119.03081252 202.45902167 129.42305014 200.13171342 138.6122303 194.44392776 C148.03547683 187.56703646 154.33951841 178.5376797 156.7997303 167.13142776 C157.28934725 163.11921378 157.54078657 159.09837012 157.7919178 155.06502151 C157.87271584 153.85309631 157.95351387 152.64117111 158.03676033 151.3925209 C159.02133884 136.30745178 159.84968282 121.21231406 160.65959358 106.11702347 C160.88187034 101.97565106 161.10962872 97.83459937 161.33874893 93.69360065 C161.51795473 90.4412078 161.69387378 87.18864312 161.86887932 83.9360218 C161.95150478 82.40881739 162.03519694 80.88167022 162.12007713 79.35458946 C162.23821434 77.22185804 162.35176041 75.08892488 162.46428108 72.95589066 C162.56182182 71.15397011 162.56182182 71.15397011 162.66133308 69.31564713 C162.85069739 63.59051909 162.7997303 57.85968665 162.7997303 52.13142776 C139.3697303 52.13142776 115.9397303 52.13142776 91.7997303 52.13142776 Z M179.7997303 52.13142776 C178.84764668 67.18341645 177.9171192 82.23529317 177.02806282 97.29091263 C176.83374256 100.5593472 176.63641733 103.82758229 176.43761921 107.09574699 C176.02708791 113.84996995 175.63135503 120.60480553 175.25848866 127.36121941 C175.07671632 130.64926689 174.88674747 133.93648058 174.68458748 137.22334671 C172.85443677 163.9546217 172.85443677 163.9546217 184.5809803 187.31111526 C192.9286776 196.37726192 203.38279147 200.87946795 215.5497303 201.50642776 C226.76303599 201.22740305 236.97470632 196.73801335 244.9872303 189.02595901 C249.23541587 184.48883435 252.53334715 179.93202226 254.7997303 174.13142776 C255.14020393 173.32640823 255.48067757 172.5213887 255.83146858 171.69197464 C257.16319283 166.79488275 257.11574595 162.1981151 257.0809803 157.14314651 C257.074394 155.41350914 257.074394 155.41350914 257.06767464 153.6489296 C256.86641728 135.08612959 255.58513829 116.54637087 254.48192024 98.02046585 C254.12013971 91.91128337 253.77019116 85.80141201 253.41815376 79.69166183 C252.88751569 70.50437229 252.34228586 61.31805597 251.7997303 52.13142776 C228.0397303 52.13142776 204.2797303 52.13142776 179.7997303 52.13142776 Z M268.7997303 52.13142776 C268.7997303 59.75019343 268.80903138 67.24485241 269.22697639 74.83040237 C269.27253166 75.70714111 269.31808693 76.58387985 269.36502266 77.48718643 C269.51411988 80.33625303 269.66832877 83.18501162 269.8231678 86.03377151 C269.93060288 88.04430866 270.03791046 90.05485262 270.14509773 92.06540298 C270.36965563 96.26031722 270.59699218 100.45507009 270.82609749 104.64973831 C271.11733095 109.98922183 271.39969154 115.32913336 271.67971039 120.6692152 C271.89848347 124.81591656 272.12299355 128.96229329 272.34906578 133.10860252 C272.4554711 135.07580484 272.55993 137.04311355 272.66229057 139.01053047 C273.8889413 168.08031977 273.8889413 168.08031977 289.4247303 191.81892776 C297.36079213 198.50112241 307.66296777 201.54635826 317.92082405 201.40877151 C330.69023757 200.17861092 340.81739349 194.28340625 349.00676155 184.63924026 C359.87563521 169.43702482 357.23418265 152.86507711 354.3859272 135.54162979 C354.03593584 133.46082554 353.68558062 131.38008245 353.33488655 129.29939651 C352.97760597 127.12859864 352.62129445 124.95764107 352.26590157 122.78653336 C351.52407912 118.26965006 350.77459595 113.75413527 350.01872444 109.23958206 C349.048642 103.44522276 348.09202167 97.64874587 347.14028454 91.85134792 C346.2304553 86.31245691 345.31424079 80.77462827 344.39738655 75.23689651 C344.22288538 74.17981176 344.04838421 73.12272701 343.86859512 72.03360939 C343.3765967 69.06064929 342.88007855 66.08848284 342.38200569 63.11653519 C342.16298088 61.78811096 342.16298088 61.78811096 341.93953133 60.43284988 C341.28942737 56.15660049 341.28942737 56.15660049 339.7997303 52.13142776 C316.3697303 52.13142776 292.9397303 52.13142776 268.7997303 52.13142776 Z M357.7997303 52.13142776 C358.426624 59.65415219 359.1132999 66.92073602 360.33439827 74.3311348 C360.48578255 75.2726741 360.63716682 76.21421341 360.7931385 77.18428421 C361.2879864 80.25339304 361.78960631 83.32134482 362.2919178 86.38924026 C362.64223893 88.54528269 362.99234298 90.70136039 363.34224129 92.85747147 C364.0737801 97.35800202 364.80886105 101.85793662 365.54631233 106.35750198 C366.4876056 112.10342326 367.41857809 117.85096257 368.34672546 123.59902 C369.06612993 128.0454831 369.79174352 132.49091647 370.51912498 136.93608093 C370.86484005 139.05428227 371.20849007 141.17282179 371.54997063 143.2917099 C372.0289989 146.25906539 372.51658923 149.22489666 373.00627327 152.1905098 C373.21215569 153.48286041 373.21215569 153.48286041 373.42219734 154.80131912 C375.62002524 167.94282758 379.79991664 180.73791324 390.7997303 189.13142776 C400.15707282 195.08985322 410.24229352 198.16521215 421.3622303 196.63142776 C431.940276 194.23435601 441.58236173 188.84492654 447.9247303 180.00642776 C455.02092218 168.63384657 456.66732855 156.71774304 453.96684456 143.63747025 C452.83343156 138.7593625 451.48418762 133.94349063 450.1278553 129.12361526 C449.64245357 127.34203447 449.15882672 125.55996927 448.67686653 123.77745438 C447.41392659 119.12551331 446.12692706 114.48057726 444.83452034 109.83675003 C443.53174411 105.13832576 442.25291613 100.43339777 440.9716053 95.72908401 C439.08436971 88.81407671 437.18825237 81.90162468 435.27336311 74.99422073 C434.9863604 73.95728577 434.9863604 73.95728577 434.69355965 72.89940262 C432.76713313 65.96540712 430.77697665 59.05179 428.7997303 52.13142776 C405.3697303 52.13142776 381.9397303 52.13142776 357.7997303 52.13142776 Z "  transform="translate(40.20026969909668,-0.13142776489257813)"></path>
    <path d="M0 0 C2.73966238 1.98967329 4.67833387 3.58907963 5.45464003 6.99418223 C5.63210276 9.49138647 5.64215336 11.9435585 5.60127258 14.44685364 C5.60555267 15.4002916 5.60983276 16.35372955 5.61424255 17.33605957 C5.62252355 20.54328019 5.59489672 23.74919739 5.56762695 26.95629883 C5.56609544 29.28977511 5.56676246 31.6232537 5.56945324 33.95672894 C5.57058309 40.21160146 5.54158264 46.46599672 5.50640106 52.72075653 C5.47794796 58.58773826 5.47658668 64.45460331 5.47302246 70.32165527 C5.44677505 87.48533352 5.37696939 104.64892277 5.3125 121.8125 C5.209375 160.154375 5.10625 198.49625 5 238 C95.75 238 186.5 238 280 238 C279.88118732 173.39217457 279.88118732 173.39217457 279.72973633 108.78442383 C279.71618652 96.30212402 279.71618652 96.30212402 279.71366882 90.46269226 C279.71086853 86.37536252 279.69960491 82.28814911 279.68327332 78.20085144 C279.66272932 72.99047151 279.65652035 67.78026128 279.66078317 62.5698446 C279.65989151 60.65561867 279.65392293 58.74138694 279.64235461 56.82719576 C279.62746956 54.24463275 279.63101594 51.66273211 279.63923645 49.08015442 C279.62612946 47.95254967 279.62612946 47.95254967 279.61275768 46.80216503 C279.650798 42.36670537 280.25533972 39.52404381 283 36 C285.36411896 34.81794052 286.79049781 34.86922453 289.42758179 34.85955811 C290.35852158 34.85384796 291.28946136 34.84813782 292.24861145 34.84225464 C293.78529732 34.84057785 293.78529732 34.84057785 295.35302734 34.83886719 C296.42954056 34.83390228 297.50605377 34.82893738 298.6151886 34.82382202 C302.18877798 34.80917519 305.76232299 34.80239442 309.3359375 34.796875 C311.81214398 34.79112591 314.28835044 34.78536815 316.76455688 34.77960205 C321.96152962 34.76908507 327.15848686 34.76324687 332.35546875 34.75976562 C339.02283877 34.755064 345.68997595 34.73024545 352.35729027 34.70179367 C357.47358809 34.68319374 362.58983653 34.67796311 367.70616531 34.67642975 C370.16460918 34.67339704 372.62305205 34.66534784 375.08146286 34.65224457 C378.51719543 34.63523861 381.95242631 34.63705112 385.38818359 34.64355469 C386.40859238 34.6343399 387.42900116 34.62512512 388.48033142 34.6156311 C389.41691086 34.62120026 390.3534903 34.62676941 391.31845093 34.63250732 C392.13071829 34.63104076 392.94298565 34.6295742 393.77986717 34.6280632 C396.58185196 35.09747712 397.94297976 36.0654448 400 38 C401.22126119 41.66378358 401.13491498 45.02571294 401.12025452 48.83964539 C401.12153615 50.05018002 401.12153615 50.05018002 401.12284368 51.2851699 C401.12449515 53.99832246 401.11898253 56.71141365 401.11352539 59.42456055 C401.11324342 61.36586506 401.11340144 63.30716967 401.1139679 65.24847412 C401.11425549 70.52706304 401.10836488 75.80562936 401.10139394 81.08421302 C401.09515409 86.59754812 401.0945561 92.11088371 401.09336853 97.6242218 C401.09025708 108.06829566 401.08204619 118.51235909 401.07201904 128.95642835 C401.06085213 140.84502486 401.05534599 152.73362186 401.05032361 164.6222223 C401.03986344 189.08148752 401.02206679 213.54074274 401 238 C409.58 238 418.16 238 427 238 C426.98889694 235.09206131 426.97779388 232.18412262 426.96635437 229.18806458 C426.86687977 202.52770806 426.79222508 175.86735604 426.74467335 149.20685767 C426.73841975 145.7133442 426.73194814 142.21983117 426.7253418 138.72631836 C426.72403024 138.03081667 426.72271869 137.33531498 426.7213674 136.61873748 C426.699605 125.35412526 426.66017896 114.0896405 426.61423602 102.82510392 C426.56749441 91.26844393 426.54008382 79.71187367 426.52955753 68.15512103 C426.52303001 61.66305355 426.50765214 55.17127525 426.47134972 48.67930031 C426.43747307 42.5717838 426.42693038 36.46467627 426.43446159 30.35707474 C426.43308334 28.11286003 426.42310172 25.86863198 426.40397263 23.62449837 C426.37916552 20.56477746 426.38505042 17.50660902 426.39872742 14.44685364 C426.38416321 13.55482689 426.369599 12.66280015 426.35459346 11.74374229 C426.40802036 7.33452613 426.57871111 5.5477058 429.35007954 1.9447279 C432 0 432 0 435 -0.5625 C438.65907504 0.12357657 440.35167676 1.42734314 443 4 C444.70342655 7.4068531 444.13242667 11.30027734 444.12025452 15.04812622 C444.12153615 16.47176572 444.12153615 16.47176572 444.12284368 17.92416561 C444.12449892 21.12410449 444.11897638 24.32399167 444.11352539 27.52392578 C444.1132435 29.80990599 444.11340128 32.0958863 444.1139679 34.38186646 C444.11425581 40.60469794 444.10836011 46.82751029 444.10139394 53.05033731 C444.09515934 59.54730032 444.09455652 66.04426372 444.09336853 72.54122925 C444.09060962 83.45148053 444.08435565 94.36172473 444.07543945 105.27197266 C444.06626418 116.51090459 444.05918391 127.74983461 444.05493164 138.98876953 C444.05453756 140.02745582 444.05453756 140.02745582 444.05413551 141.08712567 C444.0528305 144.56088892 444.05156678 148.03465219 444.05032361 151.50841546 C444.03995239 180.3389483 444.02226108 209.16947398 444 238 C444.70608398 237.97905273 445.41216797 237.95810547 446.13964844 237.93652344 C449.34295376 237.85330702 452.54603163 237.80132215 455.75 237.75 C456.86117188 237.71648437 457.97234375 237.68296875 459.1171875 237.6484375 C460.18710937 237.63554687 461.25703125 237.62265625 462.359375 237.609375 C463.34389648 237.58842773 464.32841797 237.56748047 465.34277344 237.54589844 C468.73356726 238.12536155 469.88664258 239.34652405 472 242 C472.50793457 244.12451172 472.50793457 244.12451172 472.51757812 246.4296875 C472.53018677 247.2973877 472.54279541 248.16508789 472.55578613 249.05908203 C472.54364075 250.45296143 472.54364075 250.45296143 472.53125 251.875 C472.5350769 252.83647949 472.53890381 253.79795898 472.54284668 254.78857422 C472.54556602 256.8193466 472.53820329 258.85015399 472.52148438 260.88085938 C472.50007525 263.9890757 472.52128546 267.09498056 472.546875 270.203125 C472.54423173 272.17708843 472.53910676 274.15105043 472.53125 276.125 C472.53934692 277.05425293 472.54744385 277.98350586 472.55578613 278.94091797 C472.53687317 280.24246826 472.53687317 280.24246826 472.51757812 281.5703125 C472.51439575 282.33102051 472.51121338 283.09172852 472.50793457 283.87548828 C471.75886114 287.00859908 470.56268224 288.04610779 468 290 C465.08929519 290.39191054 462.55782986 290.53755941 459.64782715 290.50336456 C458.79346982 290.50917833 457.93911249 290.51499209 457.05886555 290.52098203 C454.17633135 290.53565972 451.29463833 290.52166066 448.41210938 290.50793457 C446.33260409 290.51254041 444.25310205 290.51889118 442.17360687 290.52684355 C436.44388556 290.54360347 430.71442937 290.53526025 424.98470688 290.52289867 C418.8114819 290.51387771 412.63830369 290.5278032 406.46508789 290.53881836 C395.06561315 290.55560886 383.66624697 290.55410901 372.26677489 290.54317249 C361.73667871 290.53311935 351.20661367 290.53047921 340.67651367 290.53526306 C339.97865035 290.5355686 339.28078703 290.53587414 338.56177634 290.53618894 C335.7290851 290.53743425 332.89639388 290.53870784 330.06370267 290.540028 C303.4784206 290.55227032 276.89319263 290.54116014 250.30791891 290.51964041 C226.67660445 290.50065727 203.0453762 290.50235576 179.4140625 290.52148438 C152.87812222 290.54289226 126.34222976 290.55140218 99.80628204 290.53903532 C96.97868348 290.53775241 94.15108491 290.53650105 91.32348633 290.53526306 C90.62723418 290.53494675 89.93098203 290.53463044 89.21363133 290.53430455 C78.68887589 290.52975025 68.16415496 290.53508395 57.6394043 290.54518127 C45.6750269 290.55660237 33.71075137 290.5534069 21.74637794 290.5320583 C15.63759198 290.52151871 9.52898135 290.51747552 3.42019653 290.53065491 C-2.16578634 290.54252444 -7.75143043 290.53610639 -13.33738232 290.5147447 C-15.36423499 290.51025548 -17.39111596 290.51259643 -19.41795063 290.52224785 C-22.16165651 290.53431639 -24.90418405 290.52203461 -27.64782715 290.50336456 C-28.84323514 290.51741156 -28.84323514 290.51741156 -30.06279278 290.53174233 C-33.63016352 290.4828327 -35.61254707 290.29540972 -38.49026489 288.1013217 C-40.22161803 285.69154141 -40.505281 284.50979288 -40.51757812 281.5703125 C-40.53018677 280.7026123 -40.54279541 279.83491211 -40.55578613 278.94091797 C-40.54768921 278.01166504 -40.53959229 277.08241211 -40.53125 276.125 C-40.5350769 275.16352051 -40.53890381 274.20204102 -40.54284668 273.21142578 C-40.54556602 271.1806534 -40.53820329 269.14984601 -40.52148438 267.11914062 C-40.50007525 264.0109243 -40.52128546 260.90501944 -40.546875 257.796875 C-40.54423173 255.82291157 -40.53910676 253.84894957 -40.53125 251.875 C-40.53934692 250.94574707 -40.54744385 250.01649414 -40.55578613 249.05908203 C-40.54317749 248.19138184 -40.53056885 247.32368164 -40.51757812 246.4296875 C-40.51439575 245.66897949 -40.51121338 244.90827148 -40.50793457 244.12451172 C-39.78240676 241.08988397 -38.39970371 239.9559505 -36 238 C-33.34277344 237.54589844 -33.34277344 237.54589844 -30.359375 237.609375 C-29.28945313 237.62226563 -28.21953125 237.63515625 -27.1171875 237.6484375 C-25.45042969 237.69871094 -25.45042969 237.69871094 -23.75 237.75 C-22.62335937 237.76804687 -21.49671875 237.78609375 -20.3359375 237.8046875 C-17.55643104 237.85179778 -14.7786466 237.91756639 -12 238 C-12.00368717 236.80894307 -12.00737434 235.61788614 -12.01117325 234.39073658 C-12.0977867 206.12353769 -12.16375305 177.85634226 -12.20426132 149.58903994 C-12.2092642 146.11054788 -12.21444149 142.6320561 -12.21972656 139.15356445 C-12.2207758 138.46105338 -12.22182505 137.7685423 -12.22290608 137.05504604 C-12.24031587 125.83895696 -12.27185668 114.62294979 -12.30861118 103.40690932 C-12.34600473 91.89996954 -12.36793303 80.39308742 -12.37635398 68.88608807 C-12.38157591 62.42201172 -12.39387802 55.95812125 -12.42292023 49.49410439 C-12.45002179 43.41289128 -12.45845554 37.33194105 -12.45243073 31.25067329 C-12.45353331 29.016142 -12.46151822 26.78160212 -12.4768219 24.54712296 C-12.49666706 21.50071997 -12.49195874 18.45531492 -12.48101807 15.40888977 C-12.49266943 14.52075397 -12.5043208 13.63261818 -12.51632524 12.71756917 C-12.47631944 8.60806857 -12.33343103 6.52954353 -10.09493637 2.97444439 C-6.7581285 -0.17044424 -4.55458987 -0.5358341 0 0 Z M297 52 C297 113.38 297 174.76 297 238 C325.71 238 354.42 238 384 238 C384 176.62 384 115.24 384 52 C355.29 52 326.58 52 297 52 Z M-24 255 C-24 261.27 -24 267.54 -24 274 C134.4 274 292.8 274 456 274 C456 267.73 456 261.46 456 255 C297.6 255 139.2 255 -24 255 Z "  transform="translate(40,222)"></path>
    <path d="M0 0 C0.74560769 0.00241508 1.49121538 0.00483017 2.25941724 0.00731844 C3.4450025 -0.00053658 3.4450025 -0.00053658 4.65453899 -0.00855029 C7.31769719 -0.02361841 9.98066443 -0.02425692 12.64386243 -0.02492338 C14.54735391 -0.03254036 16.45084231 -0.04096706 18.3543269 -0.05014616 C23.53620299 -0.07214512 28.71802005 -0.08089743 33.89993757 -0.08597261 C37.13527716 -0.08961017 40.37060114 -0.09584711 43.6059348 -0.102974 C54.88713897 -0.12748838 66.16829704 -0.14052444 77.44952649 -0.14406401 C87.97418947 -0.14769963 98.49856087 -0.17759186 109.02313471 -0.21946859 C118.05078952 -0.25413309 127.07834755 -0.26961179 136.10606849 -0.27031004 C141.50151236 -0.27110425 146.89665954 -0.27990839 152.2920348 -0.30830771 C157.36710307 -0.33442212 162.44162732 -0.33673062 167.51673192 -0.32065207 C169.38037424 -0.31883222 171.24404737 -0.32557643 173.1076228 -0.34147078 C175.65065009 -0.36183905 178.19175747 -0.35143541 180.73475903 -0.33325773 C181.47367456 -0.3464577 182.21259008 -0.35965767 182.97389698 -0.37325764 C186.77969669 -0.31104918 188.56837851 0.19217229 191.6449315 2.49731535 C193.85817539 5.51402117 194.31461635 6.76606104 194.32248181 10.44272798 C194.33658093 11.46048815 194.35068005 12.47824831 194.36520642 13.52684969 C194.35508527 14.63245744 194.34496411 15.7380652 194.33453625 16.87717623 C194.34329785 18.05005693 194.35205945 19.22293764 194.36108655 20.43136019 C194.38309538 24.30885732 194.36852078 28.18521434 194.3516261 32.0627231 C194.35273941 34.75645807 194.35983827 37.4501727 194.36612195 40.14389986 C194.3752117 45.78965542 194.36324872 51.43508367 194.33941907 57.08078951 C194.31220853 63.60269664 194.32102321 70.12382221 194.34855109 76.64571041 C194.3712608 82.25100644 194.37443333 87.85606754 194.36135775 93.46139473 C194.35357305 96.80678939 194.35446387 100.15152222 194.36904019 103.49694246 C194.38172566 107.22709066 194.36240019 110.95573399 194.33453625 114.68576998 C194.34465741 115.79137773 194.35477856 116.89698549 194.36520642 118.03609651 C194.3511073 119.05385668 194.33700818 120.07161684 194.32248181 121.12021822 C194.32059668 122.00141077 194.31871156 122.88260332 194.3167693 123.79049867 C193.37188446 127.53122125 191.75049591 128.98501116 188.6875636 131.2814731 C185.8391877 131.77248537 183.59015698 131.95526773 180.74821728 131.90966219 C179.95455827 131.91675657 179.16089925 131.92385096 178.34318995 131.93116033 C175.68657227 131.94874788 173.03141621 131.93063259 170.37481946 131.91257662 C168.4692595 131.91771512 166.56370428 131.92499587 164.65815991 131.93425936 C159.48462 131.95278906 154.3115948 131.93982527 149.13807625 131.92016906 C143.72671446 131.90379666 138.31538563 131.91259338 132.90400952 131.91768831 C123.81737283 131.92221045 114.73094191 131.90633093 105.64435071 131.87839693 C95.1338182 131.84633492 84.62365666 131.84636414 74.11309779 131.8636117 C64.00724756 131.87946531 53.90153354 131.87275134 43.79568928 131.85567468 C39.49231157 131.8487959 35.18904276 131.8498451 30.88566655 131.85721964 C25.82041506 131.86487059 20.75558673 131.85279522 15.69040745 131.82537073 C13.82959247 131.81847368 11.96873806 131.81840301 10.10792416 131.82558626 C7.57144981 131.83425081 5.03629044 131.81837693 2.49992627 131.7961368 C1.76014426 131.80437756 1.02036226 131.81261833 0.25816262 131.82110882 C-3.14812229 131.76582188 -4.99214604 131.52503628 -7.73820907 129.43680662 C-10.15036591 126.13423247 -10.4390427 123.48251818 -10.4528783 119.51258272 C-10.45858844 118.5312285 -10.46429858 117.54987428 -10.47018176 116.53878206 C-10.47129962 115.4633867 -10.47241748 114.38799135 -10.47356921 113.28000826 C-10.47853412 112.14643389 -10.48349902 111.01285951 -10.48861438 109.8449344 C-10.5032457 106.08679535 -10.51003928 102.32869849 -10.5155614 98.5705356 C-10.52131159 95.96363251 -10.52706934 93.35672943 -10.53283435 90.74982637 C-10.54240425 85.97989899 -10.54830209 81.20998074 -10.5513311 76.44004494 C-10.55581217 69.42237739 -10.57336392 62.40490459 -10.6023317 55.38729626 C-10.62656091 49.30629887 -10.63427577 43.22538185 -10.63600665 37.14433855 C-10.63903745 34.55833177 -10.64708028 31.97232589 -10.66019183 29.38635057 C-10.67721399 25.7713252 -10.67538127 22.156776 -10.66888171 18.54172701 C-10.6780965 17.47038011 -10.68731128 16.39903322 -10.6968053 15.29522127 C-10.6508315 7.14750854 -9.46249447 0.09880354 0 0 Z M6.6875636 17.2814731 C6.6875636 49.2914731 6.6875636 81.3014731 6.6875636 114.2814731 C62.7875636 114.2814731 118.8875636 114.2814731 176.6875636 114.2814731 C176.6875636 82.2714731 176.6875636 50.2614731 176.6875636 17.2814731 C120.5875636 17.2814731 64.4875636 17.2814731 6.6875636 17.2814731 Z "  transform="translate(92.31243640184402,256.7185268998146)"></path>
  </symbol>
</svg>