<svg width="0" height="0" class="hidden">
  <symbol version="1.1" xmlns="http://www.w3.org/2000/svg" viewBox="0 0 512 512" id="icon-play">
    <path d="M0 0 C6.01724612 3.57409613 12.1001402 7.03336188 18.1796875 10.5 C19.38566732 11.18813963 20.59164058 11.87629076 21.79760742 12.56445312 C26.0913717 15.0139571 30.38630565 17.46140733 34.68133545 19.90869141 C38.82735505 22.27117269 42.9726952 24.63484036 47.1171875 27 C47.99011444 27.49802124 47.99011444 27.49802124 48.88067627 28.00610352 C56.96763996 32.62177221 65.02192447 37.29063728 73.0546875 42 C81.10732935 46.7202841 89.21195172 51.33434665 97.3671875 55.875 C106.52432298 60.97348876 115.60411512 66.18807816 124.64550781 71.48876953 C132.27517726 75.95778832 139.93703405 80.36848885 147.6171875 84.75 C148.20084076 85.08303131 148.78449402 85.41606262 149.38583374 85.75918579 C152.35478254 87.45299047 155.32420773 89.14595762 158.29394531 90.83837891 C164.19520439 94.20152051 170.094111 97.56878067 175.9921875 100.9375 C176.57254761 101.26893005 177.15290771 101.60036011 177.75085449 101.9418335 C187.21060309 107.34510248 196.65001572 112.78308706 206.08300781 118.23291016 C213.95775509 122.7798802 221.84588119 127.30310456 229.7421875 131.8125 C230.32190308 132.14360779 230.90161865 132.47471558 231.49890137 132.81585693 C237.40735388 136.19021064 243.31731839 139.56190462 249.22886658 142.93083191 C252.19209248 144.61976211 255.15477062 146.30965122 258.1171875 148 C258.69995453 148.33246735 259.28272156 148.66493469 259.88314819 149.00747681 C268.94955558 154.18218866 277.97169157 159.42954587 286.97460938 164.71386719 C293.21615568 168.36485865 299.5048549 171.91946662 305.82861328 175.42602539 C327.62124316 187.51308833 348.6545352 199.5427959 356.44921875 224.7578125 C358.86091577 236.97407217 355.94076513 248.07883514 349.6796875 258.5625 C336.42772096 278.15849308 312.74982676 288.25738137 292.78955078 299.63842773 C284.80153671 304.19341847 276.82852042 308.77346772 268.8671875 313.375 C259.92170185 318.5434122 250.96355288 323.68916352 241.9921875 328.8125 C241.41247192 329.14360779 240.83275635 329.47471558 240.23547363 329.81585693 C234.32702112 333.19021064 228.41705661 336.56190462 222.50550842 339.93083191 C219.54228252 341.61976211 216.57960438 343.30965122 213.6171875 345 C213.03442047 345.33246735 212.45165344 345.66493469 211.85122681 346.00747681 C203.76509057 350.62269243 195.71163671 355.2911144 187.6796875 360 C178.58923169 365.32862814 169.42143221 370.5041316 160.21533203 375.62988281 C152.11401172 380.15090565 144.09206491 384.79674004 136.08886719 389.48876953 C128.45919774 393.95778832 120.79734095 398.36848885 113.1171875 402.75 C112.53353424 403.08303131 111.94988098 403.41606262 111.34854126 403.75918579 C108.37959246 405.45299047 105.41016727 407.14595762 102.44042969 408.83837891 C96.53917061 412.20152051 90.640264 415.56878067 84.7421875 418.9375 C84.16182739 419.26893005 83.58146729 419.60036011 82.98352051 419.9418335 C74.59877488 424.73107663 66.2282263 429.54448791 57.8671875 434.375 C46.00724284 441.22697228 34.11938409 448.02938164 22.22290039 454.81761169 C17.34258051 457.60265912 12.46487305 460.39225718 7.58810425 463.18351746 C4.57700002 464.90664517 1.56490999 466.62799488 -1.44970703 468.3449707 C-6.27587297 471.09439577 -11.09946107 473.84457884 -15.8828125 476.66796875 C-33.12549427 486.77280254 -51.35614199 493.20748279 -71.57421875 489.19140625 C-83.04711017 485.25830976 -92.10880071 477.89875464 -97.8203125 467.1875 C-102.7083795 456.73381216 -105.25276811 446.09000149 -105.26424026 434.55873871 C-105.2662929 433.85279229 -105.26834553 433.14684588 -105.27046037 432.41950715 C-105.27610323 430.06004916 -105.27467649 427.70065004 -105.27325439 425.34118652 C-105.27583959 423.6299179 -105.27885319 421.91864987 -105.2822578 420.20738268 C-105.29031297 415.50909959 -105.29211654 410.8108318 -105.29285526 406.11254263 C-105.29470842 401.04347926 -105.30225712 395.97442378 -105.30899048 390.90536499 C-105.3225642 379.82248226 -105.32859714 368.73960315 -105.33300114 357.65671349 C-105.33576541 350.73354898 -105.34000313 343.81038586 -105.34450531 336.88722229 C-105.35669715 317.71090533 -105.36699635 298.53458949 -105.3703804 279.35826874 C-105.37059997 278.13126174 -105.37081953 276.90425473 -105.37104575 275.6400657 C-105.37126403 274.41015593 -105.37148231 273.18024615 -105.3717072 271.91306639 C-105.37215066 269.4208854 -105.37259723 266.92870442 -105.37304688 264.43652344 C-105.3732683 263.20032086 -105.37348973 261.96411828 -105.37371787 260.69045502 C-105.37766435 240.66771773 -105.39511419 220.64501687 -105.4184064 200.62229365 C-105.44213893 180.05464246 -105.45458313 159.48700953 -105.45574832 138.91934443 C-105.45666405 127.37570874 -105.46239074 115.83212051 -105.48056793 104.28849792 C-105.49599464 94.45707956 -105.50107425 84.62572331 -105.49282983 74.79429513 C-105.48893233 69.78183183 -105.48980885 64.76949354 -105.50388718 59.75704575 C-105.51668016 55.16001682 -105.5153815 50.56320614 -105.50329646 45.96617728 C-105.50134877 44.31135056 -105.50437455 42.65650809 -105.51314083 41.00170344 C-105.58016938 27.48273107 -104.73634154 14.00393089 -98.1328125 1.875 C-97.71257812 1.05515625 -97.29234375 0.2353125 -96.859375 -0.609375 C-91.13196244 -11.05161888 -83.24256663 -17.04850754 -72.1328125 -21.125 C-45.83545666 -28.61771311 -21.50927469 -12.82175928 0 0 Z " transform="translate(130.1328125,22.125)"></path>
  </symbol>
</svg>