<svg width="0" height="0" class="hidden">
  <symbol xmlns="http://www.w3.org/2000/svg" viewBox="0 0 36.15 38.02" id="icon_age">
    <defs></defs>
    <g id="Layer_2">
      <g id="Layer_1-2">
        <g id="CFNvOZ">
          <path d="M21,22.21l.35.59,2.74,4.7a1.24,1.24,0,0,0,1.37.65,1.2,1.2,0,0,0,.76-1.84c-.79-1.37-1.58-2.72-2.38-4.08l-2.51-4.32-.14-.21a5,5,0,0,1-6.75.07l-.11.15L9.54,25.81a1.25,1.25,0,0,0-.22.92,1.23,1.23,0,0,0,1,1,1.27,1.27,0,0,0,1.31-.57c.43-.69.84-1.39,1.26-2.09l1.53-2.56.13-.19V37.94l-.6,0a24.78,24.78,0,0,1-4.54-.61,7.51,7.51,0,0,1-1.2-.44.59.59,0,0,1-.36-.62c0-4.9,0-9.79,0-14.69v-.27h-1v-7.2l0,0-.13.21c-1.21,2.06-2.41,4.13-3.61,6.19a1.65,1.65,0,0,1-2.23.71A1.6,1.6,0,0,1,.24,18.9l1.5-2.58q2.4-4.11,4.79-8.22l.14-.21L6.86,8A7,7,0,0,0,12,9.63,7.91,7.91,0,0,0,15.29,8.4l.19-.12.09,0,2.65,3.65-.3,0a2.64,2.64,0,1,0,0,5.25A2.71,2.71,0,0,0,20.47,15a2.63,2.63,0,0,0-2-3l-.24-.07L20.8,8.2l.29.2a6.74,6.74,0,0,0,4.62,1.22A7.62,7.62,0,0,0,29,8.33l.24-.15a.58.58,0,0,1,.1.12q3.3,5.55,6.59,11.09a1.63,1.63,0,0,1-1.21,2.48A1.58,1.58,0,0,1,33.14,21l-1.63-2.87L29.16,14c0-.06-.07-.12-.13-.2-.2.55-.38,1.07-.56,1.59a2.86,2.86,0,0,1-.15.41,2.7,2.7,0,0,0-.11,1.94c.77,3.39,1.64,6.74,2.58,10.09a9.68,9.68,0,0,1,.46,2.2,5.29,5.29,0,0,1-.18,1.77,2.47,2.47,0,0,1-.17.42.53.53,0,0,1-.54.32H28c0,.36,0,.68,0,1,0,.53,0,1.06.07,1.58a1.56,1.56,0,0,1-.6,1.29,4.59,4.59,0,0,1-1.62.82,19.08,19.08,0,0,1-4.11.68l-.68,0Z"></path>
          <path d="M24.8,0a3.55,3.55,0,1,1-3.56,3.53A3.55,3.55,0,0,1,24.8,0Z"></path>
          <path d="M11.09,0a3.56,3.56,0,0,1,3.57,3.56A3.58,3.58,0,1,1,11.09,0Z"></path>
          <path d="M18.52,38H17.06V27.67h1.46Z"></path>
        </g>
      </g>
    </g>
  </symbol>
</svg>