<svg width="0" height="0" class="hidden">
  <symbol xmlns="http://www.w3.org/2000/svg" viewBox="0 0 43.24 47.57" id="icon_premium">
    <defs></defs>
    <g id="Layer_2">
      <g id="Layer_1-2">
        <g id="FFfNl2.tif">
          <path d="M5.4,0H37.7a3.17,3.17,0,0,0,.44.12,5.73,5.73,0,0,1,5.09,5.56q0,19.47,0,38.92a3.51,3.51,0,0,1-.48,1.65,2.81,2.81,0,0,1-3.85.94Q31,43.64,23.17,40.05a3.54,3.54,0,0,0-3.11,0c-5.19,2.38-10.39,4.73-15.59,7.1A3.21,3.21,0,0,1,2,47.43a3.1,3.1,0,0,1-2-2.29V5a1.57,1.57,0,0,0,.12-.3,5.61,5.61,0,0,1,3.15-4A15.57,15.57,0,0,1,5.4,0Zm8.25,31.75c0,.61.31.84,1.13.5,2-.81,4-1.61,6-2.45a2,2,0,0,1,1.73,0c2,.84,4,1.64,6,2.44.84.34,1.15.13,1.1-.76-.15-2.18-.29-4.36-.49-6.53a1.86,1.86,0,0,1,.49-1.53c1.42-1.65,2.82-3.34,4.22-5,.6-.71.49-1.06-.42-1.29-2.12-.54-4.23-1.08-6.35-1.57a1.88,1.88,0,0,1-1.29-1c-1.1-1.83-2.25-3.64-3.38-5.45-.57-.92-.92-.92-1.49,0-1.13,1.82-2.27,3.62-3.37,5.45a1.87,1.87,0,0,1-1.29,1c-2.11.49-4.2,1-6.29,1.54-1,.25-1.1.6-.43,1.38,1.32,1.57,2.61,3.16,4,4.69a2.49,2.49,0,0,1,.66,2.13C13.92,27.36,13.82,29.43,13.65,31.75Z"></path>
        </g>
      </g>
    </g>
  </symbol>
</svg>