<svg xmlns="http://www.w3.org/2000/svg" viewBox="0 0 76.64 85.9"><defs><style>.cls-1{fill:#013047;}</style></defs><g id="Layer_2" data-name="Layer 2"><g id="Layer_1-2" data-name="Layer 1"><path class="cls-1" d="M36.13.47a4,4,0,0,0-1.35,1.16c-.41.67-.43,1.05-.43,7.56v6.87l.56.51c1.54,1.44,2.08,3.83,2,8.68-.11,4.14-.45,5.69-1.76,7.64L34.35,34l0,8.07.07,8.07.62,2.15c.58,2,.62,2.43.62,5.58s0,3.59-.6,5.48a12.62,12.62,0,0,0-.62,4.76l0,2.75.81.8.8.81,14.45.07,14.45,0,.75-.47c1.09-.75,1.48-1.7,1.48-3.65V66.81l-1,.54a5.68,5.68,0,0,1-6.12-.49,3.73,3.73,0,0,1-1.82-3.48A6.14,6.14,0,0,1,60.11,59l.84-1-.62-.6A4.08,4.08,0,0,1,59,54.3c0-1.51.77-3.12,2.75-5.74l1.52-2L62.88,46a6.38,6.38,0,0,1,.56-8.31,14.52,14.52,0,0,1,2.28-1.89l1.48-1,0-16.26c-.06-16-.06-16.27-.51-16.85C65.61.24,65.31.13,61.7.06L58.39,0V1.05A3.55,3.55,0,0,1,56.83,4c-.58.43-.93.45-5.76.52s-5.19,0-6.07-.37a2.87,2.87,0,0,1-1.85-2.81L43,.13,40,.06C37.36,0,37,.07,36.13.47Zm16,66.22c.68.68.75.83.64,1.67a2,2,0,0,1-2.19,1.87,1.51,1.51,0,0,1-1.48-.67,2.11,2.11,0,0,1,.47-3.28A1.88,1.88,0,0,1,52.11,66.69Z"/><path class="cls-1" d="M45.08.73a2.22,2.22,0,0,0,.31,1.14c.27.38.64.41,4.89.47C55.8,2.43,56,2.36,56,1V0h-11Z"/><path class="cls-1" d="M31.49,17.78a19.77,19.77,0,0,0-1.11,4.57c-.22,1.7-.88,2.68-3.31,4.92s-3.69,3.95-4.18,5.92c-.56,2.21-1.44,3.78-4.13,7.41a45.57,45.57,0,0,0-2.7,3.87c-.73,1.86-1.25,5.15-1.89,12.45-.24,2.66-.54,5.3-.64,5.88-.39,1.8-2,3.71-9.37,11.44L0,78.56V85.9H29.8l.26-.82a12.12,12.12,0,0,1,2.27-3.92c.73-.71.8-.73,3.05-.86a9.77,9.77,0,0,0,5.95-1.94,22.48,22.48,0,0,0,4-3.45,32.25,32.25,0,0,0-4.61-.17c-5.11,0-5.63-.11-7-1.36A6.48,6.48,0,0,1,32,70a.79.79,0,0,0-.54-.79,1.49,1.49,0,0,1-.66-.58,6.71,6.71,0,0,1,.86-2.32c3.26-6.51,2.51-14.39-2-21.09a5.32,5.32,0,0,1-.88-1.73,5.42,5.42,0,0,1,.75-1.72,15.51,15.51,0,0,0,1.16-2.36,22,22,0,0,0,1.1-5.52c0-.75.12-1,1-1.85,1.37-1.33,1.76-2.62,1.91-6.48.19-5-.6-7.67-2.45-8.23C31.9,17.2,31.73,17.31,31.49,17.78Z"/><path class="cls-1" d="M69.35,30a19.43,19.43,0,0,0,.17,3.76,48.09,48.09,0,0,0,4.94-1c2.21-.66,2.72-1.95,1.63-4.14-.75-1.5-1.55-1.95-3.89-2.19C69,26.09,69.35,25.64,69.35,30Z"/><path class="cls-1" d="M68.47,36.5a11.92,11.92,0,0,0-4.19,3.24,4,4,0,0,0,1.48,5.82c1.7.88,3.16.39,5.5-1.91,1.54-1.53,1.93-2.26,2.1-4s-.09-2.1-1.48-3.11C70.78,35.73,70.05,35.7,68.47,36.5Z"/><path class="cls-1" d="M31.37,42.66l-.46.75.54.8L32,45V43.43a6.79,6.79,0,0,0-.09-1.54A3.54,3.54,0,0,0,31.37,42.66Z"/><path class="cls-1" d="M70.23,47.38a4.48,4.48,0,0,1-3.85.73A6.18,6.18,0,0,0,65,47.92c-1.79,2.15-3.78,5.5-3.78,6.36,0,1.2,1.56,2.85,3,3.17s3.18-1.11,5.84-4.66c1.81-2.38,2.36-4.35,1.55-5.49C71.19,46.72,71.15,46.72,70.23,47.38Z"/><path class="cls-1" d="M69.26,57.22A7.45,7.45,0,0,1,66,59.51a3.13,3.13,0,0,1-2,0l-1.12-.23-.82.79a5.16,5.16,0,0,0-1.67,3.33c0,1,.77,1.78,2.25,2.23,1.12.37,1.14.35,2.32-.19a18.68,18.68,0,0,0,5.41-5A4.34,4.34,0,0,0,70.16,57l-.32-.49Z"/></g></g></svg>